%FSLAX34Y34*%
G04 Gerber Fmt 3.4, Leading zero omitted, Abs format*
G04 (created by PCBNEW (2014-05-22 BZR 4885)-product) date Tue 27 May 2014 09:52:33 PM EST*
%MOIN*%
G01*
G70*
G90*
G04 APERTURE LIST*
%ADD10C,0.003937*%
%ADD11C,0.078740*%
%ADD12O,0.060000X0.100000*%
%ADD13C,0.155000*%
%ADD14R,0.016000X0.050000*%
%ADD15R,0.047200X0.059100*%
%ADD16C,0.055000*%
%ADD17O,0.070866X0.102362*%
%ADD18C,0.118110*%
%ADD19R,0.059100X0.047200*%
%ADD20C,0.020000*%
%ADD21C,0.010000*%
G04 APERTURE END LIST*
G54D10*
G54D11*
X76196Y-54250D03*
X77180Y-53265D03*
X77180Y-55234D03*
G54D12*
X79724Y-51952D03*
X78724Y-51952D03*
X77724Y-51952D03*
X74724Y-51952D03*
X75724Y-51952D03*
X76724Y-51952D03*
X72724Y-51952D03*
X71724Y-51952D03*
X70724Y-51952D03*
X68724Y-51952D03*
X67724Y-51952D03*
X79724Y-32952D03*
X78724Y-32952D03*
X77724Y-32952D03*
X76724Y-32952D03*
X75724Y-32952D03*
X74724Y-32952D03*
X73724Y-32952D03*
X72724Y-32952D03*
X71124Y-32952D03*
X70124Y-32952D03*
X69124Y-32952D03*
X68124Y-32952D03*
X67124Y-32952D03*
X66124Y-32952D03*
X65124Y-32952D03*
X64124Y-32952D03*
X69724Y-51952D03*
G54D13*
X80724Y-49952D03*
X80724Y-38952D03*
X60724Y-32952D03*
X60224Y-51952D03*
G54D12*
X63124Y-32952D03*
X62124Y-32952D03*
G54D14*
X56500Y-38775D03*
X56750Y-38775D03*
X57010Y-38775D03*
X57270Y-38775D03*
X57520Y-38775D03*
X57780Y-38775D03*
X58040Y-38775D03*
X58290Y-38775D03*
X58550Y-38775D03*
X58800Y-38775D03*
X59060Y-38775D03*
X59320Y-38775D03*
X59570Y-38775D03*
X59830Y-38775D03*
X59830Y-41575D03*
X59570Y-41575D03*
X59330Y-41575D03*
X59060Y-41575D03*
X58800Y-41575D03*
X58550Y-41575D03*
X58290Y-41575D03*
X58040Y-41575D03*
X57780Y-41575D03*
X57520Y-41575D03*
X57270Y-41575D03*
X57010Y-41575D03*
X56750Y-41575D03*
X56500Y-41575D03*
G54D15*
X66116Y-37374D03*
X66116Y-36350D03*
G54D16*
X49728Y-51362D03*
X49728Y-53362D03*
X46728Y-51362D03*
X46728Y-53362D03*
X54059Y-49590D03*
X54059Y-51590D03*
X51059Y-49590D03*
X51059Y-51590D03*
X54059Y-53133D03*
X54059Y-55133D03*
X51059Y-53133D03*
X51059Y-55133D03*
X58586Y-51362D03*
X58586Y-53362D03*
X55586Y-51362D03*
X55586Y-53362D03*
X65870Y-51362D03*
X65870Y-53362D03*
X62870Y-51362D03*
X62870Y-53362D03*
X67650Y-55400D03*
X67650Y-53400D03*
X70650Y-55400D03*
X70650Y-53400D03*
G54D17*
X51100Y-35000D03*
X52100Y-35000D03*
X53100Y-35000D03*
X54100Y-35000D03*
X55100Y-35000D03*
X56100Y-35000D03*
X57100Y-35000D03*
X58100Y-35000D03*
X59100Y-35000D03*
X60100Y-35000D03*
X61100Y-35000D03*
X62100Y-35000D03*
X63100Y-35000D03*
X64100Y-35000D03*
X65100Y-35000D03*
X66100Y-35000D03*
G54D18*
X48935Y-35000D03*
X48935Y-47205D03*
X78462Y-47205D03*
X78462Y-35000D03*
G54D19*
X63652Y-39242D03*
X62628Y-39242D03*
X63632Y-40496D03*
X62608Y-40496D03*
G54D20*
X71480Y-49320D03*
X71480Y-47940D03*
X68920Y-49270D03*
X68920Y-47940D03*
X53300Y-36750D03*
X57954Y-36764D03*
X57480Y-37920D03*
X56090Y-37930D03*
X57820Y-37480D03*
X54830Y-37480D03*
X58930Y-37950D03*
X59570Y-40740D03*
X59910Y-38070D03*
X61890Y-39910D03*
X74118Y-46750D03*
X58280Y-43200D03*
X62630Y-38370D03*
X59680Y-37720D03*
X74448Y-46266D03*
G54D21*
X68920Y-47930D02*
X68920Y-47940D01*
X50467Y-35079D02*
X50606Y-34940D01*
X66116Y-36350D02*
X66116Y-35016D01*
X66116Y-35016D02*
X66100Y-35000D01*
X58550Y-38775D02*
X58550Y-37360D01*
X52100Y-35550D02*
X52100Y-35000D01*
X53300Y-36750D02*
X52100Y-35550D01*
X58550Y-37360D02*
X57954Y-36764D01*
X59060Y-40974D02*
X58878Y-40792D01*
X59060Y-41575D02*
X59060Y-40974D01*
X59060Y-42180D02*
X59176Y-42296D01*
X59060Y-41575D02*
X59060Y-42180D01*
X64100Y-35000D02*
X64100Y-36148D01*
X64100Y-36148D02*
X62606Y-37642D01*
X56750Y-39330D02*
X56750Y-38775D01*
X57320Y-39900D02*
X56750Y-39330D01*
X60348Y-39900D02*
X57320Y-39900D01*
X62606Y-37642D02*
X60348Y-39900D01*
X63100Y-35000D02*
X63100Y-36865D01*
X63100Y-36865D02*
X61606Y-38359D01*
X57010Y-39290D02*
X57010Y-38775D01*
X57420Y-39700D02*
X57010Y-39290D01*
X60265Y-39700D02*
X57420Y-39700D01*
X61606Y-38359D02*
X60265Y-39700D01*
X62100Y-35000D02*
X62100Y-37582D01*
X60182Y-39500D02*
X57580Y-39500D01*
X57580Y-39500D02*
X57270Y-39190D01*
X57270Y-39190D02*
X57270Y-38775D01*
X62100Y-37582D02*
X60182Y-39500D01*
X61100Y-35000D02*
X61100Y-38300D01*
X60120Y-39280D02*
X57680Y-39280D01*
X57680Y-39280D02*
X57520Y-39120D01*
X57520Y-39120D02*
X57520Y-38775D01*
X61100Y-38300D02*
X60120Y-39280D01*
X56100Y-35000D02*
X56100Y-37090D01*
X56100Y-37090D02*
X57270Y-38260D01*
X57780Y-38380D02*
X57780Y-38775D01*
X57660Y-38260D02*
X57780Y-38380D01*
X57270Y-38260D02*
X57660Y-38260D01*
X57480Y-37920D02*
X57500Y-37940D01*
X57500Y-37940D02*
X57660Y-37940D01*
X57660Y-37940D02*
X58040Y-38320D01*
X58040Y-38775D02*
X58040Y-38320D01*
X55100Y-36940D02*
X56090Y-37930D01*
X55100Y-36940D02*
X55100Y-35000D01*
X57820Y-37480D02*
X58290Y-37950D01*
X58290Y-38775D02*
X58290Y-37950D01*
X54100Y-36750D02*
X54100Y-35000D01*
X54830Y-37480D02*
X54100Y-36750D01*
X76196Y-54250D02*
X74900Y-54250D01*
X53100Y-34218D02*
X53100Y-35000D01*
X53218Y-34100D02*
X53100Y-34218D01*
X67104Y-34100D02*
X53218Y-34100D01*
X75110Y-42106D02*
X67104Y-34100D01*
X75110Y-47356D02*
X75110Y-42106D01*
X73850Y-48616D02*
X75110Y-47356D01*
X73850Y-53200D02*
X73850Y-48616D01*
X74900Y-54250D02*
X73850Y-53200D01*
X58800Y-38775D02*
X58800Y-38080D01*
X58800Y-38080D02*
X58930Y-37950D01*
X59830Y-41575D02*
X59830Y-41000D01*
X59830Y-41000D02*
X59570Y-40740D01*
X59330Y-41575D02*
X59330Y-40980D01*
X59570Y-40740D02*
X59570Y-41575D01*
X59330Y-40980D02*
X59570Y-40740D01*
X64602Y-37374D02*
X64590Y-37362D01*
X64590Y-37362D02*
X63112Y-37362D01*
X56500Y-39306D02*
X56500Y-38775D01*
X57253Y-40060D02*
X56500Y-39306D01*
X60414Y-40060D02*
X57253Y-40060D01*
X63112Y-37362D02*
X60414Y-40060D01*
X66116Y-37374D02*
X64602Y-37374D01*
X59570Y-38410D02*
X59570Y-38775D01*
X59910Y-38070D02*
X59570Y-38410D01*
X62460Y-40480D02*
X61890Y-39910D01*
X62628Y-40480D02*
X62460Y-40480D01*
X68706Y-46750D02*
X74118Y-46750D01*
X62628Y-40672D02*
X68706Y-46750D01*
X62628Y-40480D02*
X62628Y-40672D01*
X58290Y-43190D02*
X58290Y-41575D01*
X58280Y-43200D02*
X58290Y-43190D01*
X50290Y-48800D02*
X49550Y-48800D01*
X56972Y-43180D02*
X57261Y-42891D01*
X53030Y-43180D02*
X56972Y-43180D01*
X48950Y-47260D02*
X53030Y-43180D01*
X48950Y-48200D02*
X48950Y-47260D01*
X49550Y-48800D02*
X48950Y-48200D01*
X58040Y-41575D02*
X58040Y-42112D01*
X58040Y-42112D02*
X57261Y-42891D01*
X54914Y-50690D02*
X55586Y-51362D01*
X53950Y-50690D02*
X54914Y-50690D01*
X52060Y-48800D02*
X53950Y-50690D01*
X50290Y-48800D02*
X52060Y-48800D01*
X57261Y-42891D02*
X57172Y-42980D01*
X49960Y-49040D02*
X49507Y-49040D01*
X56890Y-42979D02*
X57170Y-42700D01*
X52947Y-42979D02*
X56890Y-42979D01*
X48749Y-47177D02*
X52947Y-42979D01*
X48749Y-48282D02*
X48749Y-47177D01*
X49507Y-49040D02*
X48749Y-48282D01*
X51059Y-53130D02*
X51590Y-52600D01*
X57780Y-42090D02*
X57780Y-41575D01*
X57170Y-42700D02*
X57780Y-42090D01*
X57090Y-42780D02*
X57170Y-42700D01*
X51350Y-49040D02*
X49960Y-49040D01*
X51590Y-49280D02*
X51350Y-49040D01*
X51590Y-52600D02*
X51590Y-49280D01*
X51059Y-53133D02*
X51059Y-53130D01*
X56816Y-42766D02*
X52877Y-42766D01*
X50860Y-49240D02*
X49424Y-49240D01*
X49424Y-49240D02*
X48549Y-48365D01*
X48549Y-48365D02*
X48549Y-47094D01*
X48549Y-47094D02*
X52864Y-42779D01*
X50860Y-49240D02*
X51059Y-49439D01*
X52877Y-42766D02*
X52864Y-42779D01*
X51059Y-49590D02*
X51059Y-49439D01*
X56802Y-42779D02*
X56816Y-42766D01*
X56816Y-42766D02*
X57086Y-42496D01*
X57520Y-41575D02*
X57520Y-42062D01*
X57520Y-42062D02*
X57086Y-42496D01*
X46728Y-51362D02*
X46728Y-49987D01*
X57270Y-42030D02*
X57270Y-41575D01*
X56733Y-42566D02*
X57270Y-42030D01*
X52795Y-42566D02*
X56733Y-42566D01*
X48349Y-47011D02*
X52795Y-42566D01*
X48349Y-48365D02*
X48349Y-47011D01*
X46728Y-49987D02*
X48349Y-48365D01*
X62628Y-38372D02*
X62630Y-38370D01*
X59680Y-37720D02*
X59320Y-38080D01*
X59320Y-38080D02*
X59320Y-38775D01*
X62628Y-39330D02*
X62628Y-38372D01*
X66552Y-38370D02*
X74448Y-46266D01*
X62630Y-38370D02*
X66552Y-38370D01*
X70650Y-53400D02*
X69171Y-53400D01*
X69171Y-53400D02*
X67724Y-51952D01*
X62124Y-32952D02*
X62124Y-33144D01*
G36*
X60850Y-38196D02*
X60110Y-38936D01*
X60110Y-38485D01*
X60079Y-38411D01*
X60023Y-38355D01*
X60014Y-38351D01*
X60079Y-38324D01*
X60164Y-38240D01*
X60209Y-38129D01*
X60210Y-38010D01*
X60164Y-37900D01*
X60080Y-37815D01*
X59979Y-37774D01*
X59980Y-37660D01*
X59934Y-37550D01*
X59850Y-37465D01*
X59739Y-37420D01*
X59620Y-37419D01*
X59510Y-37465D01*
X59425Y-37549D01*
X59380Y-37660D01*
X59380Y-37666D01*
X59208Y-37838D01*
X59184Y-37780D01*
X59100Y-37695D01*
X58989Y-37650D01*
X58870Y-37649D01*
X58760Y-37695D01*
X58675Y-37779D01*
X58630Y-37890D01*
X58630Y-37896D01*
X58623Y-37903D01*
X58569Y-37984D01*
X58550Y-38080D01*
X58550Y-38275D01*
X58540Y-38275D01*
X58540Y-37950D01*
X58520Y-37854D01*
X58466Y-37773D01*
X58120Y-37426D01*
X58120Y-37420D01*
X58074Y-37310D01*
X57990Y-37225D01*
X57879Y-37180D01*
X57760Y-37179D01*
X57650Y-37225D01*
X57565Y-37309D01*
X57520Y-37420D01*
X57519Y-37539D01*
X57556Y-37626D01*
X57539Y-37620D01*
X57420Y-37619D01*
X57310Y-37665D01*
X57225Y-37749D01*
X57192Y-37829D01*
X56350Y-36986D01*
X56350Y-35658D01*
X56491Y-35563D01*
X56600Y-35401D01*
X56708Y-35563D01*
X56887Y-35683D01*
X57100Y-35725D01*
X57312Y-35683D01*
X57491Y-35563D01*
X57600Y-35401D01*
X57708Y-35563D01*
X57887Y-35683D01*
X58100Y-35725D01*
X58312Y-35683D01*
X58491Y-35563D01*
X58600Y-35401D01*
X58708Y-35563D01*
X58887Y-35683D01*
X59100Y-35725D01*
X59312Y-35683D01*
X59491Y-35563D01*
X59600Y-35401D01*
X59708Y-35563D01*
X59887Y-35683D01*
X60100Y-35725D01*
X60312Y-35683D01*
X60491Y-35563D01*
X60600Y-35401D01*
X60708Y-35563D01*
X60850Y-35658D01*
X60850Y-38196D01*
X60850Y-38196D01*
G37*
X60850Y-38196D02*
X60110Y-38936D01*
X60110Y-38485D01*
X60079Y-38411D01*
X60023Y-38355D01*
X60014Y-38351D01*
X60079Y-38324D01*
X60164Y-38240D01*
X60209Y-38129D01*
X60210Y-38010D01*
X60164Y-37900D01*
X60080Y-37815D01*
X59979Y-37774D01*
X59980Y-37660D01*
X59934Y-37550D01*
X59850Y-37465D01*
X59739Y-37420D01*
X59620Y-37419D01*
X59510Y-37465D01*
X59425Y-37549D01*
X59380Y-37660D01*
X59380Y-37666D01*
X59208Y-37838D01*
X59184Y-37780D01*
X59100Y-37695D01*
X58989Y-37650D01*
X58870Y-37649D01*
X58760Y-37695D01*
X58675Y-37779D01*
X58630Y-37890D01*
X58630Y-37896D01*
X58623Y-37903D01*
X58569Y-37984D01*
X58550Y-38080D01*
X58550Y-38275D01*
X58540Y-38275D01*
X58540Y-37950D01*
X58520Y-37854D01*
X58466Y-37773D01*
X58120Y-37426D01*
X58120Y-37420D01*
X58074Y-37310D01*
X57990Y-37225D01*
X57879Y-37180D01*
X57760Y-37179D01*
X57650Y-37225D01*
X57565Y-37309D01*
X57520Y-37420D01*
X57519Y-37539D01*
X57556Y-37626D01*
X57539Y-37620D01*
X57420Y-37619D01*
X57310Y-37665D01*
X57225Y-37749D01*
X57192Y-37829D01*
X56350Y-36986D01*
X56350Y-35658D01*
X56491Y-35563D01*
X56600Y-35401D01*
X56708Y-35563D01*
X56887Y-35683D01*
X57100Y-35725D01*
X57312Y-35683D01*
X57491Y-35563D01*
X57600Y-35401D01*
X57708Y-35563D01*
X57887Y-35683D01*
X58100Y-35725D01*
X58312Y-35683D01*
X58491Y-35563D01*
X58600Y-35401D01*
X58708Y-35563D01*
X58887Y-35683D01*
X59100Y-35725D01*
X59312Y-35683D01*
X59491Y-35563D01*
X59600Y-35401D01*
X59708Y-35563D01*
X59887Y-35683D01*
X60100Y-35725D01*
X60312Y-35683D01*
X60491Y-35563D01*
X60600Y-35401D01*
X60708Y-35563D01*
X60850Y-35658D01*
X60850Y-38196D01*
G36*
X79750Y-55850D02*
X77828Y-55850D01*
X77828Y-55338D01*
X77818Y-55082D01*
X77774Y-54974D01*
X77774Y-53148D01*
X77683Y-52929D01*
X77516Y-52762D01*
X77298Y-52672D01*
X77062Y-52671D01*
X76844Y-52762D01*
X76677Y-52929D01*
X76586Y-53147D01*
X76586Y-53383D01*
X76676Y-53601D01*
X76843Y-53768D01*
X77061Y-53859D01*
X77297Y-53859D01*
X77516Y-53769D01*
X77683Y-53602D01*
X77773Y-53384D01*
X77774Y-53148D01*
X77774Y-54974D01*
X77739Y-54890D01*
X77634Y-54851D01*
X77563Y-54921D01*
X77563Y-54780D01*
X77524Y-54675D01*
X77284Y-54586D01*
X77028Y-54595D01*
X76836Y-54675D01*
X76797Y-54780D01*
X77180Y-55163D01*
X77563Y-54780D01*
X77563Y-54921D01*
X77250Y-55234D01*
X77634Y-55617D01*
X77739Y-55578D01*
X77828Y-55338D01*
X77828Y-55850D01*
X77386Y-55850D01*
X77524Y-55793D01*
X77563Y-55688D01*
X77180Y-55304D01*
X77109Y-55375D01*
X77109Y-55234D01*
X76726Y-54851D01*
X76621Y-54890D01*
X76532Y-55130D01*
X76541Y-55386D01*
X76621Y-55578D01*
X76726Y-55617D01*
X77109Y-55234D01*
X77109Y-55375D01*
X76797Y-55688D01*
X76836Y-55793D01*
X76989Y-55850D01*
X73224Y-55850D01*
X73224Y-52166D01*
X73224Y-51739D01*
X73186Y-51547D01*
X73077Y-51385D01*
X72915Y-51277D01*
X72724Y-51239D01*
X72533Y-51277D01*
X72370Y-51385D01*
X72262Y-51547D01*
X72224Y-51739D01*
X72186Y-51547D01*
X72077Y-51385D01*
X71915Y-51277D01*
X71780Y-51250D01*
X71780Y-49260D01*
X71780Y-47880D01*
X71734Y-47770D01*
X71650Y-47685D01*
X71539Y-47640D01*
X71420Y-47639D01*
X71310Y-47685D01*
X71225Y-47769D01*
X71180Y-47880D01*
X71179Y-47999D01*
X71225Y-48109D01*
X71309Y-48194D01*
X71420Y-48239D01*
X71539Y-48240D01*
X71649Y-48194D01*
X71734Y-48110D01*
X71779Y-47999D01*
X71780Y-47880D01*
X71780Y-49260D01*
X71734Y-49150D01*
X71650Y-49065D01*
X71539Y-49020D01*
X71420Y-49019D01*
X71310Y-49065D01*
X71225Y-49149D01*
X71180Y-49260D01*
X71179Y-49379D01*
X71225Y-49489D01*
X71309Y-49574D01*
X71420Y-49619D01*
X71539Y-49620D01*
X71649Y-49574D01*
X71734Y-49490D01*
X71779Y-49379D01*
X71780Y-49260D01*
X71780Y-51250D01*
X71724Y-51239D01*
X71533Y-51277D01*
X71370Y-51385D01*
X71262Y-51547D01*
X71224Y-51739D01*
X71186Y-51547D01*
X71077Y-51385D01*
X70915Y-51277D01*
X70724Y-51239D01*
X70533Y-51277D01*
X70370Y-51385D01*
X70262Y-51547D01*
X70248Y-51616D01*
X70213Y-51496D01*
X70077Y-51328D01*
X69888Y-51225D01*
X69859Y-51219D01*
X69774Y-51267D01*
X69774Y-51902D01*
X69782Y-51902D01*
X69782Y-52002D01*
X69774Y-52002D01*
X69774Y-52637D01*
X69859Y-52685D01*
X69888Y-52680D01*
X70077Y-52577D01*
X70213Y-52409D01*
X70248Y-52289D01*
X70262Y-52357D01*
X70370Y-52520D01*
X70533Y-52628D01*
X70724Y-52666D01*
X70915Y-52628D01*
X71077Y-52520D01*
X71186Y-52357D01*
X71224Y-52166D01*
X71262Y-52357D01*
X71370Y-52520D01*
X71533Y-52628D01*
X71724Y-52666D01*
X71915Y-52628D01*
X72077Y-52520D01*
X72186Y-52357D01*
X72224Y-52166D01*
X72262Y-52357D01*
X72370Y-52520D01*
X72533Y-52628D01*
X72724Y-52666D01*
X72915Y-52628D01*
X73077Y-52520D01*
X73186Y-52357D01*
X73224Y-52166D01*
X73224Y-55850D01*
X70804Y-55850D01*
X70918Y-55802D01*
X71052Y-55669D01*
X71124Y-55494D01*
X71125Y-55305D01*
X71125Y-53305D01*
X71052Y-53131D01*
X70919Y-52997D01*
X70744Y-52925D01*
X70555Y-52924D01*
X70381Y-52997D01*
X70247Y-53130D01*
X70239Y-53150D01*
X69275Y-53150D01*
X68780Y-52655D01*
X68915Y-52628D01*
X69077Y-52520D01*
X69186Y-52357D01*
X69199Y-52289D01*
X69235Y-52409D01*
X69370Y-52577D01*
X69560Y-52680D01*
X69589Y-52685D01*
X69674Y-52637D01*
X69674Y-52002D01*
X69666Y-52002D01*
X69666Y-51902D01*
X69674Y-51902D01*
X69674Y-51267D01*
X69589Y-51219D01*
X69560Y-51225D01*
X69370Y-51328D01*
X69235Y-51496D01*
X69220Y-51548D01*
X69220Y-49210D01*
X69220Y-47880D01*
X69174Y-47770D01*
X69090Y-47685D01*
X68979Y-47640D01*
X68860Y-47639D01*
X68750Y-47685D01*
X68665Y-47769D01*
X68620Y-47880D01*
X68619Y-47999D01*
X68665Y-48109D01*
X68749Y-48194D01*
X68860Y-48239D01*
X68979Y-48240D01*
X69089Y-48194D01*
X69174Y-48110D01*
X69219Y-47999D01*
X69220Y-47880D01*
X69220Y-49210D01*
X69174Y-49100D01*
X69090Y-49015D01*
X68979Y-48970D01*
X68860Y-48969D01*
X68750Y-49015D01*
X68665Y-49099D01*
X68620Y-49210D01*
X68619Y-49329D01*
X68665Y-49439D01*
X68749Y-49524D01*
X68860Y-49569D01*
X68979Y-49570D01*
X69089Y-49524D01*
X69174Y-49440D01*
X69219Y-49329D01*
X69220Y-49210D01*
X69220Y-51548D01*
X69199Y-51616D01*
X69186Y-51547D01*
X69077Y-51385D01*
X68915Y-51277D01*
X68724Y-51239D01*
X68533Y-51277D01*
X68370Y-51385D01*
X68262Y-51547D01*
X68224Y-51739D01*
X68186Y-51547D01*
X68077Y-51385D01*
X67915Y-51277D01*
X67724Y-51239D01*
X67533Y-51277D01*
X67370Y-51385D01*
X67262Y-51547D01*
X67224Y-51739D01*
X67224Y-52166D01*
X67262Y-52357D01*
X67370Y-52520D01*
X67533Y-52628D01*
X67724Y-52666D01*
X67915Y-52628D01*
X67994Y-52576D01*
X68994Y-53576D01*
X69075Y-53630D01*
X69171Y-53650D01*
X70239Y-53650D01*
X70247Y-53668D01*
X70380Y-53802D01*
X70555Y-53874D01*
X70744Y-53875D01*
X70918Y-53802D01*
X71052Y-53669D01*
X71124Y-53494D01*
X71125Y-53305D01*
X71125Y-55305D01*
X71052Y-55131D01*
X70919Y-54997D01*
X70744Y-54925D01*
X70555Y-54924D01*
X70381Y-54997D01*
X70247Y-55130D01*
X70175Y-55305D01*
X70174Y-55494D01*
X70247Y-55668D01*
X70380Y-55802D01*
X70495Y-55850D01*
X67804Y-55850D01*
X67918Y-55802D01*
X68052Y-55669D01*
X68124Y-55494D01*
X68125Y-55305D01*
X68125Y-53305D01*
X68052Y-53131D01*
X67919Y-52997D01*
X67744Y-52925D01*
X67555Y-52924D01*
X67381Y-52997D01*
X67247Y-53130D01*
X67175Y-53305D01*
X67174Y-53494D01*
X67247Y-53668D01*
X67380Y-53802D01*
X67555Y-53874D01*
X67744Y-53875D01*
X67918Y-53802D01*
X68052Y-53669D01*
X68124Y-53494D01*
X68125Y-53305D01*
X68125Y-55305D01*
X68052Y-55131D01*
X67919Y-54997D01*
X67744Y-54925D01*
X67555Y-54924D01*
X67381Y-54997D01*
X67247Y-55130D01*
X67175Y-55305D01*
X67174Y-55494D01*
X67247Y-55668D01*
X67380Y-55802D01*
X67495Y-55850D01*
X66345Y-55850D01*
X66345Y-53268D01*
X66345Y-51268D01*
X66272Y-51093D01*
X66139Y-50959D01*
X65964Y-50887D01*
X65776Y-50887D01*
X65601Y-50959D01*
X65467Y-51092D01*
X65395Y-51267D01*
X65394Y-51456D01*
X65467Y-51630D01*
X65600Y-51764D01*
X65775Y-51837D01*
X65964Y-51837D01*
X66138Y-51765D01*
X66272Y-51631D01*
X66344Y-51457D01*
X66345Y-51268D01*
X66345Y-53268D01*
X66272Y-53093D01*
X66139Y-52959D01*
X65964Y-52887D01*
X65776Y-52887D01*
X65601Y-52959D01*
X65467Y-53092D01*
X65395Y-53267D01*
X65394Y-53456D01*
X65467Y-53630D01*
X65600Y-53764D01*
X65775Y-53837D01*
X65964Y-53837D01*
X66138Y-53765D01*
X66272Y-53631D01*
X66344Y-53457D01*
X66345Y-53268D01*
X66345Y-55850D01*
X63345Y-55850D01*
X63345Y-53268D01*
X63345Y-51268D01*
X63272Y-51093D01*
X63139Y-50959D01*
X62964Y-50887D01*
X62776Y-50887D01*
X62601Y-50959D01*
X62467Y-51092D01*
X62395Y-51267D01*
X62394Y-51456D01*
X62467Y-51630D01*
X62600Y-51764D01*
X62775Y-51837D01*
X62964Y-51837D01*
X63138Y-51765D01*
X63272Y-51631D01*
X63344Y-51457D01*
X63345Y-51268D01*
X63345Y-53268D01*
X63272Y-53093D01*
X63139Y-52959D01*
X62964Y-52887D01*
X62776Y-52887D01*
X62601Y-52959D01*
X62467Y-53092D01*
X62395Y-53267D01*
X62394Y-53456D01*
X62467Y-53630D01*
X62600Y-53764D01*
X62775Y-53837D01*
X62964Y-53837D01*
X63138Y-53765D01*
X63272Y-53631D01*
X63344Y-53457D01*
X63345Y-53268D01*
X63345Y-55850D01*
X61199Y-55850D01*
X61199Y-51759D01*
X61051Y-51401D01*
X60777Y-51126D01*
X60419Y-50977D01*
X60110Y-50977D01*
X60110Y-41864D01*
X60110Y-41785D01*
X60110Y-41285D01*
X60080Y-41212D01*
X60080Y-41000D01*
X60080Y-41000D01*
X60080Y-41000D01*
X60060Y-40904D01*
X60006Y-40823D01*
X59870Y-40686D01*
X59870Y-40680D01*
X59824Y-40570D01*
X59740Y-40485D01*
X59629Y-40440D01*
X59510Y-40439D01*
X59400Y-40485D01*
X59315Y-40569D01*
X59270Y-40680D01*
X59270Y-40686D01*
X59153Y-40803D01*
X59099Y-40884D01*
X59080Y-40980D01*
X59080Y-41212D01*
X59065Y-41249D01*
X59049Y-41211D01*
X59020Y-41182D01*
X59020Y-41137D01*
X58957Y-41075D01*
X58930Y-41075D01*
X58838Y-41113D01*
X58826Y-41125D01*
X58680Y-41125D01*
X58675Y-41127D01*
X58669Y-41125D01*
X58590Y-41125D01*
X58430Y-41125D01*
X58420Y-41129D01*
X58409Y-41125D01*
X58330Y-41125D01*
X58170Y-41125D01*
X58165Y-41127D01*
X58159Y-41125D01*
X58080Y-41125D01*
X57920Y-41125D01*
X57910Y-41129D01*
X57899Y-41125D01*
X57820Y-41125D01*
X57660Y-41125D01*
X57650Y-41129D01*
X57639Y-41125D01*
X57560Y-41125D01*
X57400Y-41125D01*
X57395Y-41127D01*
X57389Y-41125D01*
X57310Y-41125D01*
X57150Y-41125D01*
X57140Y-41129D01*
X57129Y-41125D01*
X57050Y-41125D01*
X56890Y-41125D01*
X56880Y-41129D01*
X56869Y-41125D01*
X56790Y-41125D01*
X56630Y-41125D01*
X56625Y-41127D01*
X56619Y-41125D01*
X56540Y-41125D01*
X56380Y-41125D01*
X56306Y-41155D01*
X56250Y-41211D01*
X56220Y-41285D01*
X56220Y-41364D01*
X56220Y-41864D01*
X56250Y-41938D01*
X56306Y-41994D01*
X56380Y-42025D01*
X56459Y-42025D01*
X56619Y-42025D01*
X56624Y-42022D01*
X56630Y-42025D01*
X56709Y-42025D01*
X56869Y-42025D01*
X56879Y-42020D01*
X56890Y-42025D01*
X56921Y-42025D01*
X56630Y-42316D01*
X52795Y-42316D01*
X52699Y-42335D01*
X52618Y-42389D01*
X52050Y-42957D01*
X52050Y-35696D01*
X52050Y-35050D01*
X52042Y-35050D01*
X52042Y-34950D01*
X52050Y-34950D01*
X52050Y-34303D01*
X51956Y-34255D01*
X51914Y-34265D01*
X51708Y-34379D01*
X51570Y-34553D01*
X51491Y-34436D01*
X51312Y-34316D01*
X51100Y-34274D01*
X50887Y-34316D01*
X50708Y-34436D01*
X50587Y-34616D01*
X50571Y-34697D01*
X50510Y-34709D01*
X50429Y-34764D01*
X50291Y-34902D01*
X50236Y-34983D01*
X50217Y-35079D01*
X50236Y-35174D01*
X50291Y-35256D01*
X50372Y-35310D01*
X50467Y-35329D01*
X50563Y-35310D01*
X50572Y-35304D01*
X50587Y-35383D01*
X50708Y-35563D01*
X50887Y-35683D01*
X51100Y-35725D01*
X51312Y-35683D01*
X51491Y-35563D01*
X51570Y-35446D01*
X51708Y-35620D01*
X51914Y-35734D01*
X51956Y-35744D01*
X52050Y-35696D01*
X52050Y-42957D01*
X49725Y-45282D01*
X49725Y-34843D01*
X49605Y-34552D01*
X49383Y-34330D01*
X49092Y-34209D01*
X48778Y-34209D01*
X48487Y-34329D01*
X48265Y-34551D01*
X48144Y-34842D01*
X48144Y-35156D01*
X48264Y-35447D01*
X48486Y-35669D01*
X48777Y-35790D01*
X49091Y-35790D01*
X49382Y-35670D01*
X49604Y-35448D01*
X49725Y-35157D01*
X49725Y-34843D01*
X49725Y-45282D01*
X48173Y-46834D01*
X48119Y-46915D01*
X48099Y-47011D01*
X48099Y-48262D01*
X46551Y-49810D01*
X46497Y-49891D01*
X46478Y-49987D01*
X46478Y-50951D01*
X46459Y-50959D01*
X46325Y-51092D01*
X46253Y-51267D01*
X46253Y-51456D01*
X46325Y-51630D01*
X46458Y-51764D01*
X46633Y-51837D01*
X46822Y-51837D01*
X46997Y-51765D01*
X47130Y-51631D01*
X47203Y-51457D01*
X47203Y-51268D01*
X47131Y-51093D01*
X46997Y-50959D01*
X46978Y-50951D01*
X46978Y-50090D01*
X48449Y-48619D01*
X49247Y-49416D01*
X49328Y-49470D01*
X49424Y-49490D01*
X50586Y-49490D01*
X50584Y-49495D01*
X50583Y-49684D01*
X50656Y-49859D01*
X50789Y-49993D01*
X50964Y-50065D01*
X51153Y-50065D01*
X51327Y-49993D01*
X51340Y-49981D01*
X51340Y-51199D01*
X51328Y-51188D01*
X51153Y-51115D01*
X50964Y-51115D01*
X50790Y-51187D01*
X50656Y-51321D01*
X50584Y-51495D01*
X50583Y-51684D01*
X50656Y-51859D01*
X50789Y-51993D01*
X50964Y-52065D01*
X51153Y-52065D01*
X51327Y-51993D01*
X51340Y-51981D01*
X51340Y-52496D01*
X51170Y-52665D01*
X51153Y-52658D01*
X50964Y-52658D01*
X50790Y-52730D01*
X50656Y-52864D01*
X50584Y-53038D01*
X50583Y-53227D01*
X50656Y-53402D01*
X50789Y-53536D01*
X50964Y-53608D01*
X51153Y-53608D01*
X51327Y-53536D01*
X51461Y-53403D01*
X51533Y-53228D01*
X51534Y-53039D01*
X51525Y-53018D01*
X51766Y-52776D01*
X51820Y-52695D01*
X51820Y-52695D01*
X51840Y-52600D01*
X51840Y-49280D01*
X51840Y-49280D01*
X51840Y-49280D01*
X51820Y-49184D01*
X51766Y-49103D01*
X51713Y-49050D01*
X51956Y-49050D01*
X53773Y-50866D01*
X53854Y-50920D01*
X53950Y-50940D01*
X53950Y-50940D01*
X53950Y-50940D01*
X54810Y-50940D01*
X55119Y-51248D01*
X55111Y-51267D01*
X55111Y-51456D01*
X55183Y-51630D01*
X55317Y-51764D01*
X55491Y-51837D01*
X55680Y-51837D01*
X55855Y-51765D01*
X55989Y-51631D01*
X56061Y-51457D01*
X56061Y-51268D01*
X55989Y-51093D01*
X55856Y-50959D01*
X55681Y-50887D01*
X55492Y-50887D01*
X55473Y-50895D01*
X55091Y-50513D01*
X55010Y-50459D01*
X54914Y-50440D01*
X54534Y-50440D01*
X54534Y-49496D01*
X54461Y-49321D01*
X54328Y-49188D01*
X54153Y-49115D01*
X53964Y-49115D01*
X53790Y-49187D01*
X53656Y-49321D01*
X53584Y-49495D01*
X53583Y-49684D01*
X53656Y-49859D01*
X53789Y-49993D01*
X53964Y-50065D01*
X54153Y-50065D01*
X54327Y-49993D01*
X54461Y-49859D01*
X54533Y-49685D01*
X54534Y-49496D01*
X54534Y-50440D01*
X54053Y-50440D01*
X52236Y-48623D01*
X52155Y-48569D01*
X52060Y-48550D01*
X50290Y-48550D01*
X49653Y-48550D01*
X49200Y-48096D01*
X49200Y-47950D01*
X49382Y-47875D01*
X49604Y-47653D01*
X49725Y-47362D01*
X49725Y-47048D01*
X49664Y-46899D01*
X53133Y-43430D01*
X56972Y-43430D01*
X57068Y-43410D01*
X57149Y-43356D01*
X57349Y-43156D01*
X57438Y-43068D01*
X58040Y-42466D01*
X58040Y-43015D01*
X58025Y-43029D01*
X57980Y-43140D01*
X57979Y-43259D01*
X58025Y-43369D01*
X58109Y-43454D01*
X58220Y-43499D01*
X58339Y-43500D01*
X58449Y-43454D01*
X58534Y-43370D01*
X58579Y-43259D01*
X58580Y-43140D01*
X58540Y-43043D01*
X58540Y-42025D01*
X58669Y-42025D01*
X58674Y-42022D01*
X58680Y-42025D01*
X58759Y-42025D01*
X58826Y-42025D01*
X58838Y-42036D01*
X58930Y-42075D01*
X58957Y-42075D01*
X59020Y-42012D01*
X59020Y-41967D01*
X59049Y-41938D01*
X59064Y-41900D01*
X59080Y-41938D01*
X59100Y-41957D01*
X59100Y-42012D01*
X59162Y-42075D01*
X59189Y-42075D01*
X59281Y-42036D01*
X59293Y-42025D01*
X59449Y-42025D01*
X59449Y-42024D01*
X59450Y-42025D01*
X59529Y-42025D01*
X59689Y-42025D01*
X59699Y-42020D01*
X59710Y-42025D01*
X59789Y-42025D01*
X59949Y-42025D01*
X60023Y-41994D01*
X60079Y-41938D01*
X60110Y-41864D01*
X60110Y-50977D01*
X60031Y-50977D01*
X59672Y-51125D01*
X59398Y-51399D01*
X59249Y-51757D01*
X59249Y-52145D01*
X59397Y-52504D01*
X59671Y-52778D01*
X60029Y-52927D01*
X60417Y-52927D01*
X60775Y-52779D01*
X61050Y-52505D01*
X61199Y-52147D01*
X61199Y-51759D01*
X61199Y-55850D01*
X59061Y-55850D01*
X59061Y-53268D01*
X59061Y-51268D01*
X58989Y-51093D01*
X58856Y-50959D01*
X58681Y-50887D01*
X58492Y-50887D01*
X58317Y-50959D01*
X58184Y-51092D01*
X58111Y-51267D01*
X58111Y-51456D01*
X58183Y-51630D01*
X58317Y-51764D01*
X58491Y-51837D01*
X58680Y-51837D01*
X58855Y-51765D01*
X58989Y-51631D01*
X59061Y-51457D01*
X59061Y-51268D01*
X59061Y-53268D01*
X58989Y-53093D01*
X58856Y-52959D01*
X58681Y-52887D01*
X58492Y-52887D01*
X58317Y-52959D01*
X58184Y-53092D01*
X58111Y-53267D01*
X58111Y-53456D01*
X58183Y-53630D01*
X58317Y-53764D01*
X58491Y-53837D01*
X58680Y-53837D01*
X58855Y-53765D01*
X58989Y-53631D01*
X59061Y-53457D01*
X59061Y-53268D01*
X59061Y-55850D01*
X56061Y-55850D01*
X56061Y-53268D01*
X55989Y-53093D01*
X55856Y-52959D01*
X55681Y-52887D01*
X55492Y-52887D01*
X55317Y-52959D01*
X55184Y-53092D01*
X55111Y-53267D01*
X55111Y-53456D01*
X55183Y-53630D01*
X55317Y-53764D01*
X55491Y-53837D01*
X55680Y-53837D01*
X55855Y-53765D01*
X55989Y-53631D01*
X56061Y-53457D01*
X56061Y-53268D01*
X56061Y-55850D01*
X54534Y-55850D01*
X54534Y-55039D01*
X54534Y-53039D01*
X54534Y-51496D01*
X54461Y-51321D01*
X54328Y-51188D01*
X54153Y-51115D01*
X53964Y-51115D01*
X53790Y-51187D01*
X53656Y-51321D01*
X53584Y-51495D01*
X53583Y-51684D01*
X53656Y-51859D01*
X53789Y-51993D01*
X53964Y-52065D01*
X54153Y-52065D01*
X54327Y-51993D01*
X54461Y-51859D01*
X54533Y-51685D01*
X54534Y-51496D01*
X54534Y-53039D01*
X54461Y-52865D01*
X54328Y-52731D01*
X54153Y-52658D01*
X53964Y-52658D01*
X53790Y-52730D01*
X53656Y-52864D01*
X53584Y-53038D01*
X53583Y-53227D01*
X53656Y-53402D01*
X53789Y-53536D01*
X53964Y-53608D01*
X54153Y-53608D01*
X54327Y-53536D01*
X54461Y-53403D01*
X54533Y-53228D01*
X54534Y-53039D01*
X54534Y-55039D01*
X54461Y-54865D01*
X54328Y-54731D01*
X54153Y-54658D01*
X53964Y-54658D01*
X53790Y-54730D01*
X53656Y-54864D01*
X53584Y-55038D01*
X53583Y-55227D01*
X53656Y-55402D01*
X53789Y-55536D01*
X53964Y-55608D01*
X54153Y-55608D01*
X54327Y-55536D01*
X54461Y-55403D01*
X54533Y-55228D01*
X54534Y-55039D01*
X54534Y-55850D01*
X51534Y-55850D01*
X51534Y-55039D01*
X51461Y-54865D01*
X51328Y-54731D01*
X51153Y-54658D01*
X50964Y-54658D01*
X50790Y-54730D01*
X50656Y-54864D01*
X50584Y-55038D01*
X50583Y-55227D01*
X50656Y-55402D01*
X50789Y-55536D01*
X50964Y-55608D01*
X51153Y-55608D01*
X51327Y-55536D01*
X51461Y-55403D01*
X51533Y-55228D01*
X51534Y-55039D01*
X51534Y-55850D01*
X50203Y-55850D01*
X50203Y-53268D01*
X50203Y-51268D01*
X50131Y-51093D01*
X49997Y-50959D01*
X49823Y-50887D01*
X49634Y-50887D01*
X49459Y-50959D01*
X49325Y-51092D01*
X49253Y-51267D01*
X49253Y-51456D01*
X49325Y-51630D01*
X49458Y-51764D01*
X49633Y-51837D01*
X49822Y-51837D01*
X49997Y-51765D01*
X50130Y-51631D01*
X50203Y-51457D01*
X50203Y-51268D01*
X50203Y-53268D01*
X50131Y-53093D01*
X49997Y-52959D01*
X49823Y-52887D01*
X49634Y-52887D01*
X49459Y-52959D01*
X49325Y-53092D01*
X49253Y-53267D01*
X49253Y-53456D01*
X49325Y-53630D01*
X49458Y-53764D01*
X49633Y-53837D01*
X49822Y-53837D01*
X49997Y-53765D01*
X50130Y-53631D01*
X50203Y-53457D01*
X50203Y-53268D01*
X50203Y-55850D01*
X47203Y-55850D01*
X47203Y-53268D01*
X47131Y-53093D01*
X46997Y-52959D01*
X46823Y-52887D01*
X46634Y-52887D01*
X46459Y-52959D01*
X46325Y-53092D01*
X46253Y-53267D01*
X46253Y-53456D01*
X46325Y-53630D01*
X46458Y-53764D01*
X46633Y-53837D01*
X46822Y-53837D01*
X46997Y-53765D01*
X47130Y-53631D01*
X47203Y-53457D01*
X47203Y-53268D01*
X47203Y-55850D01*
X45750Y-55850D01*
X45750Y-32350D01*
X59948Y-32350D01*
X59898Y-32399D01*
X59749Y-32757D01*
X59749Y-33145D01*
X59897Y-33504D01*
X60171Y-33778D01*
X60342Y-33850D01*
X53218Y-33850D01*
X53122Y-33869D01*
X53041Y-33923D01*
X52923Y-34041D01*
X52869Y-34122D01*
X52850Y-34218D01*
X52850Y-34341D01*
X52708Y-34436D01*
X52629Y-34553D01*
X52491Y-34379D01*
X52285Y-34265D01*
X52243Y-34255D01*
X52150Y-34303D01*
X52150Y-34950D01*
X52157Y-34950D01*
X52157Y-35050D01*
X52150Y-35050D01*
X52150Y-35696D01*
X52243Y-35744D01*
X52285Y-35734D01*
X52491Y-35620D01*
X52629Y-35446D01*
X52708Y-35563D01*
X52887Y-35683D01*
X53100Y-35725D01*
X53312Y-35683D01*
X53491Y-35563D01*
X53600Y-35401D01*
X53708Y-35563D01*
X53850Y-35658D01*
X53850Y-36750D01*
X53869Y-36845D01*
X53923Y-36926D01*
X54529Y-37533D01*
X54529Y-37539D01*
X54575Y-37649D01*
X54659Y-37734D01*
X54770Y-37779D01*
X54889Y-37780D01*
X54999Y-37734D01*
X55084Y-37650D01*
X55129Y-37539D01*
X55130Y-37420D01*
X55084Y-37310D01*
X55000Y-37225D01*
X54889Y-37180D01*
X54883Y-37180D01*
X54350Y-36646D01*
X54350Y-35658D01*
X54491Y-35563D01*
X54600Y-35401D01*
X54708Y-35563D01*
X54850Y-35658D01*
X54850Y-36940D01*
X54869Y-37035D01*
X54923Y-37116D01*
X55789Y-37983D01*
X55789Y-37989D01*
X55835Y-38099D01*
X55919Y-38184D01*
X56030Y-38229D01*
X56149Y-38230D01*
X56259Y-38184D01*
X56344Y-38100D01*
X56389Y-37989D01*
X56390Y-37870D01*
X56344Y-37760D01*
X56260Y-37675D01*
X56149Y-37630D01*
X56143Y-37630D01*
X55350Y-36836D01*
X55350Y-35658D01*
X55491Y-35563D01*
X55600Y-35401D01*
X55708Y-35563D01*
X55850Y-35658D01*
X55850Y-37090D01*
X55869Y-37185D01*
X55923Y-37266D01*
X56981Y-38325D01*
X56890Y-38325D01*
X56880Y-38329D01*
X56869Y-38325D01*
X56790Y-38325D01*
X56630Y-38325D01*
X56625Y-38327D01*
X56619Y-38325D01*
X56540Y-38325D01*
X56380Y-38325D01*
X56306Y-38355D01*
X56250Y-38411D01*
X56220Y-38485D01*
X56220Y-38564D01*
X56220Y-39064D01*
X56250Y-39137D01*
X56250Y-39306D01*
X56269Y-39401D01*
X56323Y-39483D01*
X57076Y-40236D01*
X57158Y-40290D01*
X57253Y-40310D01*
X60414Y-40310D01*
X60510Y-40290D01*
X60591Y-40236D01*
X62350Y-38478D01*
X62375Y-38539D01*
X62378Y-38542D01*
X62378Y-38806D01*
X62292Y-38806D01*
X62219Y-38836D01*
X62162Y-38892D01*
X62132Y-38966D01*
X62132Y-39045D01*
X62132Y-39517D01*
X62162Y-39591D01*
X62219Y-39647D01*
X62292Y-39678D01*
X62372Y-39678D01*
X62963Y-39678D01*
X63036Y-39647D01*
X63093Y-39591D01*
X63112Y-39543D01*
X63144Y-39619D01*
X63214Y-39689D01*
X63306Y-39728D01*
X63539Y-39728D01*
X63602Y-39665D01*
X63602Y-39292D01*
X63594Y-39292D01*
X63594Y-39192D01*
X63602Y-39192D01*
X63602Y-38818D01*
X63539Y-38756D01*
X63306Y-38756D01*
X63214Y-38794D01*
X63144Y-38864D01*
X63112Y-38940D01*
X63093Y-38892D01*
X63036Y-38836D01*
X62963Y-38806D01*
X62883Y-38806D01*
X62878Y-38806D01*
X62878Y-38620D01*
X66448Y-38620D01*
X74147Y-46319D01*
X74147Y-46325D01*
X74193Y-46435D01*
X74229Y-46471D01*
X74177Y-46450D01*
X74058Y-46449D01*
X73948Y-46495D01*
X73943Y-46500D01*
X68809Y-46500D01*
X64197Y-41887D01*
X64197Y-39527D01*
X64197Y-39428D01*
X64197Y-39354D01*
X64197Y-39129D01*
X64197Y-39055D01*
X64197Y-38956D01*
X64159Y-38864D01*
X64089Y-38794D01*
X63997Y-38756D01*
X63764Y-38756D01*
X63702Y-38818D01*
X63702Y-39192D01*
X64135Y-39192D01*
X64197Y-39129D01*
X64197Y-39354D01*
X64135Y-39292D01*
X63702Y-39292D01*
X63702Y-39665D01*
X63764Y-39728D01*
X63997Y-39728D01*
X64089Y-39689D01*
X64159Y-39619D01*
X64197Y-39527D01*
X64197Y-41887D01*
X64177Y-41867D01*
X64177Y-40781D01*
X64177Y-40682D01*
X64177Y-40608D01*
X64177Y-40383D01*
X64177Y-40309D01*
X64177Y-40210D01*
X64139Y-40118D01*
X64069Y-40048D01*
X63977Y-40010D01*
X63744Y-40010D01*
X63682Y-40072D01*
X63682Y-40446D01*
X64115Y-40446D01*
X64177Y-40383D01*
X64177Y-40608D01*
X64115Y-40546D01*
X63682Y-40546D01*
X63682Y-40919D01*
X63744Y-40982D01*
X63977Y-40982D01*
X64069Y-40943D01*
X64139Y-40873D01*
X64177Y-40781D01*
X64177Y-41867D01*
X63291Y-40982D01*
X63519Y-40982D01*
X63582Y-40919D01*
X63582Y-40546D01*
X63574Y-40546D01*
X63574Y-40446D01*
X63582Y-40446D01*
X63582Y-40072D01*
X63519Y-40010D01*
X63286Y-40010D01*
X63194Y-40048D01*
X63124Y-40118D01*
X63092Y-40194D01*
X63073Y-40146D01*
X63016Y-40090D01*
X62943Y-40060D01*
X62863Y-40060D01*
X62393Y-40060D01*
X62190Y-39856D01*
X62190Y-39850D01*
X62144Y-39740D01*
X62060Y-39655D01*
X61949Y-39610D01*
X61830Y-39609D01*
X61720Y-39655D01*
X61635Y-39739D01*
X61590Y-39850D01*
X61589Y-39969D01*
X61635Y-40079D01*
X61719Y-40164D01*
X61830Y-40209D01*
X61836Y-40209D01*
X62112Y-40486D01*
X62112Y-40771D01*
X62142Y-40845D01*
X62199Y-40901D01*
X62272Y-40932D01*
X62352Y-40932D01*
X62534Y-40932D01*
X68529Y-46926D01*
X68610Y-46980D01*
X68706Y-47000D01*
X73943Y-47000D01*
X73947Y-47004D01*
X74058Y-47049D01*
X74177Y-47050D01*
X74287Y-47004D01*
X74372Y-46920D01*
X74417Y-46809D01*
X74418Y-46690D01*
X74372Y-46580D01*
X74336Y-46544D01*
X74388Y-46565D01*
X74507Y-46566D01*
X74617Y-46520D01*
X74702Y-46436D01*
X74747Y-46325D01*
X74748Y-46206D01*
X74702Y-46096D01*
X74618Y-46011D01*
X74507Y-45966D01*
X74501Y-45966D01*
X66728Y-38193D01*
X66647Y-38139D01*
X66552Y-38120D01*
X62804Y-38120D01*
X62800Y-38115D01*
X62738Y-38090D01*
X63216Y-37612D01*
X64541Y-37612D01*
X64602Y-37624D01*
X65680Y-37624D01*
X65680Y-37709D01*
X65710Y-37782D01*
X65766Y-37839D01*
X65840Y-37869D01*
X65919Y-37869D01*
X66391Y-37869D01*
X66465Y-37839D01*
X66521Y-37782D01*
X66552Y-37709D01*
X66552Y-37629D01*
X66552Y-37038D01*
X66521Y-36965D01*
X66465Y-36908D01*
X66391Y-36878D01*
X66312Y-36878D01*
X65840Y-36878D01*
X65766Y-36908D01*
X65710Y-36965D01*
X65680Y-37038D01*
X65680Y-37118D01*
X65680Y-37124D01*
X64650Y-37124D01*
X64590Y-37112D01*
X63490Y-37112D01*
X64276Y-36325D01*
X64330Y-36244D01*
X64350Y-36148D01*
X64350Y-35658D01*
X64491Y-35563D01*
X64570Y-35446D01*
X64708Y-35620D01*
X64914Y-35734D01*
X64956Y-35744D01*
X65050Y-35696D01*
X65050Y-35050D01*
X65042Y-35050D01*
X65042Y-34950D01*
X65050Y-34950D01*
X65050Y-34942D01*
X65150Y-34942D01*
X65150Y-34950D01*
X65157Y-34950D01*
X65157Y-35050D01*
X65150Y-35050D01*
X65150Y-35696D01*
X65243Y-35744D01*
X65285Y-35734D01*
X65491Y-35620D01*
X65629Y-35446D01*
X65708Y-35563D01*
X65866Y-35668D01*
X65866Y-35854D01*
X65840Y-35854D01*
X65766Y-35884D01*
X65710Y-35941D01*
X65680Y-36014D01*
X65680Y-36094D01*
X65680Y-36685D01*
X65710Y-36758D01*
X65766Y-36815D01*
X65840Y-36845D01*
X65919Y-36845D01*
X66391Y-36845D01*
X66465Y-36815D01*
X66521Y-36758D01*
X66552Y-36685D01*
X66552Y-36605D01*
X66552Y-36014D01*
X66521Y-35941D01*
X66465Y-35884D01*
X66391Y-35854D01*
X66366Y-35854D01*
X66366Y-35647D01*
X66491Y-35563D01*
X66612Y-35383D01*
X66654Y-35171D01*
X66654Y-34828D01*
X66612Y-34616D01*
X66491Y-34436D01*
X66362Y-34350D01*
X67000Y-34350D01*
X74860Y-42209D01*
X74860Y-47252D01*
X73673Y-48439D01*
X73619Y-48520D01*
X73600Y-48616D01*
X73600Y-53200D01*
X73619Y-53295D01*
X73673Y-53376D01*
X74723Y-54426D01*
X74804Y-54480D01*
X74900Y-54500D01*
X74900Y-54500D01*
X74900Y-54500D01*
X75656Y-54500D01*
X75692Y-54585D01*
X75859Y-54753D01*
X76077Y-54843D01*
X76313Y-54843D01*
X76531Y-54753D01*
X76699Y-54586D01*
X76789Y-54368D01*
X76789Y-54132D01*
X76699Y-53914D01*
X76532Y-53746D01*
X76314Y-53656D01*
X76078Y-53656D01*
X75860Y-53746D01*
X75692Y-53913D01*
X75656Y-54000D01*
X75003Y-54000D01*
X74100Y-53096D01*
X74100Y-48719D01*
X75286Y-47532D01*
X75340Y-47451D01*
X75360Y-47356D01*
X75360Y-42106D01*
X75340Y-42010D01*
X75286Y-41929D01*
X67280Y-33923D01*
X67199Y-33869D01*
X67104Y-33850D01*
X61106Y-33850D01*
X61275Y-33779D01*
X61550Y-33505D01*
X61646Y-33275D01*
X61662Y-33357D01*
X61770Y-33520D01*
X61933Y-33628D01*
X62124Y-33666D01*
X62315Y-33628D01*
X62477Y-33520D01*
X62586Y-33357D01*
X62624Y-33166D01*
X62662Y-33357D01*
X62770Y-33520D01*
X62933Y-33628D01*
X63124Y-33666D01*
X63315Y-33628D01*
X63477Y-33520D01*
X63586Y-33357D01*
X63624Y-33166D01*
X63662Y-33357D01*
X63770Y-33520D01*
X63933Y-33628D01*
X64124Y-33666D01*
X64315Y-33628D01*
X64477Y-33520D01*
X64586Y-33357D01*
X64624Y-33166D01*
X64662Y-33357D01*
X64770Y-33520D01*
X64933Y-33628D01*
X65124Y-33666D01*
X65315Y-33628D01*
X65477Y-33520D01*
X65586Y-33357D01*
X65624Y-33166D01*
X65662Y-33357D01*
X65770Y-33520D01*
X65933Y-33628D01*
X66124Y-33666D01*
X66315Y-33628D01*
X66477Y-33520D01*
X66586Y-33357D01*
X66624Y-33166D01*
X66662Y-33357D01*
X66770Y-33520D01*
X66933Y-33628D01*
X67124Y-33666D01*
X67315Y-33628D01*
X67477Y-33520D01*
X67586Y-33357D01*
X67624Y-33166D01*
X67662Y-33357D01*
X67770Y-33520D01*
X67933Y-33628D01*
X68124Y-33666D01*
X68315Y-33628D01*
X68477Y-33520D01*
X68586Y-33357D01*
X68624Y-33166D01*
X68662Y-33357D01*
X68770Y-33520D01*
X68933Y-33628D01*
X69124Y-33666D01*
X69315Y-33628D01*
X69477Y-33520D01*
X69586Y-33357D01*
X69624Y-33166D01*
X69662Y-33357D01*
X69770Y-33520D01*
X69933Y-33628D01*
X70124Y-33666D01*
X70315Y-33628D01*
X70477Y-33520D01*
X70586Y-33357D01*
X70624Y-33166D01*
X70662Y-33357D01*
X70770Y-33520D01*
X70933Y-33628D01*
X71124Y-33666D01*
X71315Y-33628D01*
X71477Y-33520D01*
X71586Y-33357D01*
X71624Y-33166D01*
X71624Y-32739D01*
X71586Y-32547D01*
X71477Y-32385D01*
X71424Y-32350D01*
X72423Y-32350D01*
X72370Y-32385D01*
X72262Y-32547D01*
X72224Y-32739D01*
X72224Y-33166D01*
X72262Y-33357D01*
X72370Y-33520D01*
X72533Y-33628D01*
X72724Y-33666D01*
X72915Y-33628D01*
X73077Y-33520D01*
X73186Y-33357D01*
X73224Y-33166D01*
X73262Y-33357D01*
X73370Y-33520D01*
X73533Y-33628D01*
X73724Y-33666D01*
X73915Y-33628D01*
X74077Y-33520D01*
X74186Y-33357D01*
X74224Y-33166D01*
X74262Y-33357D01*
X74370Y-33520D01*
X74533Y-33628D01*
X74724Y-33666D01*
X74915Y-33628D01*
X75077Y-33520D01*
X75186Y-33357D01*
X75224Y-33166D01*
X75262Y-33357D01*
X75370Y-33520D01*
X75533Y-33628D01*
X75724Y-33666D01*
X75915Y-33628D01*
X76077Y-33520D01*
X76186Y-33357D01*
X76224Y-33166D01*
X76262Y-33357D01*
X76370Y-33520D01*
X76533Y-33628D01*
X76724Y-33666D01*
X76915Y-33628D01*
X77077Y-33520D01*
X77186Y-33357D01*
X77224Y-33166D01*
X77262Y-33357D01*
X77370Y-33520D01*
X77533Y-33628D01*
X77724Y-33666D01*
X77915Y-33628D01*
X78077Y-33520D01*
X78186Y-33357D01*
X78224Y-33166D01*
X78262Y-33357D01*
X78370Y-33520D01*
X78533Y-33628D01*
X78724Y-33666D01*
X78915Y-33628D01*
X79077Y-33520D01*
X79186Y-33357D01*
X79224Y-33166D01*
X79262Y-33357D01*
X79370Y-33520D01*
X79533Y-33628D01*
X79724Y-33666D01*
X79750Y-33661D01*
X79750Y-38756D01*
X79749Y-38757D01*
X79749Y-39145D01*
X79750Y-39147D01*
X79750Y-49756D01*
X79749Y-49757D01*
X79749Y-50145D01*
X79750Y-50147D01*
X79750Y-51244D01*
X79724Y-51239D01*
X79533Y-51277D01*
X79370Y-51385D01*
X79262Y-51547D01*
X79252Y-51596D01*
X79252Y-47048D01*
X79252Y-34843D01*
X79132Y-34552D01*
X78910Y-34330D01*
X78619Y-34209D01*
X78305Y-34209D01*
X78014Y-34329D01*
X77792Y-34551D01*
X77671Y-34842D01*
X77671Y-35156D01*
X77791Y-35447D01*
X78013Y-35669D01*
X78304Y-35790D01*
X78618Y-35790D01*
X78909Y-35670D01*
X79131Y-35448D01*
X79252Y-35157D01*
X79252Y-34843D01*
X79252Y-47048D01*
X79132Y-46757D01*
X78910Y-46535D01*
X78619Y-46414D01*
X78305Y-46414D01*
X78014Y-46534D01*
X77792Y-46756D01*
X77671Y-47047D01*
X77671Y-47361D01*
X77791Y-47652D01*
X78013Y-47874D01*
X78304Y-47995D01*
X78618Y-47995D01*
X78909Y-47875D01*
X79131Y-47653D01*
X79252Y-47362D01*
X79252Y-47048D01*
X79252Y-51596D01*
X79224Y-51739D01*
X79186Y-51547D01*
X79077Y-51385D01*
X78915Y-51277D01*
X78724Y-51239D01*
X78533Y-51277D01*
X78370Y-51385D01*
X78262Y-51547D01*
X78224Y-51739D01*
X78186Y-51547D01*
X78077Y-51385D01*
X77915Y-51277D01*
X77724Y-51239D01*
X77533Y-51277D01*
X77370Y-51385D01*
X77262Y-51547D01*
X77224Y-51739D01*
X77186Y-51547D01*
X77077Y-51385D01*
X76915Y-51277D01*
X76724Y-51239D01*
X76533Y-51277D01*
X76370Y-51385D01*
X76262Y-51547D01*
X76224Y-51739D01*
X76186Y-51547D01*
X76077Y-51385D01*
X75915Y-51277D01*
X75724Y-51239D01*
X75533Y-51277D01*
X75370Y-51385D01*
X75262Y-51547D01*
X75224Y-51739D01*
X75186Y-51547D01*
X75077Y-51385D01*
X74915Y-51277D01*
X74724Y-51239D01*
X74533Y-51277D01*
X74370Y-51385D01*
X74262Y-51547D01*
X74224Y-51739D01*
X74224Y-52166D01*
X74262Y-52357D01*
X74370Y-52520D01*
X74533Y-52628D01*
X74724Y-52666D01*
X74915Y-52628D01*
X75077Y-52520D01*
X75186Y-52357D01*
X75224Y-52166D01*
X75262Y-52357D01*
X75370Y-52520D01*
X75533Y-52628D01*
X75724Y-52666D01*
X75915Y-52628D01*
X76077Y-52520D01*
X76186Y-52357D01*
X76224Y-52166D01*
X76262Y-52357D01*
X76370Y-52520D01*
X76533Y-52628D01*
X76724Y-52666D01*
X76915Y-52628D01*
X77077Y-52520D01*
X77186Y-52357D01*
X77224Y-52166D01*
X77262Y-52357D01*
X77370Y-52520D01*
X77533Y-52628D01*
X77724Y-52666D01*
X77915Y-52628D01*
X78077Y-52520D01*
X78186Y-52357D01*
X78224Y-52166D01*
X78262Y-52357D01*
X78370Y-52520D01*
X78533Y-52628D01*
X78724Y-52666D01*
X78915Y-52628D01*
X79077Y-52520D01*
X79186Y-52357D01*
X79224Y-52166D01*
X79262Y-52357D01*
X79370Y-52520D01*
X79533Y-52628D01*
X79724Y-52666D01*
X79750Y-52661D01*
X79750Y-55850D01*
X79750Y-55850D01*
G37*
X79750Y-55850D02*
X77828Y-55850D01*
X77828Y-55338D01*
X77818Y-55082D01*
X77774Y-54974D01*
X77774Y-53148D01*
X77683Y-52929D01*
X77516Y-52762D01*
X77298Y-52672D01*
X77062Y-52671D01*
X76844Y-52762D01*
X76677Y-52929D01*
X76586Y-53147D01*
X76586Y-53383D01*
X76676Y-53601D01*
X76843Y-53768D01*
X77061Y-53859D01*
X77297Y-53859D01*
X77516Y-53769D01*
X77683Y-53602D01*
X77773Y-53384D01*
X77774Y-53148D01*
X77774Y-54974D01*
X77739Y-54890D01*
X77634Y-54851D01*
X77563Y-54921D01*
X77563Y-54780D01*
X77524Y-54675D01*
X77284Y-54586D01*
X77028Y-54595D01*
X76836Y-54675D01*
X76797Y-54780D01*
X77180Y-55163D01*
X77563Y-54780D01*
X77563Y-54921D01*
X77250Y-55234D01*
X77634Y-55617D01*
X77739Y-55578D01*
X77828Y-55338D01*
X77828Y-55850D01*
X77386Y-55850D01*
X77524Y-55793D01*
X77563Y-55688D01*
X77180Y-55304D01*
X77109Y-55375D01*
X77109Y-55234D01*
X76726Y-54851D01*
X76621Y-54890D01*
X76532Y-55130D01*
X76541Y-55386D01*
X76621Y-55578D01*
X76726Y-55617D01*
X77109Y-55234D01*
X77109Y-55375D01*
X76797Y-55688D01*
X76836Y-55793D01*
X76989Y-55850D01*
X73224Y-55850D01*
X73224Y-52166D01*
X73224Y-51739D01*
X73186Y-51547D01*
X73077Y-51385D01*
X72915Y-51277D01*
X72724Y-51239D01*
X72533Y-51277D01*
X72370Y-51385D01*
X72262Y-51547D01*
X72224Y-51739D01*
X72186Y-51547D01*
X72077Y-51385D01*
X71915Y-51277D01*
X71780Y-51250D01*
X71780Y-49260D01*
X71780Y-47880D01*
X71734Y-47770D01*
X71650Y-47685D01*
X71539Y-47640D01*
X71420Y-47639D01*
X71310Y-47685D01*
X71225Y-47769D01*
X71180Y-47880D01*
X71179Y-47999D01*
X71225Y-48109D01*
X71309Y-48194D01*
X71420Y-48239D01*
X71539Y-48240D01*
X71649Y-48194D01*
X71734Y-48110D01*
X71779Y-47999D01*
X71780Y-47880D01*
X71780Y-49260D01*
X71734Y-49150D01*
X71650Y-49065D01*
X71539Y-49020D01*
X71420Y-49019D01*
X71310Y-49065D01*
X71225Y-49149D01*
X71180Y-49260D01*
X71179Y-49379D01*
X71225Y-49489D01*
X71309Y-49574D01*
X71420Y-49619D01*
X71539Y-49620D01*
X71649Y-49574D01*
X71734Y-49490D01*
X71779Y-49379D01*
X71780Y-49260D01*
X71780Y-51250D01*
X71724Y-51239D01*
X71533Y-51277D01*
X71370Y-51385D01*
X71262Y-51547D01*
X71224Y-51739D01*
X71186Y-51547D01*
X71077Y-51385D01*
X70915Y-51277D01*
X70724Y-51239D01*
X70533Y-51277D01*
X70370Y-51385D01*
X70262Y-51547D01*
X70248Y-51616D01*
X70213Y-51496D01*
X70077Y-51328D01*
X69888Y-51225D01*
X69859Y-51219D01*
X69774Y-51267D01*
X69774Y-51902D01*
X69782Y-51902D01*
X69782Y-52002D01*
X69774Y-52002D01*
X69774Y-52637D01*
X69859Y-52685D01*
X69888Y-52680D01*
X70077Y-52577D01*
X70213Y-52409D01*
X70248Y-52289D01*
X70262Y-52357D01*
X70370Y-52520D01*
X70533Y-52628D01*
X70724Y-52666D01*
X70915Y-52628D01*
X71077Y-52520D01*
X71186Y-52357D01*
X71224Y-52166D01*
X71262Y-52357D01*
X71370Y-52520D01*
X71533Y-52628D01*
X71724Y-52666D01*
X71915Y-52628D01*
X72077Y-52520D01*
X72186Y-52357D01*
X72224Y-52166D01*
X72262Y-52357D01*
X72370Y-52520D01*
X72533Y-52628D01*
X72724Y-52666D01*
X72915Y-52628D01*
X73077Y-52520D01*
X73186Y-52357D01*
X73224Y-52166D01*
X73224Y-55850D01*
X70804Y-55850D01*
X70918Y-55802D01*
X71052Y-55669D01*
X71124Y-55494D01*
X71125Y-55305D01*
X71125Y-53305D01*
X71052Y-53131D01*
X70919Y-52997D01*
X70744Y-52925D01*
X70555Y-52924D01*
X70381Y-52997D01*
X70247Y-53130D01*
X70239Y-53150D01*
X69275Y-53150D01*
X68780Y-52655D01*
X68915Y-52628D01*
X69077Y-52520D01*
X69186Y-52357D01*
X69199Y-52289D01*
X69235Y-52409D01*
X69370Y-52577D01*
X69560Y-52680D01*
X69589Y-52685D01*
X69674Y-52637D01*
X69674Y-52002D01*
X69666Y-52002D01*
X69666Y-51902D01*
X69674Y-51902D01*
X69674Y-51267D01*
X69589Y-51219D01*
X69560Y-51225D01*
X69370Y-51328D01*
X69235Y-51496D01*
X69220Y-51548D01*
X69220Y-49210D01*
X69220Y-47880D01*
X69174Y-47770D01*
X69090Y-47685D01*
X68979Y-47640D01*
X68860Y-47639D01*
X68750Y-47685D01*
X68665Y-47769D01*
X68620Y-47880D01*
X68619Y-47999D01*
X68665Y-48109D01*
X68749Y-48194D01*
X68860Y-48239D01*
X68979Y-48240D01*
X69089Y-48194D01*
X69174Y-48110D01*
X69219Y-47999D01*
X69220Y-47880D01*
X69220Y-49210D01*
X69174Y-49100D01*
X69090Y-49015D01*
X68979Y-48970D01*
X68860Y-48969D01*
X68750Y-49015D01*
X68665Y-49099D01*
X68620Y-49210D01*
X68619Y-49329D01*
X68665Y-49439D01*
X68749Y-49524D01*
X68860Y-49569D01*
X68979Y-49570D01*
X69089Y-49524D01*
X69174Y-49440D01*
X69219Y-49329D01*
X69220Y-49210D01*
X69220Y-51548D01*
X69199Y-51616D01*
X69186Y-51547D01*
X69077Y-51385D01*
X68915Y-51277D01*
X68724Y-51239D01*
X68533Y-51277D01*
X68370Y-51385D01*
X68262Y-51547D01*
X68224Y-51739D01*
X68186Y-51547D01*
X68077Y-51385D01*
X67915Y-51277D01*
X67724Y-51239D01*
X67533Y-51277D01*
X67370Y-51385D01*
X67262Y-51547D01*
X67224Y-51739D01*
X67224Y-52166D01*
X67262Y-52357D01*
X67370Y-52520D01*
X67533Y-52628D01*
X67724Y-52666D01*
X67915Y-52628D01*
X67994Y-52576D01*
X68994Y-53576D01*
X69075Y-53630D01*
X69171Y-53650D01*
X70239Y-53650D01*
X70247Y-53668D01*
X70380Y-53802D01*
X70555Y-53874D01*
X70744Y-53875D01*
X70918Y-53802D01*
X71052Y-53669D01*
X71124Y-53494D01*
X71125Y-53305D01*
X71125Y-55305D01*
X71052Y-55131D01*
X70919Y-54997D01*
X70744Y-54925D01*
X70555Y-54924D01*
X70381Y-54997D01*
X70247Y-55130D01*
X70175Y-55305D01*
X70174Y-55494D01*
X70247Y-55668D01*
X70380Y-55802D01*
X70495Y-55850D01*
X67804Y-55850D01*
X67918Y-55802D01*
X68052Y-55669D01*
X68124Y-55494D01*
X68125Y-55305D01*
X68125Y-53305D01*
X68052Y-53131D01*
X67919Y-52997D01*
X67744Y-52925D01*
X67555Y-52924D01*
X67381Y-52997D01*
X67247Y-53130D01*
X67175Y-53305D01*
X67174Y-53494D01*
X67247Y-53668D01*
X67380Y-53802D01*
X67555Y-53874D01*
X67744Y-53875D01*
X67918Y-53802D01*
X68052Y-53669D01*
X68124Y-53494D01*
X68125Y-53305D01*
X68125Y-55305D01*
X68052Y-55131D01*
X67919Y-54997D01*
X67744Y-54925D01*
X67555Y-54924D01*
X67381Y-54997D01*
X67247Y-55130D01*
X67175Y-55305D01*
X67174Y-55494D01*
X67247Y-55668D01*
X67380Y-55802D01*
X67495Y-55850D01*
X66345Y-55850D01*
X66345Y-53268D01*
X66345Y-51268D01*
X66272Y-51093D01*
X66139Y-50959D01*
X65964Y-50887D01*
X65776Y-50887D01*
X65601Y-50959D01*
X65467Y-51092D01*
X65395Y-51267D01*
X65394Y-51456D01*
X65467Y-51630D01*
X65600Y-51764D01*
X65775Y-51837D01*
X65964Y-51837D01*
X66138Y-51765D01*
X66272Y-51631D01*
X66344Y-51457D01*
X66345Y-51268D01*
X66345Y-53268D01*
X66272Y-53093D01*
X66139Y-52959D01*
X65964Y-52887D01*
X65776Y-52887D01*
X65601Y-52959D01*
X65467Y-53092D01*
X65395Y-53267D01*
X65394Y-53456D01*
X65467Y-53630D01*
X65600Y-53764D01*
X65775Y-53837D01*
X65964Y-53837D01*
X66138Y-53765D01*
X66272Y-53631D01*
X66344Y-53457D01*
X66345Y-53268D01*
X66345Y-55850D01*
X63345Y-55850D01*
X63345Y-53268D01*
X63345Y-51268D01*
X63272Y-51093D01*
X63139Y-50959D01*
X62964Y-50887D01*
X62776Y-50887D01*
X62601Y-50959D01*
X62467Y-51092D01*
X62395Y-51267D01*
X62394Y-51456D01*
X62467Y-51630D01*
X62600Y-51764D01*
X62775Y-51837D01*
X62964Y-51837D01*
X63138Y-51765D01*
X63272Y-51631D01*
X63344Y-51457D01*
X63345Y-51268D01*
X63345Y-53268D01*
X63272Y-53093D01*
X63139Y-52959D01*
X62964Y-52887D01*
X62776Y-52887D01*
X62601Y-52959D01*
X62467Y-53092D01*
X62395Y-53267D01*
X62394Y-53456D01*
X62467Y-53630D01*
X62600Y-53764D01*
X62775Y-53837D01*
X62964Y-53837D01*
X63138Y-53765D01*
X63272Y-53631D01*
X63344Y-53457D01*
X63345Y-53268D01*
X63345Y-55850D01*
X61199Y-55850D01*
X61199Y-51759D01*
X61051Y-51401D01*
X60777Y-51126D01*
X60419Y-50977D01*
X60110Y-50977D01*
X60110Y-41864D01*
X60110Y-41785D01*
X60110Y-41285D01*
X60080Y-41212D01*
X60080Y-41000D01*
X60080Y-41000D01*
X60080Y-41000D01*
X60060Y-40904D01*
X60006Y-40823D01*
X59870Y-40686D01*
X59870Y-40680D01*
X59824Y-40570D01*
X59740Y-40485D01*
X59629Y-40440D01*
X59510Y-40439D01*
X59400Y-40485D01*
X59315Y-40569D01*
X59270Y-40680D01*
X59270Y-40686D01*
X59153Y-40803D01*
X59099Y-40884D01*
X59080Y-40980D01*
X59080Y-41212D01*
X59065Y-41249D01*
X59049Y-41211D01*
X59020Y-41182D01*
X59020Y-41137D01*
X58957Y-41075D01*
X58930Y-41075D01*
X58838Y-41113D01*
X58826Y-41125D01*
X58680Y-41125D01*
X58675Y-41127D01*
X58669Y-41125D01*
X58590Y-41125D01*
X58430Y-41125D01*
X58420Y-41129D01*
X58409Y-41125D01*
X58330Y-41125D01*
X58170Y-41125D01*
X58165Y-41127D01*
X58159Y-41125D01*
X58080Y-41125D01*
X57920Y-41125D01*
X57910Y-41129D01*
X57899Y-41125D01*
X57820Y-41125D01*
X57660Y-41125D01*
X57650Y-41129D01*
X57639Y-41125D01*
X57560Y-41125D01*
X57400Y-41125D01*
X57395Y-41127D01*
X57389Y-41125D01*
X57310Y-41125D01*
X57150Y-41125D01*
X57140Y-41129D01*
X57129Y-41125D01*
X57050Y-41125D01*
X56890Y-41125D01*
X56880Y-41129D01*
X56869Y-41125D01*
X56790Y-41125D01*
X56630Y-41125D01*
X56625Y-41127D01*
X56619Y-41125D01*
X56540Y-41125D01*
X56380Y-41125D01*
X56306Y-41155D01*
X56250Y-41211D01*
X56220Y-41285D01*
X56220Y-41364D01*
X56220Y-41864D01*
X56250Y-41938D01*
X56306Y-41994D01*
X56380Y-42025D01*
X56459Y-42025D01*
X56619Y-42025D01*
X56624Y-42022D01*
X56630Y-42025D01*
X56709Y-42025D01*
X56869Y-42025D01*
X56879Y-42020D01*
X56890Y-42025D01*
X56921Y-42025D01*
X56630Y-42316D01*
X52795Y-42316D01*
X52699Y-42335D01*
X52618Y-42389D01*
X52050Y-42957D01*
X52050Y-35696D01*
X52050Y-35050D01*
X52042Y-35050D01*
X52042Y-34950D01*
X52050Y-34950D01*
X52050Y-34303D01*
X51956Y-34255D01*
X51914Y-34265D01*
X51708Y-34379D01*
X51570Y-34553D01*
X51491Y-34436D01*
X51312Y-34316D01*
X51100Y-34274D01*
X50887Y-34316D01*
X50708Y-34436D01*
X50587Y-34616D01*
X50571Y-34697D01*
X50510Y-34709D01*
X50429Y-34764D01*
X50291Y-34902D01*
X50236Y-34983D01*
X50217Y-35079D01*
X50236Y-35174D01*
X50291Y-35256D01*
X50372Y-35310D01*
X50467Y-35329D01*
X50563Y-35310D01*
X50572Y-35304D01*
X50587Y-35383D01*
X50708Y-35563D01*
X50887Y-35683D01*
X51100Y-35725D01*
X51312Y-35683D01*
X51491Y-35563D01*
X51570Y-35446D01*
X51708Y-35620D01*
X51914Y-35734D01*
X51956Y-35744D01*
X52050Y-35696D01*
X52050Y-42957D01*
X49725Y-45282D01*
X49725Y-34843D01*
X49605Y-34552D01*
X49383Y-34330D01*
X49092Y-34209D01*
X48778Y-34209D01*
X48487Y-34329D01*
X48265Y-34551D01*
X48144Y-34842D01*
X48144Y-35156D01*
X48264Y-35447D01*
X48486Y-35669D01*
X48777Y-35790D01*
X49091Y-35790D01*
X49382Y-35670D01*
X49604Y-35448D01*
X49725Y-35157D01*
X49725Y-34843D01*
X49725Y-45282D01*
X48173Y-46834D01*
X48119Y-46915D01*
X48099Y-47011D01*
X48099Y-48262D01*
X46551Y-49810D01*
X46497Y-49891D01*
X46478Y-49987D01*
X46478Y-50951D01*
X46459Y-50959D01*
X46325Y-51092D01*
X46253Y-51267D01*
X46253Y-51456D01*
X46325Y-51630D01*
X46458Y-51764D01*
X46633Y-51837D01*
X46822Y-51837D01*
X46997Y-51765D01*
X47130Y-51631D01*
X47203Y-51457D01*
X47203Y-51268D01*
X47131Y-51093D01*
X46997Y-50959D01*
X46978Y-50951D01*
X46978Y-50090D01*
X48449Y-48619D01*
X49247Y-49416D01*
X49328Y-49470D01*
X49424Y-49490D01*
X50586Y-49490D01*
X50584Y-49495D01*
X50583Y-49684D01*
X50656Y-49859D01*
X50789Y-49993D01*
X50964Y-50065D01*
X51153Y-50065D01*
X51327Y-49993D01*
X51340Y-49981D01*
X51340Y-51199D01*
X51328Y-51188D01*
X51153Y-51115D01*
X50964Y-51115D01*
X50790Y-51187D01*
X50656Y-51321D01*
X50584Y-51495D01*
X50583Y-51684D01*
X50656Y-51859D01*
X50789Y-51993D01*
X50964Y-52065D01*
X51153Y-52065D01*
X51327Y-51993D01*
X51340Y-51981D01*
X51340Y-52496D01*
X51170Y-52665D01*
X51153Y-52658D01*
X50964Y-52658D01*
X50790Y-52730D01*
X50656Y-52864D01*
X50584Y-53038D01*
X50583Y-53227D01*
X50656Y-53402D01*
X50789Y-53536D01*
X50964Y-53608D01*
X51153Y-53608D01*
X51327Y-53536D01*
X51461Y-53403D01*
X51533Y-53228D01*
X51534Y-53039D01*
X51525Y-53018D01*
X51766Y-52776D01*
X51820Y-52695D01*
X51820Y-52695D01*
X51840Y-52600D01*
X51840Y-49280D01*
X51840Y-49280D01*
X51840Y-49280D01*
X51820Y-49184D01*
X51766Y-49103D01*
X51713Y-49050D01*
X51956Y-49050D01*
X53773Y-50866D01*
X53854Y-50920D01*
X53950Y-50940D01*
X53950Y-50940D01*
X53950Y-50940D01*
X54810Y-50940D01*
X55119Y-51248D01*
X55111Y-51267D01*
X55111Y-51456D01*
X55183Y-51630D01*
X55317Y-51764D01*
X55491Y-51837D01*
X55680Y-51837D01*
X55855Y-51765D01*
X55989Y-51631D01*
X56061Y-51457D01*
X56061Y-51268D01*
X55989Y-51093D01*
X55856Y-50959D01*
X55681Y-50887D01*
X55492Y-50887D01*
X55473Y-50895D01*
X55091Y-50513D01*
X55010Y-50459D01*
X54914Y-50440D01*
X54534Y-50440D01*
X54534Y-49496D01*
X54461Y-49321D01*
X54328Y-49188D01*
X54153Y-49115D01*
X53964Y-49115D01*
X53790Y-49187D01*
X53656Y-49321D01*
X53584Y-49495D01*
X53583Y-49684D01*
X53656Y-49859D01*
X53789Y-49993D01*
X53964Y-50065D01*
X54153Y-50065D01*
X54327Y-49993D01*
X54461Y-49859D01*
X54533Y-49685D01*
X54534Y-49496D01*
X54534Y-50440D01*
X54053Y-50440D01*
X52236Y-48623D01*
X52155Y-48569D01*
X52060Y-48550D01*
X50290Y-48550D01*
X49653Y-48550D01*
X49200Y-48096D01*
X49200Y-47950D01*
X49382Y-47875D01*
X49604Y-47653D01*
X49725Y-47362D01*
X49725Y-47048D01*
X49664Y-46899D01*
X53133Y-43430D01*
X56972Y-43430D01*
X57068Y-43410D01*
X57149Y-43356D01*
X57349Y-43156D01*
X57438Y-43068D01*
X58040Y-42466D01*
X58040Y-43015D01*
X58025Y-43029D01*
X57980Y-43140D01*
X57979Y-43259D01*
X58025Y-43369D01*
X58109Y-43454D01*
X58220Y-43499D01*
X58339Y-43500D01*
X58449Y-43454D01*
X58534Y-43370D01*
X58579Y-43259D01*
X58580Y-43140D01*
X58540Y-43043D01*
X58540Y-42025D01*
X58669Y-42025D01*
X58674Y-42022D01*
X58680Y-42025D01*
X58759Y-42025D01*
X58826Y-42025D01*
X58838Y-42036D01*
X58930Y-42075D01*
X58957Y-42075D01*
X59020Y-42012D01*
X59020Y-41967D01*
X59049Y-41938D01*
X59064Y-41900D01*
X59080Y-41938D01*
X59100Y-41957D01*
X59100Y-42012D01*
X59162Y-42075D01*
X59189Y-42075D01*
X59281Y-42036D01*
X59293Y-42025D01*
X59449Y-42025D01*
X59449Y-42024D01*
X59450Y-42025D01*
X59529Y-42025D01*
X59689Y-42025D01*
X59699Y-42020D01*
X59710Y-42025D01*
X59789Y-42025D01*
X59949Y-42025D01*
X60023Y-41994D01*
X60079Y-41938D01*
X60110Y-41864D01*
X60110Y-50977D01*
X60031Y-50977D01*
X59672Y-51125D01*
X59398Y-51399D01*
X59249Y-51757D01*
X59249Y-52145D01*
X59397Y-52504D01*
X59671Y-52778D01*
X60029Y-52927D01*
X60417Y-52927D01*
X60775Y-52779D01*
X61050Y-52505D01*
X61199Y-52147D01*
X61199Y-51759D01*
X61199Y-55850D01*
X59061Y-55850D01*
X59061Y-53268D01*
X59061Y-51268D01*
X58989Y-51093D01*
X58856Y-50959D01*
X58681Y-50887D01*
X58492Y-50887D01*
X58317Y-50959D01*
X58184Y-51092D01*
X58111Y-51267D01*
X58111Y-51456D01*
X58183Y-51630D01*
X58317Y-51764D01*
X58491Y-51837D01*
X58680Y-51837D01*
X58855Y-51765D01*
X58989Y-51631D01*
X59061Y-51457D01*
X59061Y-51268D01*
X59061Y-53268D01*
X58989Y-53093D01*
X58856Y-52959D01*
X58681Y-52887D01*
X58492Y-52887D01*
X58317Y-52959D01*
X58184Y-53092D01*
X58111Y-53267D01*
X58111Y-53456D01*
X58183Y-53630D01*
X58317Y-53764D01*
X58491Y-53837D01*
X58680Y-53837D01*
X58855Y-53765D01*
X58989Y-53631D01*
X59061Y-53457D01*
X59061Y-53268D01*
X59061Y-55850D01*
X56061Y-55850D01*
X56061Y-53268D01*
X55989Y-53093D01*
X55856Y-52959D01*
X55681Y-52887D01*
X55492Y-52887D01*
X55317Y-52959D01*
X55184Y-53092D01*
X55111Y-53267D01*
X55111Y-53456D01*
X55183Y-53630D01*
X55317Y-53764D01*
X55491Y-53837D01*
X55680Y-53837D01*
X55855Y-53765D01*
X55989Y-53631D01*
X56061Y-53457D01*
X56061Y-53268D01*
X56061Y-55850D01*
X54534Y-55850D01*
X54534Y-55039D01*
X54534Y-53039D01*
X54534Y-51496D01*
X54461Y-51321D01*
X54328Y-51188D01*
X54153Y-51115D01*
X53964Y-51115D01*
X53790Y-51187D01*
X53656Y-51321D01*
X53584Y-51495D01*
X53583Y-51684D01*
X53656Y-51859D01*
X53789Y-51993D01*
X53964Y-52065D01*
X54153Y-52065D01*
X54327Y-51993D01*
X54461Y-51859D01*
X54533Y-51685D01*
X54534Y-51496D01*
X54534Y-53039D01*
X54461Y-52865D01*
X54328Y-52731D01*
X54153Y-52658D01*
X53964Y-52658D01*
X53790Y-52730D01*
X53656Y-52864D01*
X53584Y-53038D01*
X53583Y-53227D01*
X53656Y-53402D01*
X53789Y-53536D01*
X53964Y-53608D01*
X54153Y-53608D01*
X54327Y-53536D01*
X54461Y-53403D01*
X54533Y-53228D01*
X54534Y-53039D01*
X54534Y-55039D01*
X54461Y-54865D01*
X54328Y-54731D01*
X54153Y-54658D01*
X53964Y-54658D01*
X53790Y-54730D01*
X53656Y-54864D01*
X53584Y-55038D01*
X53583Y-55227D01*
X53656Y-55402D01*
X53789Y-55536D01*
X53964Y-55608D01*
X54153Y-55608D01*
X54327Y-55536D01*
X54461Y-55403D01*
X54533Y-55228D01*
X54534Y-55039D01*
X54534Y-55850D01*
X51534Y-55850D01*
X51534Y-55039D01*
X51461Y-54865D01*
X51328Y-54731D01*
X51153Y-54658D01*
X50964Y-54658D01*
X50790Y-54730D01*
X50656Y-54864D01*
X50584Y-55038D01*
X50583Y-55227D01*
X50656Y-55402D01*
X50789Y-55536D01*
X50964Y-55608D01*
X51153Y-55608D01*
X51327Y-55536D01*
X51461Y-55403D01*
X51533Y-55228D01*
X51534Y-55039D01*
X51534Y-55850D01*
X50203Y-55850D01*
X50203Y-53268D01*
X50203Y-51268D01*
X50131Y-51093D01*
X49997Y-50959D01*
X49823Y-50887D01*
X49634Y-50887D01*
X49459Y-50959D01*
X49325Y-51092D01*
X49253Y-51267D01*
X49253Y-51456D01*
X49325Y-51630D01*
X49458Y-51764D01*
X49633Y-51837D01*
X49822Y-51837D01*
X49997Y-51765D01*
X50130Y-51631D01*
X50203Y-51457D01*
X50203Y-51268D01*
X50203Y-53268D01*
X50131Y-53093D01*
X49997Y-52959D01*
X49823Y-52887D01*
X49634Y-52887D01*
X49459Y-52959D01*
X49325Y-53092D01*
X49253Y-53267D01*
X49253Y-53456D01*
X49325Y-53630D01*
X49458Y-53764D01*
X49633Y-53837D01*
X49822Y-53837D01*
X49997Y-53765D01*
X50130Y-53631D01*
X50203Y-53457D01*
X50203Y-53268D01*
X50203Y-55850D01*
X47203Y-55850D01*
X47203Y-53268D01*
X47131Y-53093D01*
X46997Y-52959D01*
X46823Y-52887D01*
X46634Y-52887D01*
X46459Y-52959D01*
X46325Y-53092D01*
X46253Y-53267D01*
X46253Y-53456D01*
X46325Y-53630D01*
X46458Y-53764D01*
X46633Y-53837D01*
X46822Y-53837D01*
X46997Y-53765D01*
X47130Y-53631D01*
X47203Y-53457D01*
X47203Y-53268D01*
X47203Y-55850D01*
X45750Y-55850D01*
X45750Y-32350D01*
X59948Y-32350D01*
X59898Y-32399D01*
X59749Y-32757D01*
X59749Y-33145D01*
X59897Y-33504D01*
X60171Y-33778D01*
X60342Y-33850D01*
X53218Y-33850D01*
X53122Y-33869D01*
X53041Y-33923D01*
X52923Y-34041D01*
X52869Y-34122D01*
X52850Y-34218D01*
X52850Y-34341D01*
X52708Y-34436D01*
X52629Y-34553D01*
X52491Y-34379D01*
X52285Y-34265D01*
X52243Y-34255D01*
X52150Y-34303D01*
X52150Y-34950D01*
X52157Y-34950D01*
X52157Y-35050D01*
X52150Y-35050D01*
X52150Y-35696D01*
X52243Y-35744D01*
X52285Y-35734D01*
X52491Y-35620D01*
X52629Y-35446D01*
X52708Y-35563D01*
X52887Y-35683D01*
X53100Y-35725D01*
X53312Y-35683D01*
X53491Y-35563D01*
X53600Y-35401D01*
X53708Y-35563D01*
X53850Y-35658D01*
X53850Y-36750D01*
X53869Y-36845D01*
X53923Y-36926D01*
X54529Y-37533D01*
X54529Y-37539D01*
X54575Y-37649D01*
X54659Y-37734D01*
X54770Y-37779D01*
X54889Y-37780D01*
X54999Y-37734D01*
X55084Y-37650D01*
X55129Y-37539D01*
X55130Y-37420D01*
X55084Y-37310D01*
X55000Y-37225D01*
X54889Y-37180D01*
X54883Y-37180D01*
X54350Y-36646D01*
X54350Y-35658D01*
X54491Y-35563D01*
X54600Y-35401D01*
X54708Y-35563D01*
X54850Y-35658D01*
X54850Y-36940D01*
X54869Y-37035D01*
X54923Y-37116D01*
X55789Y-37983D01*
X55789Y-37989D01*
X55835Y-38099D01*
X55919Y-38184D01*
X56030Y-38229D01*
X56149Y-38230D01*
X56259Y-38184D01*
X56344Y-38100D01*
X56389Y-37989D01*
X56390Y-37870D01*
X56344Y-37760D01*
X56260Y-37675D01*
X56149Y-37630D01*
X56143Y-37630D01*
X55350Y-36836D01*
X55350Y-35658D01*
X55491Y-35563D01*
X55600Y-35401D01*
X55708Y-35563D01*
X55850Y-35658D01*
X55850Y-37090D01*
X55869Y-37185D01*
X55923Y-37266D01*
X56981Y-38325D01*
X56890Y-38325D01*
X56880Y-38329D01*
X56869Y-38325D01*
X56790Y-38325D01*
X56630Y-38325D01*
X56625Y-38327D01*
X56619Y-38325D01*
X56540Y-38325D01*
X56380Y-38325D01*
X56306Y-38355D01*
X56250Y-38411D01*
X56220Y-38485D01*
X56220Y-38564D01*
X56220Y-39064D01*
X56250Y-39137D01*
X56250Y-39306D01*
X56269Y-39401D01*
X56323Y-39483D01*
X57076Y-40236D01*
X57158Y-40290D01*
X57253Y-40310D01*
X60414Y-40310D01*
X60510Y-40290D01*
X60591Y-40236D01*
X62350Y-38478D01*
X62375Y-38539D01*
X62378Y-38542D01*
X62378Y-38806D01*
X62292Y-38806D01*
X62219Y-38836D01*
X62162Y-38892D01*
X62132Y-38966D01*
X62132Y-39045D01*
X62132Y-39517D01*
X62162Y-39591D01*
X62219Y-39647D01*
X62292Y-39678D01*
X62372Y-39678D01*
X62963Y-39678D01*
X63036Y-39647D01*
X63093Y-39591D01*
X63112Y-39543D01*
X63144Y-39619D01*
X63214Y-39689D01*
X63306Y-39728D01*
X63539Y-39728D01*
X63602Y-39665D01*
X63602Y-39292D01*
X63594Y-39292D01*
X63594Y-39192D01*
X63602Y-39192D01*
X63602Y-38818D01*
X63539Y-38756D01*
X63306Y-38756D01*
X63214Y-38794D01*
X63144Y-38864D01*
X63112Y-38940D01*
X63093Y-38892D01*
X63036Y-38836D01*
X62963Y-38806D01*
X62883Y-38806D01*
X62878Y-38806D01*
X62878Y-38620D01*
X66448Y-38620D01*
X74147Y-46319D01*
X74147Y-46325D01*
X74193Y-46435D01*
X74229Y-46471D01*
X74177Y-46450D01*
X74058Y-46449D01*
X73948Y-46495D01*
X73943Y-46500D01*
X68809Y-46500D01*
X64197Y-41887D01*
X64197Y-39527D01*
X64197Y-39428D01*
X64197Y-39354D01*
X64197Y-39129D01*
X64197Y-39055D01*
X64197Y-38956D01*
X64159Y-38864D01*
X64089Y-38794D01*
X63997Y-38756D01*
X63764Y-38756D01*
X63702Y-38818D01*
X63702Y-39192D01*
X64135Y-39192D01*
X64197Y-39129D01*
X64197Y-39354D01*
X64135Y-39292D01*
X63702Y-39292D01*
X63702Y-39665D01*
X63764Y-39728D01*
X63997Y-39728D01*
X64089Y-39689D01*
X64159Y-39619D01*
X64197Y-39527D01*
X64197Y-41887D01*
X64177Y-41867D01*
X64177Y-40781D01*
X64177Y-40682D01*
X64177Y-40608D01*
X64177Y-40383D01*
X64177Y-40309D01*
X64177Y-40210D01*
X64139Y-40118D01*
X64069Y-40048D01*
X63977Y-40010D01*
X63744Y-40010D01*
X63682Y-40072D01*
X63682Y-40446D01*
X64115Y-40446D01*
X64177Y-40383D01*
X64177Y-40608D01*
X64115Y-40546D01*
X63682Y-40546D01*
X63682Y-40919D01*
X63744Y-40982D01*
X63977Y-40982D01*
X64069Y-40943D01*
X64139Y-40873D01*
X64177Y-40781D01*
X64177Y-41867D01*
X63291Y-40982D01*
X63519Y-40982D01*
X63582Y-40919D01*
X63582Y-40546D01*
X63574Y-40546D01*
X63574Y-40446D01*
X63582Y-40446D01*
X63582Y-40072D01*
X63519Y-40010D01*
X63286Y-40010D01*
X63194Y-40048D01*
X63124Y-40118D01*
X63092Y-40194D01*
X63073Y-40146D01*
X63016Y-40090D01*
X62943Y-40060D01*
X62863Y-40060D01*
X62393Y-40060D01*
X62190Y-39856D01*
X62190Y-39850D01*
X62144Y-39740D01*
X62060Y-39655D01*
X61949Y-39610D01*
X61830Y-39609D01*
X61720Y-39655D01*
X61635Y-39739D01*
X61590Y-39850D01*
X61589Y-39969D01*
X61635Y-40079D01*
X61719Y-40164D01*
X61830Y-40209D01*
X61836Y-40209D01*
X62112Y-40486D01*
X62112Y-40771D01*
X62142Y-40845D01*
X62199Y-40901D01*
X62272Y-40932D01*
X62352Y-40932D01*
X62534Y-40932D01*
X68529Y-46926D01*
X68610Y-46980D01*
X68706Y-47000D01*
X73943Y-47000D01*
X73947Y-47004D01*
X74058Y-47049D01*
X74177Y-47050D01*
X74287Y-47004D01*
X74372Y-46920D01*
X74417Y-46809D01*
X74418Y-46690D01*
X74372Y-46580D01*
X74336Y-46544D01*
X74388Y-46565D01*
X74507Y-46566D01*
X74617Y-46520D01*
X74702Y-46436D01*
X74747Y-46325D01*
X74748Y-46206D01*
X74702Y-46096D01*
X74618Y-46011D01*
X74507Y-45966D01*
X74501Y-45966D01*
X66728Y-38193D01*
X66647Y-38139D01*
X66552Y-38120D01*
X62804Y-38120D01*
X62800Y-38115D01*
X62738Y-38090D01*
X63216Y-37612D01*
X64541Y-37612D01*
X64602Y-37624D01*
X65680Y-37624D01*
X65680Y-37709D01*
X65710Y-37782D01*
X65766Y-37839D01*
X65840Y-37869D01*
X65919Y-37869D01*
X66391Y-37869D01*
X66465Y-37839D01*
X66521Y-37782D01*
X66552Y-37709D01*
X66552Y-37629D01*
X66552Y-37038D01*
X66521Y-36965D01*
X66465Y-36908D01*
X66391Y-36878D01*
X66312Y-36878D01*
X65840Y-36878D01*
X65766Y-36908D01*
X65710Y-36965D01*
X65680Y-37038D01*
X65680Y-37118D01*
X65680Y-37124D01*
X64650Y-37124D01*
X64590Y-37112D01*
X63490Y-37112D01*
X64276Y-36325D01*
X64330Y-36244D01*
X64350Y-36148D01*
X64350Y-35658D01*
X64491Y-35563D01*
X64570Y-35446D01*
X64708Y-35620D01*
X64914Y-35734D01*
X64956Y-35744D01*
X65050Y-35696D01*
X65050Y-35050D01*
X65042Y-35050D01*
X65042Y-34950D01*
X65050Y-34950D01*
X65050Y-34942D01*
X65150Y-34942D01*
X65150Y-34950D01*
X65157Y-34950D01*
X65157Y-35050D01*
X65150Y-35050D01*
X65150Y-35696D01*
X65243Y-35744D01*
X65285Y-35734D01*
X65491Y-35620D01*
X65629Y-35446D01*
X65708Y-35563D01*
X65866Y-35668D01*
X65866Y-35854D01*
X65840Y-35854D01*
X65766Y-35884D01*
X65710Y-35941D01*
X65680Y-36014D01*
X65680Y-36094D01*
X65680Y-36685D01*
X65710Y-36758D01*
X65766Y-36815D01*
X65840Y-36845D01*
X65919Y-36845D01*
X66391Y-36845D01*
X66465Y-36815D01*
X66521Y-36758D01*
X66552Y-36685D01*
X66552Y-36605D01*
X66552Y-36014D01*
X66521Y-35941D01*
X66465Y-35884D01*
X66391Y-35854D01*
X66366Y-35854D01*
X66366Y-35647D01*
X66491Y-35563D01*
X66612Y-35383D01*
X66654Y-35171D01*
X66654Y-34828D01*
X66612Y-34616D01*
X66491Y-34436D01*
X66362Y-34350D01*
X67000Y-34350D01*
X74860Y-42209D01*
X74860Y-47252D01*
X73673Y-48439D01*
X73619Y-48520D01*
X73600Y-48616D01*
X73600Y-53200D01*
X73619Y-53295D01*
X73673Y-53376D01*
X74723Y-54426D01*
X74804Y-54480D01*
X74900Y-54500D01*
X74900Y-54500D01*
X74900Y-54500D01*
X75656Y-54500D01*
X75692Y-54585D01*
X75859Y-54753D01*
X76077Y-54843D01*
X76313Y-54843D01*
X76531Y-54753D01*
X76699Y-54586D01*
X76789Y-54368D01*
X76789Y-54132D01*
X76699Y-53914D01*
X76532Y-53746D01*
X76314Y-53656D01*
X76078Y-53656D01*
X75860Y-53746D01*
X75692Y-53913D01*
X75656Y-54000D01*
X75003Y-54000D01*
X74100Y-53096D01*
X74100Y-48719D01*
X75286Y-47532D01*
X75340Y-47451D01*
X75360Y-47356D01*
X75360Y-42106D01*
X75340Y-42010D01*
X75286Y-41929D01*
X67280Y-33923D01*
X67199Y-33869D01*
X67104Y-33850D01*
X61106Y-33850D01*
X61275Y-33779D01*
X61550Y-33505D01*
X61646Y-33275D01*
X61662Y-33357D01*
X61770Y-33520D01*
X61933Y-33628D01*
X62124Y-33666D01*
X62315Y-33628D01*
X62477Y-33520D01*
X62586Y-33357D01*
X62624Y-33166D01*
X62662Y-33357D01*
X62770Y-33520D01*
X62933Y-33628D01*
X63124Y-33666D01*
X63315Y-33628D01*
X63477Y-33520D01*
X63586Y-33357D01*
X63624Y-33166D01*
X63662Y-33357D01*
X63770Y-33520D01*
X63933Y-33628D01*
X64124Y-33666D01*
X64315Y-33628D01*
X64477Y-33520D01*
X64586Y-33357D01*
X64624Y-33166D01*
X64662Y-33357D01*
X64770Y-33520D01*
X64933Y-33628D01*
X65124Y-33666D01*
X65315Y-33628D01*
X65477Y-33520D01*
X65586Y-33357D01*
X65624Y-33166D01*
X65662Y-33357D01*
X65770Y-33520D01*
X65933Y-33628D01*
X66124Y-33666D01*
X66315Y-33628D01*
X66477Y-33520D01*
X66586Y-33357D01*
X66624Y-33166D01*
X66662Y-33357D01*
X66770Y-33520D01*
X66933Y-33628D01*
X67124Y-33666D01*
X67315Y-33628D01*
X67477Y-33520D01*
X67586Y-33357D01*
X67624Y-33166D01*
X67662Y-33357D01*
X67770Y-33520D01*
X67933Y-33628D01*
X68124Y-33666D01*
X68315Y-33628D01*
X68477Y-33520D01*
X68586Y-33357D01*
X68624Y-33166D01*
X68662Y-33357D01*
X68770Y-33520D01*
X68933Y-33628D01*
X69124Y-33666D01*
X69315Y-33628D01*
X69477Y-33520D01*
X69586Y-33357D01*
X69624Y-33166D01*
X69662Y-33357D01*
X69770Y-33520D01*
X69933Y-33628D01*
X70124Y-33666D01*
X70315Y-33628D01*
X70477Y-33520D01*
X70586Y-33357D01*
X70624Y-33166D01*
X70662Y-33357D01*
X70770Y-33520D01*
X70933Y-33628D01*
X71124Y-33666D01*
X71315Y-33628D01*
X71477Y-33520D01*
X71586Y-33357D01*
X71624Y-33166D01*
X71624Y-32739D01*
X71586Y-32547D01*
X71477Y-32385D01*
X71424Y-32350D01*
X72423Y-32350D01*
X72370Y-32385D01*
X72262Y-32547D01*
X72224Y-32739D01*
X72224Y-33166D01*
X72262Y-33357D01*
X72370Y-33520D01*
X72533Y-33628D01*
X72724Y-33666D01*
X72915Y-33628D01*
X73077Y-33520D01*
X73186Y-33357D01*
X73224Y-33166D01*
X73262Y-33357D01*
X73370Y-33520D01*
X73533Y-33628D01*
X73724Y-33666D01*
X73915Y-33628D01*
X74077Y-33520D01*
X74186Y-33357D01*
X74224Y-33166D01*
X74262Y-33357D01*
X74370Y-33520D01*
X74533Y-33628D01*
X74724Y-33666D01*
X74915Y-33628D01*
X75077Y-33520D01*
X75186Y-33357D01*
X75224Y-33166D01*
X75262Y-33357D01*
X75370Y-33520D01*
X75533Y-33628D01*
X75724Y-33666D01*
X75915Y-33628D01*
X76077Y-33520D01*
X76186Y-33357D01*
X76224Y-33166D01*
X76262Y-33357D01*
X76370Y-33520D01*
X76533Y-33628D01*
X76724Y-33666D01*
X76915Y-33628D01*
X77077Y-33520D01*
X77186Y-33357D01*
X77224Y-33166D01*
X77262Y-33357D01*
X77370Y-33520D01*
X77533Y-33628D01*
X77724Y-33666D01*
X77915Y-33628D01*
X78077Y-33520D01*
X78186Y-33357D01*
X78224Y-33166D01*
X78262Y-33357D01*
X78370Y-33520D01*
X78533Y-33628D01*
X78724Y-33666D01*
X78915Y-33628D01*
X79077Y-33520D01*
X79186Y-33357D01*
X79224Y-33166D01*
X79262Y-33357D01*
X79370Y-33520D01*
X79533Y-33628D01*
X79724Y-33666D01*
X79750Y-33661D01*
X79750Y-38756D01*
X79749Y-38757D01*
X79749Y-39145D01*
X79750Y-39147D01*
X79750Y-49756D01*
X79749Y-49757D01*
X79749Y-50145D01*
X79750Y-50147D01*
X79750Y-51244D01*
X79724Y-51239D01*
X79533Y-51277D01*
X79370Y-51385D01*
X79262Y-51547D01*
X79252Y-51596D01*
X79252Y-47048D01*
X79252Y-34843D01*
X79132Y-34552D01*
X78910Y-34330D01*
X78619Y-34209D01*
X78305Y-34209D01*
X78014Y-34329D01*
X77792Y-34551D01*
X77671Y-34842D01*
X77671Y-35156D01*
X77791Y-35447D01*
X78013Y-35669D01*
X78304Y-35790D01*
X78618Y-35790D01*
X78909Y-35670D01*
X79131Y-35448D01*
X79252Y-35157D01*
X79252Y-34843D01*
X79252Y-47048D01*
X79132Y-46757D01*
X78910Y-46535D01*
X78619Y-46414D01*
X78305Y-46414D01*
X78014Y-46534D01*
X77792Y-46756D01*
X77671Y-47047D01*
X77671Y-47361D01*
X77791Y-47652D01*
X78013Y-47874D01*
X78304Y-47995D01*
X78618Y-47995D01*
X78909Y-47875D01*
X79131Y-47653D01*
X79252Y-47362D01*
X79252Y-47048D01*
X79252Y-51596D01*
X79224Y-51739D01*
X79186Y-51547D01*
X79077Y-51385D01*
X78915Y-51277D01*
X78724Y-51239D01*
X78533Y-51277D01*
X78370Y-51385D01*
X78262Y-51547D01*
X78224Y-51739D01*
X78186Y-51547D01*
X78077Y-51385D01*
X77915Y-51277D01*
X77724Y-51239D01*
X77533Y-51277D01*
X77370Y-51385D01*
X77262Y-51547D01*
X77224Y-51739D01*
X77186Y-51547D01*
X77077Y-51385D01*
X76915Y-51277D01*
X76724Y-51239D01*
X76533Y-51277D01*
X76370Y-51385D01*
X76262Y-51547D01*
X76224Y-51739D01*
X76186Y-51547D01*
X76077Y-51385D01*
X75915Y-51277D01*
X75724Y-51239D01*
X75533Y-51277D01*
X75370Y-51385D01*
X75262Y-51547D01*
X75224Y-51739D01*
X75186Y-51547D01*
X75077Y-51385D01*
X74915Y-51277D01*
X74724Y-51239D01*
X74533Y-51277D01*
X74370Y-51385D01*
X74262Y-51547D01*
X74224Y-51739D01*
X74224Y-52166D01*
X74262Y-52357D01*
X74370Y-52520D01*
X74533Y-52628D01*
X74724Y-52666D01*
X74915Y-52628D01*
X75077Y-52520D01*
X75186Y-52357D01*
X75224Y-52166D01*
X75262Y-52357D01*
X75370Y-52520D01*
X75533Y-52628D01*
X75724Y-52666D01*
X75915Y-52628D01*
X76077Y-52520D01*
X76186Y-52357D01*
X76224Y-52166D01*
X76262Y-52357D01*
X76370Y-52520D01*
X76533Y-52628D01*
X76724Y-52666D01*
X76915Y-52628D01*
X77077Y-52520D01*
X77186Y-52357D01*
X77224Y-52166D01*
X77262Y-52357D01*
X77370Y-52520D01*
X77533Y-52628D01*
X77724Y-52666D01*
X77915Y-52628D01*
X78077Y-52520D01*
X78186Y-52357D01*
X78224Y-52166D01*
X78262Y-52357D01*
X78370Y-52520D01*
X78533Y-52628D01*
X78724Y-52666D01*
X78915Y-52628D01*
X79077Y-52520D01*
X79186Y-52357D01*
X79224Y-52166D01*
X79262Y-52357D01*
X79370Y-52520D01*
X79533Y-52628D01*
X79724Y-52666D01*
X79750Y-52661D01*
X79750Y-55850D01*
M02*
