%FSLAX34Y34*%
G04 Gerber Fmt 3.4, Leading zero omitted, Abs format*
G04 (created by PCBNEW (2014-05-22 BZR 4885)-product) date Tue 27 May 2014 09:52:33 PM EST*
%MOIN*%
G01*
G70*
G90*
G04 APERTURE LIST*
%ADD10C,0.003937*%
%ADD11C,0.078740*%
%ADD12O,0.060000X0.100000*%
%ADD13C,0.155000*%
%ADD14R,0.016000X0.050000*%
%ADD15R,0.047200X0.059100*%
%ADD16C,0.055000*%
%ADD17O,0.070866X0.102362*%
%ADD18C,0.118110*%
%ADD19R,0.059100X0.047200*%
G04 APERTURE END LIST*
G54D10*
G54D11*
X76196Y-54250D03*
X77180Y-53265D03*
X77180Y-55234D03*
G54D12*
X79724Y-51952D03*
X78724Y-51952D03*
X77724Y-51952D03*
X74724Y-51952D03*
X75724Y-51952D03*
X76724Y-51952D03*
X72724Y-51952D03*
X71724Y-51952D03*
X70724Y-51952D03*
X68724Y-51952D03*
X67724Y-51952D03*
X79724Y-32952D03*
X78724Y-32952D03*
X77724Y-32952D03*
X76724Y-32952D03*
X75724Y-32952D03*
X74724Y-32952D03*
X73724Y-32952D03*
X72724Y-32952D03*
X71124Y-32952D03*
X70124Y-32952D03*
X69124Y-32952D03*
X68124Y-32952D03*
X67124Y-32952D03*
X66124Y-32952D03*
X65124Y-32952D03*
X64124Y-32952D03*
X69724Y-51952D03*
G54D13*
X80724Y-49952D03*
X80724Y-38952D03*
X60724Y-32952D03*
X60224Y-51952D03*
G54D12*
X63124Y-32952D03*
X62124Y-32952D03*
G54D14*
X56500Y-38775D03*
X56750Y-38775D03*
X57010Y-38775D03*
X57270Y-38775D03*
X57520Y-38775D03*
X57780Y-38775D03*
X58040Y-38775D03*
X58290Y-38775D03*
X58550Y-38775D03*
X58800Y-38775D03*
X59060Y-38775D03*
X59320Y-38775D03*
X59570Y-38775D03*
X59830Y-38775D03*
X59830Y-41575D03*
X59570Y-41575D03*
X59330Y-41575D03*
X59060Y-41575D03*
X58800Y-41575D03*
X58550Y-41575D03*
X58290Y-41575D03*
X58040Y-41575D03*
X57780Y-41575D03*
X57520Y-41575D03*
X57270Y-41575D03*
X57010Y-41575D03*
X56750Y-41575D03*
X56500Y-41575D03*
G54D15*
X66116Y-37374D03*
X66116Y-36350D03*
G54D16*
X49728Y-51362D03*
X49728Y-53362D03*
X46728Y-51362D03*
X46728Y-53362D03*
X54059Y-49590D03*
X54059Y-51590D03*
X51059Y-49590D03*
X51059Y-51590D03*
X54059Y-53133D03*
X54059Y-55133D03*
X51059Y-53133D03*
X51059Y-55133D03*
X58586Y-51362D03*
X58586Y-53362D03*
X55586Y-51362D03*
X55586Y-53362D03*
X65870Y-51362D03*
X65870Y-53362D03*
X62870Y-51362D03*
X62870Y-53362D03*
X67650Y-55400D03*
X67650Y-53400D03*
X70650Y-55400D03*
X70650Y-53400D03*
G54D17*
X51100Y-35000D03*
X52100Y-35000D03*
X53100Y-35000D03*
X54100Y-35000D03*
X55100Y-35000D03*
X56100Y-35000D03*
X57100Y-35000D03*
X58100Y-35000D03*
X59100Y-35000D03*
X60100Y-35000D03*
X61100Y-35000D03*
X62100Y-35000D03*
X63100Y-35000D03*
X64100Y-35000D03*
X65100Y-35000D03*
X66100Y-35000D03*
G54D18*
X48935Y-35000D03*
X48935Y-47205D03*
X78462Y-47205D03*
X78462Y-35000D03*
G54D19*
X63652Y-39242D03*
X62628Y-39242D03*
X63632Y-40496D03*
X62608Y-40496D03*
M02*
