M48
;DRILL file {kicad (2014-05-22 BZR 4885)-product} date Tue 27 May 2014 09:50:44 PM EST
;FORMAT={-:-/ absolute / inch / decimal}
FMAT,2
INCH,TZ
T1C0.013
T2C0.032
T3C0.039
T4C0.047
T5C0.098
T6C0.125
%
G90
G05
M72
T1
X5.33Y-3.675
X5.483Y-3.748
X5.609Y-3.793
X5.748Y-3.792
X5.782Y-3.748
X5.7954Y-3.6764
X5.828Y-4.32
X5.893Y-3.795
X5.957Y-4.074
X5.968Y-3.772
X5.991Y-3.807
X6.189Y-3.991
X6.263Y-3.837
X6.892Y-4.794
X6.892Y-4.927
X7.148Y-4.794
X7.148Y-4.932
X7.4118Y-4.675
X7.4448Y-4.6266
T2
X4.6728Y-5.1362
X4.6728Y-5.3362
X4.9728Y-5.1362
X4.9728Y-5.3362
X5.1059Y-4.9591
X5.1059Y-5.1591
X5.1059Y-5.3134
X5.1059Y-5.5134
X5.4059Y-4.9591
X5.4059Y-5.1591
X5.4059Y-5.3134
X5.4059Y-5.5134
X5.5587Y-5.1362
X5.5587Y-5.3362
X5.8587Y-5.1362
X5.8587Y-5.3362
X6.2124Y-3.2953
X6.287Y-5.1362
X6.287Y-5.3362
X6.3124Y-3.2953
X6.4124Y-3.2953
X6.5124Y-3.2953
X6.587Y-5.1362
X6.587Y-5.3362
X6.6124Y-3.2953
X6.7124Y-3.2953
X6.765Y-5.34
X6.765Y-5.54
X6.7724Y-5.1953
X6.8124Y-3.2953
X6.8724Y-5.1953
X6.9124Y-3.2953
X6.9724Y-5.1953
X7.0124Y-3.2953
X7.065Y-5.34
X7.065Y-5.54
X7.0724Y-5.1953
X7.1124Y-3.2953
X7.1724Y-5.1953
X7.2724Y-3.2953
X7.2724Y-5.1953
X7.3724Y-3.2953
X7.4724Y-3.2953
X7.4724Y-5.1953
X7.5724Y-3.2953
X7.5724Y-5.1953
X7.6724Y-3.2953
X7.6724Y-5.1953
X7.7724Y-3.2953
X7.7724Y-5.1953
X7.8724Y-3.2953
X7.8724Y-5.1953
X7.9724Y-3.2953
X7.9724Y-5.1953
T3
X7.6196Y-5.425
X7.718Y-5.3266
X7.718Y-5.5234
T4
X5.11Y-3.5
X5.21Y-3.5
X5.31Y-3.5
X5.41Y-3.5
X5.51Y-3.5
X5.61Y-3.5
X5.71Y-3.5
X5.81Y-3.5
X5.91Y-3.5
X6.01Y-3.5
X6.11Y-3.5
X6.21Y-3.5
X6.31Y-3.5
X6.41Y-3.5
X6.51Y-3.5
X6.61Y-3.5
T5
X4.8935Y-3.5
X4.8935Y-4.7205
X7.8462Y-3.5
X7.8462Y-4.7205
T6
X6.0224Y-5.1953
X6.0724Y-3.2953
X8.0724Y-3.8953
X8.0724Y-4.9953
T0
M30
