%FSLAX34Y34*%
G04 Gerber Fmt 3.4, Leading zero omitted, Abs format*
G04 (created by PCBNEW (2014-05-22 BZR 4885)-product) date Tue 27 May 2014 09:52:33 PM EST*
%MOIN*%
G01*
G70*
G90*
G04 APERTURE LIST*
%ADD10C,0.003937*%
%ADD11C,0.078740*%
%ADD12O,0.060000X0.100000*%
%ADD13C,0.155000*%
%ADD14C,0.055000*%
%ADD15O,0.070866X0.102362*%
%ADD16C,0.118110*%
%ADD17C,0.020000*%
%ADD18C,0.010000*%
G04 APERTURE END LIST*
G54D10*
G54D11*
X76196Y-54250D03*
X77180Y-53265D03*
X77180Y-55234D03*
G54D12*
X79724Y-51952D03*
X78724Y-51952D03*
X77724Y-51952D03*
X74724Y-51952D03*
X75724Y-51952D03*
X76724Y-51952D03*
X72724Y-51952D03*
X71724Y-51952D03*
X70724Y-51952D03*
X68724Y-51952D03*
X67724Y-51952D03*
X79724Y-32952D03*
X78724Y-32952D03*
X77724Y-32952D03*
X76724Y-32952D03*
X75724Y-32952D03*
X74724Y-32952D03*
X73724Y-32952D03*
X72724Y-32952D03*
X71124Y-32952D03*
X70124Y-32952D03*
X69124Y-32952D03*
X68124Y-32952D03*
X67124Y-32952D03*
X66124Y-32952D03*
X65124Y-32952D03*
X64124Y-32952D03*
X69724Y-51952D03*
G54D13*
X80724Y-49952D03*
X80724Y-38952D03*
X60724Y-32952D03*
X60224Y-51952D03*
G54D12*
X63124Y-32952D03*
X62124Y-32952D03*
G54D14*
X49728Y-51362D03*
X49728Y-53362D03*
X46728Y-51362D03*
X46728Y-53362D03*
X54059Y-49590D03*
X54059Y-51590D03*
X51059Y-49590D03*
X51059Y-51590D03*
X54059Y-53133D03*
X54059Y-55133D03*
X51059Y-53133D03*
X51059Y-55133D03*
X58586Y-51362D03*
X58586Y-53362D03*
X55586Y-51362D03*
X55586Y-53362D03*
X65870Y-51362D03*
X65870Y-53362D03*
X62870Y-51362D03*
X62870Y-53362D03*
X67650Y-55400D03*
X67650Y-53400D03*
X70650Y-55400D03*
X70650Y-53400D03*
G54D15*
X51100Y-35000D03*
X52100Y-35000D03*
X53100Y-35000D03*
X54100Y-35000D03*
X55100Y-35000D03*
X56100Y-35000D03*
X57100Y-35000D03*
X58100Y-35000D03*
X59100Y-35000D03*
X60100Y-35000D03*
X61100Y-35000D03*
X62100Y-35000D03*
X63100Y-35000D03*
X64100Y-35000D03*
X65100Y-35000D03*
X66100Y-35000D03*
G54D16*
X48935Y-35000D03*
X48935Y-47205D03*
X78462Y-47205D03*
X78462Y-35000D03*
G54D17*
X71480Y-49320D03*
X71480Y-47940D03*
X68920Y-49270D03*
X68920Y-47940D03*
X53300Y-36750D03*
X57954Y-36764D03*
X57480Y-37920D03*
X56090Y-37930D03*
X57820Y-37480D03*
X54830Y-37480D03*
X58930Y-37950D03*
X59570Y-40740D03*
X59910Y-38070D03*
X61890Y-39910D03*
X74118Y-46750D03*
X58280Y-43200D03*
X62630Y-38370D03*
X59680Y-37720D03*
X74448Y-46266D03*
G54D18*
X71480Y-49320D02*
X71480Y-47940D01*
X68920Y-47940D02*
X68920Y-49270D01*
X51606Y-34940D02*
X51606Y-34503D01*
X57940Y-36750D02*
X53300Y-36750D01*
X57954Y-36764D02*
X57940Y-36750D01*
X56090Y-37930D02*
X57470Y-37930D01*
X57470Y-37930D02*
X57480Y-37920D01*
X57820Y-37480D02*
X54830Y-37480D01*
X61270Y-38070D02*
X59910Y-38070D01*
X61880Y-38680D02*
X61270Y-38070D01*
X61880Y-39900D02*
X61880Y-38680D01*
X61890Y-39910D02*
X61880Y-39900D01*
X74118Y-46750D02*
X78724Y-51356D01*
X78724Y-51356D02*
X78724Y-51952D01*
X63840Y-43210D02*
X58290Y-43210D01*
X58290Y-43210D02*
X58280Y-43200D01*
X62870Y-50279D02*
X63960Y-49190D01*
X63960Y-49190D02*
X66750Y-49190D01*
X66750Y-49190D02*
X67630Y-48310D01*
X67630Y-48310D02*
X67630Y-47000D01*
X67630Y-47000D02*
X63840Y-43210D01*
X63840Y-43210D02*
X63820Y-43190D01*
X62870Y-51362D02*
X62870Y-50279D01*
X46728Y-51362D02*
X46728Y-51103D01*
X62630Y-38370D02*
X61980Y-37720D01*
X61980Y-37720D02*
X59680Y-37720D01*
X79724Y-51542D02*
X79724Y-51952D01*
X74448Y-46266D02*
X79724Y-51542D01*
G36*
X79750Y-55850D02*
X77828Y-55850D01*
X77828Y-53369D01*
X77818Y-53113D01*
X77739Y-52921D01*
X77634Y-52882D01*
X77563Y-52953D01*
X77563Y-52811D01*
X77524Y-52706D01*
X77284Y-52617D01*
X77028Y-52627D01*
X76836Y-52706D01*
X76797Y-52811D01*
X77180Y-53195D01*
X77563Y-52811D01*
X77563Y-52953D01*
X77250Y-53265D01*
X77634Y-53648D01*
X77739Y-53609D01*
X77828Y-53369D01*
X77828Y-55850D01*
X77774Y-55850D01*
X77774Y-55116D01*
X77683Y-54898D01*
X77563Y-54777D01*
X77563Y-53719D01*
X77180Y-53336D01*
X77109Y-53407D01*
X77109Y-53265D01*
X76726Y-52882D01*
X76621Y-52921D01*
X76532Y-53161D01*
X76541Y-53417D01*
X76621Y-53609D01*
X76726Y-53648D01*
X77109Y-53265D01*
X77109Y-53407D01*
X76797Y-53719D01*
X76836Y-53824D01*
X77076Y-53913D01*
X77332Y-53904D01*
X77524Y-53824D01*
X77563Y-53719D01*
X77563Y-54777D01*
X77516Y-54731D01*
X77298Y-54640D01*
X77062Y-54640D01*
X76844Y-54730D01*
X76789Y-54785D01*
X76789Y-54132D01*
X76699Y-53914D01*
X76532Y-53746D01*
X76314Y-53656D01*
X76078Y-53656D01*
X75860Y-53746D01*
X75692Y-53913D01*
X75602Y-54131D01*
X75602Y-54367D01*
X75692Y-54585D01*
X75859Y-54753D01*
X76077Y-54843D01*
X76313Y-54843D01*
X76531Y-54753D01*
X76699Y-54586D01*
X76789Y-54368D01*
X76789Y-54132D01*
X76789Y-54785D01*
X76677Y-54897D01*
X76586Y-55115D01*
X76586Y-55351D01*
X76676Y-55570D01*
X76843Y-55737D01*
X77061Y-55827D01*
X77297Y-55828D01*
X77516Y-55737D01*
X77683Y-55570D01*
X77773Y-55352D01*
X77774Y-55116D01*
X77774Y-55850D01*
X73224Y-55850D01*
X73224Y-52166D01*
X73224Y-51739D01*
X73186Y-51547D01*
X73077Y-51385D01*
X72915Y-51277D01*
X72724Y-51239D01*
X72533Y-51277D01*
X72370Y-51385D01*
X72262Y-51547D01*
X72248Y-51616D01*
X72213Y-51496D01*
X72077Y-51328D01*
X71888Y-51225D01*
X71859Y-51219D01*
X71780Y-51264D01*
X71780Y-49260D01*
X71734Y-49150D01*
X71730Y-49145D01*
X71730Y-48114D01*
X71734Y-48110D01*
X71779Y-47999D01*
X71780Y-47880D01*
X71734Y-47770D01*
X71650Y-47685D01*
X71539Y-47640D01*
X71420Y-47639D01*
X71310Y-47685D01*
X71225Y-47769D01*
X71180Y-47880D01*
X71179Y-47999D01*
X71225Y-48109D01*
X71230Y-48114D01*
X71230Y-49145D01*
X71225Y-49149D01*
X71180Y-49260D01*
X71179Y-49379D01*
X71225Y-49489D01*
X71309Y-49574D01*
X71420Y-49619D01*
X71539Y-49620D01*
X71649Y-49574D01*
X71734Y-49490D01*
X71779Y-49379D01*
X71780Y-49260D01*
X71780Y-51264D01*
X71774Y-51267D01*
X71774Y-51902D01*
X71782Y-51902D01*
X71782Y-52002D01*
X71774Y-52002D01*
X71774Y-52637D01*
X71859Y-52685D01*
X71888Y-52680D01*
X72077Y-52577D01*
X72213Y-52409D01*
X72248Y-52289D01*
X72262Y-52357D01*
X72370Y-52520D01*
X72533Y-52628D01*
X72724Y-52666D01*
X72915Y-52628D01*
X73077Y-52520D01*
X73186Y-52357D01*
X73224Y-52166D01*
X73224Y-55850D01*
X71674Y-55850D01*
X71674Y-52637D01*
X71674Y-52002D01*
X71674Y-51902D01*
X71674Y-51267D01*
X71589Y-51219D01*
X71560Y-51225D01*
X71370Y-51328D01*
X71235Y-51496D01*
X71224Y-51533D01*
X71213Y-51496D01*
X71077Y-51328D01*
X70888Y-51225D01*
X70859Y-51219D01*
X70774Y-51267D01*
X70774Y-51902D01*
X71174Y-51902D01*
X71274Y-51902D01*
X71674Y-51902D01*
X71674Y-52002D01*
X71274Y-52002D01*
X71174Y-52002D01*
X70774Y-52002D01*
X70774Y-52637D01*
X70859Y-52685D01*
X70888Y-52680D01*
X71077Y-52577D01*
X71213Y-52409D01*
X71224Y-52372D01*
X71235Y-52409D01*
X71370Y-52577D01*
X71560Y-52680D01*
X71589Y-52685D01*
X71674Y-52637D01*
X71674Y-55850D01*
X71179Y-55850D01*
X71179Y-55475D01*
X71168Y-55267D01*
X71125Y-55162D01*
X71125Y-53305D01*
X71052Y-53131D01*
X70919Y-52997D01*
X70744Y-52925D01*
X70674Y-52925D01*
X70674Y-52637D01*
X70674Y-52002D01*
X70666Y-52002D01*
X70666Y-51902D01*
X70674Y-51902D01*
X70674Y-51267D01*
X70589Y-51219D01*
X70560Y-51225D01*
X70370Y-51328D01*
X70235Y-51496D01*
X70199Y-51616D01*
X70186Y-51547D01*
X70077Y-51385D01*
X69915Y-51277D01*
X69724Y-51239D01*
X69533Y-51277D01*
X69370Y-51385D01*
X69262Y-51547D01*
X69224Y-51739D01*
X69220Y-51717D01*
X69220Y-49210D01*
X69174Y-49100D01*
X69170Y-49095D01*
X69170Y-48114D01*
X69174Y-48110D01*
X69219Y-47999D01*
X69220Y-47880D01*
X69174Y-47770D01*
X69090Y-47685D01*
X68979Y-47640D01*
X68860Y-47639D01*
X68750Y-47685D01*
X68665Y-47769D01*
X68620Y-47880D01*
X68619Y-47999D01*
X68665Y-48109D01*
X68670Y-48114D01*
X68670Y-49095D01*
X68665Y-49099D01*
X68620Y-49210D01*
X68619Y-49329D01*
X68665Y-49439D01*
X68749Y-49524D01*
X68860Y-49569D01*
X68979Y-49570D01*
X69089Y-49524D01*
X69174Y-49440D01*
X69219Y-49329D01*
X69220Y-49210D01*
X69220Y-51717D01*
X69186Y-51547D01*
X69077Y-51385D01*
X68915Y-51277D01*
X68724Y-51239D01*
X68533Y-51277D01*
X68370Y-51385D01*
X68262Y-51547D01*
X68224Y-51739D01*
X68186Y-51547D01*
X68077Y-51385D01*
X67915Y-51277D01*
X67880Y-51269D01*
X67880Y-48310D01*
X67880Y-47000D01*
X67860Y-46904D01*
X67860Y-46904D01*
X67806Y-46823D01*
X66654Y-45670D01*
X66654Y-35171D01*
X66654Y-34828D01*
X66612Y-34616D01*
X66491Y-34436D01*
X66312Y-34316D01*
X66100Y-34274D01*
X65887Y-34316D01*
X65708Y-34436D01*
X65600Y-34598D01*
X65491Y-34436D01*
X65312Y-34316D01*
X65100Y-34274D01*
X64887Y-34316D01*
X64708Y-34436D01*
X64600Y-34598D01*
X64491Y-34436D01*
X64312Y-34316D01*
X64100Y-34274D01*
X63887Y-34316D01*
X63708Y-34436D01*
X63600Y-34598D01*
X63491Y-34436D01*
X63312Y-34316D01*
X63100Y-34274D01*
X62887Y-34316D01*
X62708Y-34436D01*
X62600Y-34598D01*
X62491Y-34436D01*
X62312Y-34316D01*
X62100Y-34274D01*
X61887Y-34316D01*
X61708Y-34436D01*
X61600Y-34598D01*
X61491Y-34436D01*
X61312Y-34316D01*
X61100Y-34274D01*
X60887Y-34316D01*
X60708Y-34436D01*
X60600Y-34598D01*
X60491Y-34436D01*
X60312Y-34316D01*
X60100Y-34274D01*
X59887Y-34316D01*
X59708Y-34436D01*
X59600Y-34598D01*
X59491Y-34436D01*
X59312Y-34316D01*
X59100Y-34274D01*
X58887Y-34316D01*
X58708Y-34436D01*
X58600Y-34598D01*
X58491Y-34436D01*
X58312Y-34316D01*
X58100Y-34274D01*
X57887Y-34316D01*
X57708Y-34436D01*
X57600Y-34598D01*
X57491Y-34436D01*
X57312Y-34316D01*
X57100Y-34274D01*
X56887Y-34316D01*
X56708Y-34436D01*
X56600Y-34598D01*
X56491Y-34436D01*
X56312Y-34316D01*
X56100Y-34274D01*
X55887Y-34316D01*
X55708Y-34436D01*
X55600Y-34598D01*
X55491Y-34436D01*
X55312Y-34316D01*
X55100Y-34274D01*
X54887Y-34316D01*
X54708Y-34436D01*
X54600Y-34598D01*
X54491Y-34436D01*
X54312Y-34316D01*
X54100Y-34274D01*
X53887Y-34316D01*
X53708Y-34436D01*
X53600Y-34598D01*
X53491Y-34436D01*
X53312Y-34316D01*
X53100Y-34274D01*
X52887Y-34316D01*
X52708Y-34436D01*
X52600Y-34598D01*
X52491Y-34436D01*
X52312Y-34316D01*
X52100Y-34274D01*
X51887Y-34316D01*
X51810Y-34368D01*
X51783Y-34326D01*
X51701Y-34272D01*
X51606Y-34253D01*
X51510Y-34272D01*
X51429Y-34326D01*
X51420Y-34340D01*
X51285Y-34265D01*
X51243Y-34255D01*
X51150Y-34303D01*
X51150Y-34950D01*
X51157Y-34950D01*
X51157Y-35050D01*
X51150Y-35050D01*
X51150Y-35696D01*
X51243Y-35744D01*
X51285Y-35734D01*
X51491Y-35620D01*
X51629Y-35446D01*
X51708Y-35563D01*
X51887Y-35683D01*
X52100Y-35725D01*
X52312Y-35683D01*
X52491Y-35563D01*
X52600Y-35401D01*
X52708Y-35563D01*
X52887Y-35683D01*
X53100Y-35725D01*
X53312Y-35683D01*
X53491Y-35563D01*
X53600Y-35401D01*
X53708Y-35563D01*
X53887Y-35683D01*
X54100Y-35725D01*
X54312Y-35683D01*
X54491Y-35563D01*
X54600Y-35401D01*
X54708Y-35563D01*
X54887Y-35683D01*
X55100Y-35725D01*
X55312Y-35683D01*
X55491Y-35563D01*
X55600Y-35401D01*
X55708Y-35563D01*
X55887Y-35683D01*
X56100Y-35725D01*
X56312Y-35683D01*
X56491Y-35563D01*
X56600Y-35401D01*
X56708Y-35563D01*
X56887Y-35683D01*
X57100Y-35725D01*
X57312Y-35683D01*
X57491Y-35563D01*
X57600Y-35401D01*
X57708Y-35563D01*
X57887Y-35683D01*
X58100Y-35725D01*
X58312Y-35683D01*
X58491Y-35563D01*
X58600Y-35401D01*
X58708Y-35563D01*
X58887Y-35683D01*
X59100Y-35725D01*
X59312Y-35683D01*
X59491Y-35563D01*
X59600Y-35401D01*
X59708Y-35563D01*
X59887Y-35683D01*
X60100Y-35725D01*
X60312Y-35683D01*
X60491Y-35563D01*
X60600Y-35401D01*
X60708Y-35563D01*
X60887Y-35683D01*
X61100Y-35725D01*
X61312Y-35683D01*
X61491Y-35563D01*
X61600Y-35401D01*
X61708Y-35563D01*
X61887Y-35683D01*
X62100Y-35725D01*
X62312Y-35683D01*
X62491Y-35563D01*
X62600Y-35401D01*
X62708Y-35563D01*
X62887Y-35683D01*
X63100Y-35725D01*
X63312Y-35683D01*
X63491Y-35563D01*
X63600Y-35401D01*
X63708Y-35563D01*
X63887Y-35683D01*
X64100Y-35725D01*
X64312Y-35683D01*
X64491Y-35563D01*
X64600Y-35401D01*
X64708Y-35563D01*
X64887Y-35683D01*
X65100Y-35725D01*
X65312Y-35683D01*
X65491Y-35563D01*
X65600Y-35401D01*
X65708Y-35563D01*
X65887Y-35683D01*
X66100Y-35725D01*
X66312Y-35683D01*
X66491Y-35563D01*
X66612Y-35383D01*
X66654Y-35171D01*
X66654Y-45670D01*
X64016Y-43033D01*
X63996Y-43013D01*
X63915Y-42959D01*
X63820Y-42940D01*
X63724Y-42959D01*
X63722Y-42960D01*
X62930Y-42960D01*
X62930Y-38310D01*
X62884Y-38200D01*
X62800Y-38115D01*
X62689Y-38070D01*
X62683Y-38070D01*
X62156Y-37543D01*
X62075Y-37489D01*
X61980Y-37470D01*
X59854Y-37470D01*
X59850Y-37465D01*
X59739Y-37420D01*
X59620Y-37419D01*
X59510Y-37465D01*
X59425Y-37549D01*
X59380Y-37660D01*
X59379Y-37779D01*
X59425Y-37889D01*
X59509Y-37974D01*
X59610Y-38015D01*
X59609Y-38129D01*
X59655Y-38239D01*
X59739Y-38324D01*
X59850Y-38369D01*
X59969Y-38370D01*
X60079Y-38324D01*
X60084Y-38320D01*
X61166Y-38320D01*
X61630Y-38783D01*
X61630Y-39753D01*
X61590Y-39850D01*
X61589Y-39969D01*
X61635Y-40079D01*
X61719Y-40164D01*
X61830Y-40209D01*
X61949Y-40210D01*
X62059Y-40164D01*
X62144Y-40080D01*
X62189Y-39969D01*
X62190Y-39850D01*
X62144Y-39740D01*
X62130Y-39725D01*
X62130Y-38680D01*
X62110Y-38584D01*
X62110Y-38584D01*
X62089Y-38551D01*
X62056Y-38503D01*
X62056Y-38503D01*
X61523Y-37970D01*
X61876Y-37970D01*
X62329Y-38423D01*
X62329Y-38429D01*
X62375Y-38539D01*
X62459Y-38624D01*
X62570Y-38669D01*
X62689Y-38670D01*
X62799Y-38624D01*
X62884Y-38540D01*
X62929Y-38429D01*
X62930Y-38310D01*
X62930Y-42960D01*
X58464Y-42960D01*
X58450Y-42945D01*
X58339Y-42900D01*
X58254Y-42899D01*
X58254Y-36704D01*
X58208Y-36594D01*
X58124Y-36509D01*
X58013Y-36464D01*
X57894Y-36463D01*
X57807Y-36500D01*
X53474Y-36500D01*
X53470Y-36495D01*
X53359Y-36450D01*
X53240Y-36449D01*
X53130Y-36495D01*
X53045Y-36579D01*
X53000Y-36690D01*
X52999Y-36809D01*
X53045Y-36919D01*
X53129Y-37004D01*
X53240Y-37049D01*
X53359Y-37050D01*
X53469Y-37004D01*
X53474Y-37000D01*
X57765Y-37000D01*
X57783Y-37018D01*
X57894Y-37063D01*
X58013Y-37064D01*
X58123Y-37018D01*
X58208Y-36934D01*
X58253Y-36823D01*
X58254Y-36704D01*
X58254Y-42899D01*
X58220Y-42899D01*
X58120Y-42941D01*
X58120Y-37420D01*
X58074Y-37310D01*
X57990Y-37225D01*
X57879Y-37180D01*
X57760Y-37179D01*
X57650Y-37225D01*
X57645Y-37230D01*
X55004Y-37230D01*
X55000Y-37225D01*
X54889Y-37180D01*
X54770Y-37179D01*
X54660Y-37225D01*
X54575Y-37309D01*
X54530Y-37420D01*
X54529Y-37539D01*
X54575Y-37649D01*
X54659Y-37734D01*
X54770Y-37779D01*
X54889Y-37780D01*
X54999Y-37734D01*
X55004Y-37730D01*
X55865Y-37730D01*
X55835Y-37759D01*
X55790Y-37870D01*
X55789Y-37989D01*
X55835Y-38099D01*
X55919Y-38184D01*
X56030Y-38229D01*
X56149Y-38230D01*
X56259Y-38184D01*
X56264Y-38180D01*
X57323Y-38180D01*
X57420Y-38219D01*
X57539Y-38220D01*
X57649Y-38174D01*
X57734Y-38090D01*
X57779Y-37979D01*
X57780Y-37860D01*
X57743Y-37773D01*
X57760Y-37779D01*
X57879Y-37780D01*
X57989Y-37734D01*
X58074Y-37650D01*
X58119Y-37539D01*
X58120Y-37420D01*
X58120Y-42941D01*
X58110Y-42945D01*
X58025Y-43029D01*
X57980Y-43140D01*
X57979Y-43259D01*
X58025Y-43369D01*
X58109Y-43454D01*
X58220Y-43499D01*
X58339Y-43500D01*
X58436Y-43460D01*
X63736Y-43460D01*
X67380Y-47103D01*
X67380Y-48206D01*
X66646Y-48940D01*
X63960Y-48940D01*
X63864Y-48959D01*
X63783Y-49013D01*
X62693Y-50103D01*
X62639Y-50184D01*
X62620Y-50279D01*
X62620Y-50951D01*
X62601Y-50959D01*
X62467Y-51092D01*
X62395Y-51267D01*
X62394Y-51456D01*
X62467Y-51630D01*
X62600Y-51764D01*
X62775Y-51837D01*
X62964Y-51837D01*
X63138Y-51765D01*
X63272Y-51631D01*
X63344Y-51457D01*
X63345Y-51268D01*
X63272Y-51093D01*
X63139Y-50959D01*
X63120Y-50951D01*
X63120Y-50383D01*
X64063Y-49440D01*
X66750Y-49440D01*
X66845Y-49420D01*
X66926Y-49366D01*
X67806Y-48486D01*
X67860Y-48405D01*
X67880Y-48310D01*
X67880Y-51269D01*
X67724Y-51239D01*
X67533Y-51277D01*
X67370Y-51385D01*
X67262Y-51547D01*
X67224Y-51739D01*
X67224Y-52166D01*
X67262Y-52357D01*
X67370Y-52520D01*
X67533Y-52628D01*
X67724Y-52666D01*
X67915Y-52628D01*
X68077Y-52520D01*
X68186Y-52357D01*
X68224Y-52166D01*
X68262Y-52357D01*
X68370Y-52520D01*
X68533Y-52628D01*
X68724Y-52666D01*
X68915Y-52628D01*
X69077Y-52520D01*
X69186Y-52357D01*
X69224Y-52166D01*
X69262Y-52357D01*
X69370Y-52520D01*
X69533Y-52628D01*
X69724Y-52666D01*
X69915Y-52628D01*
X70077Y-52520D01*
X70186Y-52357D01*
X70199Y-52289D01*
X70235Y-52409D01*
X70370Y-52577D01*
X70560Y-52680D01*
X70589Y-52685D01*
X70674Y-52637D01*
X70674Y-52925D01*
X70555Y-52924D01*
X70381Y-52997D01*
X70247Y-53130D01*
X70175Y-53305D01*
X70174Y-53494D01*
X70247Y-53668D01*
X70380Y-53802D01*
X70555Y-53874D01*
X70744Y-53875D01*
X70918Y-53802D01*
X71052Y-53669D01*
X71124Y-53494D01*
X71125Y-53305D01*
X71125Y-55162D01*
X71110Y-55127D01*
X71017Y-55102D01*
X70947Y-55173D01*
X70947Y-55032D01*
X70922Y-54939D01*
X70725Y-54870D01*
X70517Y-54881D01*
X70377Y-54939D01*
X70352Y-55032D01*
X70650Y-55329D01*
X70947Y-55032D01*
X70947Y-55173D01*
X70720Y-55400D01*
X71017Y-55697D01*
X71110Y-55672D01*
X71179Y-55475D01*
X71179Y-55850D01*
X70925Y-55850D01*
X70947Y-55767D01*
X70650Y-55470D01*
X70579Y-55541D01*
X70579Y-55400D01*
X70282Y-55102D01*
X70189Y-55127D01*
X70120Y-55324D01*
X70131Y-55532D01*
X70189Y-55672D01*
X70282Y-55697D01*
X70579Y-55400D01*
X70579Y-55541D01*
X70352Y-55767D01*
X70374Y-55850D01*
X67804Y-55850D01*
X67918Y-55802D01*
X68052Y-55669D01*
X68124Y-55494D01*
X68125Y-55305D01*
X68125Y-53305D01*
X68052Y-53131D01*
X67919Y-52997D01*
X67744Y-52925D01*
X67555Y-52924D01*
X67381Y-52997D01*
X67247Y-53130D01*
X67175Y-53305D01*
X67174Y-53494D01*
X67247Y-53668D01*
X67380Y-53802D01*
X67555Y-53874D01*
X67744Y-53875D01*
X67918Y-53802D01*
X68052Y-53669D01*
X68124Y-53494D01*
X68125Y-53305D01*
X68125Y-55305D01*
X68052Y-55131D01*
X67919Y-54997D01*
X67744Y-54925D01*
X67555Y-54924D01*
X67381Y-54997D01*
X67247Y-55130D01*
X67175Y-55305D01*
X67174Y-55494D01*
X67247Y-55668D01*
X67380Y-55802D01*
X67495Y-55850D01*
X66345Y-55850D01*
X66345Y-53268D01*
X66345Y-51268D01*
X66272Y-51093D01*
X66139Y-50959D01*
X65964Y-50887D01*
X65776Y-50887D01*
X65601Y-50959D01*
X65467Y-51092D01*
X65395Y-51267D01*
X65394Y-51456D01*
X65467Y-51630D01*
X65600Y-51764D01*
X65775Y-51837D01*
X65964Y-51837D01*
X66138Y-51765D01*
X66272Y-51631D01*
X66344Y-51457D01*
X66345Y-51268D01*
X66345Y-53268D01*
X66272Y-53093D01*
X66139Y-52959D01*
X65964Y-52887D01*
X65776Y-52887D01*
X65601Y-52959D01*
X65467Y-53092D01*
X65395Y-53267D01*
X65394Y-53456D01*
X65467Y-53630D01*
X65600Y-53764D01*
X65775Y-53837D01*
X65964Y-53837D01*
X66138Y-53765D01*
X66272Y-53631D01*
X66344Y-53457D01*
X66345Y-53268D01*
X66345Y-55850D01*
X63399Y-55850D01*
X63399Y-53438D01*
X63388Y-53229D01*
X63330Y-53089D01*
X63237Y-53065D01*
X63167Y-53135D01*
X63167Y-52994D01*
X63142Y-52901D01*
X62945Y-52832D01*
X62737Y-52843D01*
X62597Y-52901D01*
X62572Y-52994D01*
X62870Y-53291D01*
X63167Y-52994D01*
X63167Y-53135D01*
X62940Y-53362D01*
X63237Y-53659D01*
X63330Y-53635D01*
X63399Y-53438D01*
X63399Y-55850D01*
X63167Y-55850D01*
X63167Y-53729D01*
X62870Y-53432D01*
X62799Y-53503D01*
X62799Y-53362D01*
X62502Y-53065D01*
X62409Y-53089D01*
X62340Y-53286D01*
X62351Y-53494D01*
X62409Y-53635D01*
X62502Y-53659D01*
X62799Y-53362D01*
X62799Y-53503D01*
X62572Y-53729D01*
X62597Y-53822D01*
X62794Y-53892D01*
X63002Y-53880D01*
X63142Y-53822D01*
X63167Y-53729D01*
X63167Y-55850D01*
X61199Y-55850D01*
X61199Y-51759D01*
X61051Y-51401D01*
X60777Y-51126D01*
X60419Y-50977D01*
X60031Y-50977D01*
X59672Y-51125D01*
X59398Y-51399D01*
X59249Y-51757D01*
X59249Y-52145D01*
X59397Y-52504D01*
X59671Y-52778D01*
X60029Y-52927D01*
X60417Y-52927D01*
X60775Y-52779D01*
X61050Y-52505D01*
X61199Y-52147D01*
X61199Y-51759D01*
X61199Y-55850D01*
X59061Y-55850D01*
X59061Y-53268D01*
X59061Y-51268D01*
X58989Y-51093D01*
X58856Y-50959D01*
X58681Y-50887D01*
X58492Y-50887D01*
X58317Y-50959D01*
X58184Y-51092D01*
X58111Y-51267D01*
X58111Y-51456D01*
X58183Y-51630D01*
X58317Y-51764D01*
X58491Y-51837D01*
X58680Y-51837D01*
X58855Y-51765D01*
X58989Y-51631D01*
X59061Y-51457D01*
X59061Y-51268D01*
X59061Y-53268D01*
X58989Y-53093D01*
X58856Y-52959D01*
X58681Y-52887D01*
X58492Y-52887D01*
X58317Y-52959D01*
X58184Y-53092D01*
X58111Y-53267D01*
X58111Y-53456D01*
X58183Y-53630D01*
X58317Y-53764D01*
X58491Y-53837D01*
X58680Y-53837D01*
X58855Y-53765D01*
X58989Y-53631D01*
X59061Y-53457D01*
X59061Y-53268D01*
X59061Y-55850D01*
X56116Y-55850D01*
X56116Y-53438D01*
X56105Y-53229D01*
X56061Y-53124D01*
X56061Y-51268D01*
X55989Y-51093D01*
X55856Y-50959D01*
X55681Y-50887D01*
X55492Y-50887D01*
X55317Y-50959D01*
X55184Y-51092D01*
X55111Y-51267D01*
X55111Y-51456D01*
X55183Y-51630D01*
X55317Y-51764D01*
X55491Y-51837D01*
X55680Y-51837D01*
X55855Y-51765D01*
X55989Y-51631D01*
X56061Y-51457D01*
X56061Y-51268D01*
X56061Y-53124D01*
X56047Y-53089D01*
X55954Y-53065D01*
X55883Y-53135D01*
X55883Y-52994D01*
X55859Y-52901D01*
X55662Y-52832D01*
X55453Y-52843D01*
X55313Y-52901D01*
X55289Y-52994D01*
X55586Y-53291D01*
X55883Y-52994D01*
X55883Y-53135D01*
X55657Y-53362D01*
X55954Y-53659D01*
X56047Y-53635D01*
X56116Y-53438D01*
X56116Y-55850D01*
X55883Y-55850D01*
X55883Y-53729D01*
X55586Y-53432D01*
X55515Y-53503D01*
X55515Y-53362D01*
X55218Y-53065D01*
X55126Y-53089D01*
X55056Y-53286D01*
X55068Y-53494D01*
X55126Y-53635D01*
X55218Y-53659D01*
X55515Y-53362D01*
X55515Y-53503D01*
X55289Y-53729D01*
X55313Y-53822D01*
X55510Y-53892D01*
X55719Y-53880D01*
X55859Y-53822D01*
X55883Y-53729D01*
X55883Y-55850D01*
X54534Y-55850D01*
X54534Y-55039D01*
X54534Y-53039D01*
X54534Y-51496D01*
X54534Y-49496D01*
X54461Y-49321D01*
X54328Y-49188D01*
X54153Y-49115D01*
X53964Y-49115D01*
X53790Y-49187D01*
X53656Y-49321D01*
X53584Y-49495D01*
X53583Y-49684D01*
X53656Y-49859D01*
X53789Y-49993D01*
X53964Y-50065D01*
X54153Y-50065D01*
X54327Y-49993D01*
X54461Y-49859D01*
X54533Y-49685D01*
X54534Y-49496D01*
X54534Y-51496D01*
X54461Y-51321D01*
X54328Y-51188D01*
X54153Y-51115D01*
X53964Y-51115D01*
X53790Y-51187D01*
X53656Y-51321D01*
X53584Y-51495D01*
X53583Y-51684D01*
X53656Y-51859D01*
X53789Y-51993D01*
X53964Y-52065D01*
X54153Y-52065D01*
X54327Y-51993D01*
X54461Y-51859D01*
X54533Y-51685D01*
X54534Y-51496D01*
X54534Y-53039D01*
X54461Y-52865D01*
X54328Y-52731D01*
X54153Y-52658D01*
X53964Y-52658D01*
X53790Y-52730D01*
X53656Y-52864D01*
X53584Y-53038D01*
X53583Y-53227D01*
X53656Y-53402D01*
X53789Y-53536D01*
X53964Y-53608D01*
X54153Y-53608D01*
X54327Y-53536D01*
X54461Y-53403D01*
X54533Y-53228D01*
X54534Y-53039D01*
X54534Y-55039D01*
X54461Y-54865D01*
X54328Y-54731D01*
X54153Y-54658D01*
X53964Y-54658D01*
X53790Y-54730D01*
X53656Y-54864D01*
X53584Y-55038D01*
X53583Y-55227D01*
X53656Y-55402D01*
X53789Y-55536D01*
X53964Y-55608D01*
X54153Y-55608D01*
X54327Y-55536D01*
X54461Y-55403D01*
X54533Y-55228D01*
X54534Y-55039D01*
X54534Y-55850D01*
X51588Y-55850D01*
X51588Y-55209D01*
X51588Y-51666D01*
X51577Y-51457D01*
X51534Y-51352D01*
X51534Y-49496D01*
X51461Y-49321D01*
X51328Y-49188D01*
X51153Y-49115D01*
X51050Y-49115D01*
X51050Y-35696D01*
X51050Y-35050D01*
X51050Y-34950D01*
X51050Y-34303D01*
X50956Y-34255D01*
X50914Y-34265D01*
X50708Y-34379D01*
X50560Y-34565D01*
X50495Y-34792D01*
X50495Y-34950D01*
X51050Y-34950D01*
X51050Y-35050D01*
X50495Y-35050D01*
X50495Y-35207D01*
X50560Y-35434D01*
X50708Y-35620D01*
X50914Y-35734D01*
X50956Y-35744D01*
X51050Y-35696D01*
X51050Y-49115D01*
X50964Y-49115D01*
X50790Y-49187D01*
X50656Y-49321D01*
X50584Y-49495D01*
X50583Y-49684D01*
X50656Y-49859D01*
X50789Y-49993D01*
X50964Y-50065D01*
X51153Y-50065D01*
X51327Y-49993D01*
X51461Y-49859D01*
X51533Y-49685D01*
X51534Y-49496D01*
X51534Y-51352D01*
X51519Y-51317D01*
X51426Y-51293D01*
X51356Y-51364D01*
X51356Y-51222D01*
X51331Y-51130D01*
X51134Y-51060D01*
X50926Y-51071D01*
X50786Y-51130D01*
X50761Y-51222D01*
X51059Y-51519D01*
X51356Y-51222D01*
X51356Y-51364D01*
X51129Y-51590D01*
X51426Y-51887D01*
X51519Y-51863D01*
X51588Y-51666D01*
X51588Y-55209D01*
X51577Y-55001D01*
X51534Y-54896D01*
X51534Y-53039D01*
X51461Y-52865D01*
X51356Y-52759D01*
X51356Y-51958D01*
X51059Y-51661D01*
X50988Y-51731D01*
X50988Y-51590D01*
X50691Y-51293D01*
X50598Y-51317D01*
X50529Y-51514D01*
X50540Y-51723D01*
X50598Y-51863D01*
X50691Y-51887D01*
X50988Y-51590D01*
X50988Y-51731D01*
X50761Y-51958D01*
X50786Y-52051D01*
X50983Y-52120D01*
X51191Y-52109D01*
X51331Y-52051D01*
X51356Y-51958D01*
X51356Y-52759D01*
X51328Y-52731D01*
X51153Y-52658D01*
X50964Y-52658D01*
X50790Y-52730D01*
X50656Y-52864D01*
X50584Y-53038D01*
X50583Y-53227D01*
X50656Y-53402D01*
X50789Y-53536D01*
X50964Y-53608D01*
X51153Y-53608D01*
X51327Y-53536D01*
X51461Y-53403D01*
X51533Y-53228D01*
X51534Y-53039D01*
X51534Y-54896D01*
X51519Y-54861D01*
X51426Y-54836D01*
X51356Y-54907D01*
X51356Y-54766D01*
X51331Y-54673D01*
X51134Y-54603D01*
X50926Y-54615D01*
X50786Y-54673D01*
X50761Y-54766D01*
X51059Y-55063D01*
X51356Y-54766D01*
X51356Y-54907D01*
X51129Y-55133D01*
X51426Y-55430D01*
X51519Y-55406D01*
X51588Y-55209D01*
X51588Y-55850D01*
X51356Y-55850D01*
X51356Y-55501D01*
X51059Y-55204D01*
X50988Y-55275D01*
X50988Y-55133D01*
X50691Y-54836D01*
X50598Y-54861D01*
X50529Y-55058D01*
X50540Y-55266D01*
X50598Y-55406D01*
X50691Y-55430D01*
X50988Y-55133D01*
X50988Y-55275D01*
X50761Y-55501D01*
X50786Y-55594D01*
X50983Y-55663D01*
X51191Y-55652D01*
X51331Y-55594D01*
X51356Y-55501D01*
X51356Y-55850D01*
X50203Y-55850D01*
X50203Y-53268D01*
X50203Y-51268D01*
X50131Y-51093D01*
X49997Y-50959D01*
X49823Y-50887D01*
X49725Y-50887D01*
X49725Y-47048D01*
X49725Y-34843D01*
X49605Y-34552D01*
X49383Y-34330D01*
X49092Y-34209D01*
X48778Y-34209D01*
X48487Y-34329D01*
X48265Y-34551D01*
X48144Y-34842D01*
X48144Y-35156D01*
X48264Y-35447D01*
X48486Y-35669D01*
X48777Y-35790D01*
X49091Y-35790D01*
X49382Y-35670D01*
X49604Y-35448D01*
X49725Y-35157D01*
X49725Y-34843D01*
X49725Y-47048D01*
X49605Y-46757D01*
X49383Y-46535D01*
X49092Y-46414D01*
X48778Y-46414D01*
X48487Y-46534D01*
X48265Y-46756D01*
X48144Y-47047D01*
X48144Y-47361D01*
X48264Y-47652D01*
X48486Y-47874D01*
X48777Y-47995D01*
X49091Y-47995D01*
X49382Y-47875D01*
X49604Y-47653D01*
X49725Y-47362D01*
X49725Y-47048D01*
X49725Y-50887D01*
X49634Y-50887D01*
X49459Y-50959D01*
X49325Y-51092D01*
X49253Y-51267D01*
X49253Y-51456D01*
X49325Y-51630D01*
X49458Y-51764D01*
X49633Y-51837D01*
X49822Y-51837D01*
X49997Y-51765D01*
X50130Y-51631D01*
X50203Y-51457D01*
X50203Y-51268D01*
X50203Y-53268D01*
X50131Y-53093D01*
X49997Y-52959D01*
X49823Y-52887D01*
X49634Y-52887D01*
X49459Y-52959D01*
X49325Y-53092D01*
X49253Y-53267D01*
X49253Y-53456D01*
X49325Y-53630D01*
X49458Y-53764D01*
X49633Y-53837D01*
X49822Y-53837D01*
X49997Y-53765D01*
X50130Y-53631D01*
X50203Y-53457D01*
X50203Y-53268D01*
X50203Y-55850D01*
X47258Y-55850D01*
X47258Y-53438D01*
X47246Y-53229D01*
X47203Y-53124D01*
X47203Y-51268D01*
X47131Y-51093D01*
X46997Y-50959D01*
X46884Y-50912D01*
X46824Y-50872D01*
X46728Y-50853D01*
X46632Y-50872D01*
X46572Y-50912D01*
X46459Y-50959D01*
X46325Y-51092D01*
X46253Y-51267D01*
X46253Y-51456D01*
X46325Y-51630D01*
X46458Y-51764D01*
X46633Y-51837D01*
X46822Y-51837D01*
X46997Y-51765D01*
X47130Y-51631D01*
X47203Y-51457D01*
X47203Y-51268D01*
X47203Y-53124D01*
X47188Y-53089D01*
X47096Y-53065D01*
X47025Y-53135D01*
X47025Y-52994D01*
X47001Y-52901D01*
X46804Y-52832D01*
X46595Y-52843D01*
X46455Y-52901D01*
X46431Y-52994D01*
X46728Y-53291D01*
X47025Y-52994D01*
X47025Y-53135D01*
X46799Y-53362D01*
X47096Y-53659D01*
X47188Y-53635D01*
X47258Y-53438D01*
X47258Y-55850D01*
X47025Y-55850D01*
X47025Y-53729D01*
X46728Y-53432D01*
X46657Y-53503D01*
X46657Y-53362D01*
X46360Y-53065D01*
X46267Y-53089D01*
X46198Y-53286D01*
X46209Y-53494D01*
X46267Y-53635D01*
X46360Y-53659D01*
X46657Y-53362D01*
X46657Y-53503D01*
X46431Y-53729D01*
X46455Y-53822D01*
X46652Y-53892D01*
X46861Y-53880D01*
X47001Y-53822D01*
X47025Y-53729D01*
X47025Y-55850D01*
X45750Y-55850D01*
X45750Y-32350D01*
X59948Y-32350D01*
X59898Y-32399D01*
X59749Y-32757D01*
X59749Y-33145D01*
X59897Y-33504D01*
X60171Y-33778D01*
X60529Y-33927D01*
X60917Y-33927D01*
X61275Y-33779D01*
X61550Y-33505D01*
X61646Y-33275D01*
X61662Y-33357D01*
X61770Y-33520D01*
X61933Y-33628D01*
X62124Y-33666D01*
X62315Y-33628D01*
X62477Y-33520D01*
X62586Y-33357D01*
X62624Y-33166D01*
X62662Y-33357D01*
X62770Y-33520D01*
X62933Y-33628D01*
X63124Y-33666D01*
X63315Y-33628D01*
X63477Y-33520D01*
X63586Y-33357D01*
X63624Y-33166D01*
X63662Y-33357D01*
X63770Y-33520D01*
X63933Y-33628D01*
X64124Y-33666D01*
X64315Y-33628D01*
X64477Y-33520D01*
X64586Y-33357D01*
X64624Y-33166D01*
X64662Y-33357D01*
X64770Y-33520D01*
X64933Y-33628D01*
X65124Y-33666D01*
X65315Y-33628D01*
X65477Y-33520D01*
X65586Y-33357D01*
X65624Y-33166D01*
X65662Y-33357D01*
X65770Y-33520D01*
X65933Y-33628D01*
X66124Y-33666D01*
X66315Y-33628D01*
X66477Y-33520D01*
X66586Y-33357D01*
X66624Y-33166D01*
X66662Y-33357D01*
X66770Y-33520D01*
X66933Y-33628D01*
X67124Y-33666D01*
X67315Y-33628D01*
X67477Y-33520D01*
X67586Y-33357D01*
X67624Y-33166D01*
X67662Y-33357D01*
X67770Y-33520D01*
X67933Y-33628D01*
X68124Y-33666D01*
X68315Y-33628D01*
X68477Y-33520D01*
X68586Y-33357D01*
X68624Y-33166D01*
X68662Y-33357D01*
X68770Y-33520D01*
X68933Y-33628D01*
X69124Y-33666D01*
X69315Y-33628D01*
X69477Y-33520D01*
X69586Y-33357D01*
X69624Y-33166D01*
X69662Y-33357D01*
X69770Y-33520D01*
X69933Y-33628D01*
X70124Y-33666D01*
X70315Y-33628D01*
X70477Y-33520D01*
X70586Y-33357D01*
X70624Y-33166D01*
X70662Y-33357D01*
X70770Y-33520D01*
X70933Y-33628D01*
X71124Y-33666D01*
X71315Y-33628D01*
X71477Y-33520D01*
X71586Y-33357D01*
X71624Y-33166D01*
X71624Y-32739D01*
X71586Y-32547D01*
X71477Y-32385D01*
X71424Y-32350D01*
X72423Y-32350D01*
X72370Y-32385D01*
X72262Y-32547D01*
X72224Y-32739D01*
X72224Y-33166D01*
X72262Y-33357D01*
X72370Y-33520D01*
X72533Y-33628D01*
X72724Y-33666D01*
X72915Y-33628D01*
X73077Y-33520D01*
X73186Y-33357D01*
X73224Y-33166D01*
X73262Y-33357D01*
X73370Y-33520D01*
X73533Y-33628D01*
X73724Y-33666D01*
X73915Y-33628D01*
X74077Y-33520D01*
X74186Y-33357D01*
X74224Y-33166D01*
X74262Y-33357D01*
X74370Y-33520D01*
X74533Y-33628D01*
X74724Y-33666D01*
X74915Y-33628D01*
X75077Y-33520D01*
X75186Y-33357D01*
X75224Y-33166D01*
X75262Y-33357D01*
X75370Y-33520D01*
X75533Y-33628D01*
X75724Y-33666D01*
X75915Y-33628D01*
X76077Y-33520D01*
X76186Y-33357D01*
X76224Y-33166D01*
X76262Y-33357D01*
X76370Y-33520D01*
X76533Y-33628D01*
X76724Y-33666D01*
X76915Y-33628D01*
X77077Y-33520D01*
X77186Y-33357D01*
X77224Y-33166D01*
X77262Y-33357D01*
X77370Y-33520D01*
X77533Y-33628D01*
X77724Y-33666D01*
X77915Y-33628D01*
X78077Y-33520D01*
X78186Y-33357D01*
X78224Y-33166D01*
X78262Y-33357D01*
X78370Y-33520D01*
X78533Y-33628D01*
X78724Y-33666D01*
X78915Y-33628D01*
X79077Y-33520D01*
X79186Y-33357D01*
X79224Y-33166D01*
X79262Y-33357D01*
X79370Y-33520D01*
X79533Y-33628D01*
X79724Y-33666D01*
X79750Y-33661D01*
X79750Y-38756D01*
X79749Y-38757D01*
X79749Y-39145D01*
X79750Y-39147D01*
X79750Y-49756D01*
X79749Y-49757D01*
X79749Y-50145D01*
X79750Y-50147D01*
X79750Y-51214D01*
X79252Y-50717D01*
X79252Y-47048D01*
X79252Y-34843D01*
X79132Y-34552D01*
X78910Y-34330D01*
X78619Y-34209D01*
X78305Y-34209D01*
X78014Y-34329D01*
X77792Y-34551D01*
X77671Y-34842D01*
X77671Y-35156D01*
X77791Y-35447D01*
X78013Y-35669D01*
X78304Y-35790D01*
X78618Y-35790D01*
X78909Y-35670D01*
X79131Y-35448D01*
X79252Y-35157D01*
X79252Y-34843D01*
X79252Y-47048D01*
X79132Y-46757D01*
X78910Y-46535D01*
X78619Y-46414D01*
X78305Y-46414D01*
X78014Y-46534D01*
X77792Y-46756D01*
X77671Y-47047D01*
X77671Y-47361D01*
X77791Y-47652D01*
X78013Y-47874D01*
X78304Y-47995D01*
X78618Y-47995D01*
X78909Y-47875D01*
X79131Y-47653D01*
X79252Y-47362D01*
X79252Y-47048D01*
X79252Y-50717D01*
X74748Y-46212D01*
X74748Y-46206D01*
X74702Y-46096D01*
X74618Y-46011D01*
X74507Y-45966D01*
X74388Y-45965D01*
X74278Y-46011D01*
X74193Y-46095D01*
X74148Y-46206D01*
X74147Y-46325D01*
X74193Y-46435D01*
X74229Y-46471D01*
X74177Y-46450D01*
X74058Y-46449D01*
X73948Y-46495D01*
X73863Y-46579D01*
X73818Y-46690D01*
X73817Y-46809D01*
X73863Y-46919D01*
X73947Y-47004D01*
X74058Y-47049D01*
X74064Y-47049D01*
X78388Y-51373D01*
X78370Y-51385D01*
X78262Y-51547D01*
X78224Y-51739D01*
X78186Y-51547D01*
X78077Y-51385D01*
X77915Y-51277D01*
X77724Y-51239D01*
X77533Y-51277D01*
X77370Y-51385D01*
X77262Y-51547D01*
X77224Y-51739D01*
X77186Y-51547D01*
X77077Y-51385D01*
X76915Y-51277D01*
X76724Y-51239D01*
X76533Y-51277D01*
X76370Y-51385D01*
X76262Y-51547D01*
X76224Y-51739D01*
X76186Y-51547D01*
X76077Y-51385D01*
X75915Y-51277D01*
X75724Y-51239D01*
X75533Y-51277D01*
X75370Y-51385D01*
X75262Y-51547D01*
X75224Y-51739D01*
X75186Y-51547D01*
X75077Y-51385D01*
X74915Y-51277D01*
X74724Y-51239D01*
X74533Y-51277D01*
X74370Y-51385D01*
X74262Y-51547D01*
X74224Y-51739D01*
X74224Y-52166D01*
X74262Y-52357D01*
X74370Y-52520D01*
X74533Y-52628D01*
X74724Y-52666D01*
X74915Y-52628D01*
X75077Y-52520D01*
X75186Y-52357D01*
X75224Y-52166D01*
X75262Y-52357D01*
X75370Y-52520D01*
X75533Y-52628D01*
X75724Y-52666D01*
X75915Y-52628D01*
X76077Y-52520D01*
X76186Y-52357D01*
X76224Y-52166D01*
X76262Y-52357D01*
X76370Y-52520D01*
X76533Y-52628D01*
X76724Y-52666D01*
X76915Y-52628D01*
X77077Y-52520D01*
X77186Y-52357D01*
X77224Y-52166D01*
X77262Y-52357D01*
X77370Y-52520D01*
X77533Y-52628D01*
X77724Y-52666D01*
X77915Y-52628D01*
X78077Y-52520D01*
X78186Y-52357D01*
X78224Y-52166D01*
X78262Y-52357D01*
X78370Y-52520D01*
X78533Y-52628D01*
X78724Y-52666D01*
X78915Y-52628D01*
X79077Y-52520D01*
X79186Y-52357D01*
X79224Y-52166D01*
X79262Y-52357D01*
X79370Y-52520D01*
X79533Y-52628D01*
X79724Y-52666D01*
X79750Y-52661D01*
X79750Y-55850D01*
X79750Y-55850D01*
G37*
X79750Y-55850D02*
X77828Y-55850D01*
X77828Y-53369D01*
X77818Y-53113D01*
X77739Y-52921D01*
X77634Y-52882D01*
X77563Y-52953D01*
X77563Y-52811D01*
X77524Y-52706D01*
X77284Y-52617D01*
X77028Y-52627D01*
X76836Y-52706D01*
X76797Y-52811D01*
X77180Y-53195D01*
X77563Y-52811D01*
X77563Y-52953D01*
X77250Y-53265D01*
X77634Y-53648D01*
X77739Y-53609D01*
X77828Y-53369D01*
X77828Y-55850D01*
X77774Y-55850D01*
X77774Y-55116D01*
X77683Y-54898D01*
X77563Y-54777D01*
X77563Y-53719D01*
X77180Y-53336D01*
X77109Y-53407D01*
X77109Y-53265D01*
X76726Y-52882D01*
X76621Y-52921D01*
X76532Y-53161D01*
X76541Y-53417D01*
X76621Y-53609D01*
X76726Y-53648D01*
X77109Y-53265D01*
X77109Y-53407D01*
X76797Y-53719D01*
X76836Y-53824D01*
X77076Y-53913D01*
X77332Y-53904D01*
X77524Y-53824D01*
X77563Y-53719D01*
X77563Y-54777D01*
X77516Y-54731D01*
X77298Y-54640D01*
X77062Y-54640D01*
X76844Y-54730D01*
X76789Y-54785D01*
X76789Y-54132D01*
X76699Y-53914D01*
X76532Y-53746D01*
X76314Y-53656D01*
X76078Y-53656D01*
X75860Y-53746D01*
X75692Y-53913D01*
X75602Y-54131D01*
X75602Y-54367D01*
X75692Y-54585D01*
X75859Y-54753D01*
X76077Y-54843D01*
X76313Y-54843D01*
X76531Y-54753D01*
X76699Y-54586D01*
X76789Y-54368D01*
X76789Y-54132D01*
X76789Y-54785D01*
X76677Y-54897D01*
X76586Y-55115D01*
X76586Y-55351D01*
X76676Y-55570D01*
X76843Y-55737D01*
X77061Y-55827D01*
X77297Y-55828D01*
X77516Y-55737D01*
X77683Y-55570D01*
X77773Y-55352D01*
X77774Y-55116D01*
X77774Y-55850D01*
X73224Y-55850D01*
X73224Y-52166D01*
X73224Y-51739D01*
X73186Y-51547D01*
X73077Y-51385D01*
X72915Y-51277D01*
X72724Y-51239D01*
X72533Y-51277D01*
X72370Y-51385D01*
X72262Y-51547D01*
X72248Y-51616D01*
X72213Y-51496D01*
X72077Y-51328D01*
X71888Y-51225D01*
X71859Y-51219D01*
X71780Y-51264D01*
X71780Y-49260D01*
X71734Y-49150D01*
X71730Y-49145D01*
X71730Y-48114D01*
X71734Y-48110D01*
X71779Y-47999D01*
X71780Y-47880D01*
X71734Y-47770D01*
X71650Y-47685D01*
X71539Y-47640D01*
X71420Y-47639D01*
X71310Y-47685D01*
X71225Y-47769D01*
X71180Y-47880D01*
X71179Y-47999D01*
X71225Y-48109D01*
X71230Y-48114D01*
X71230Y-49145D01*
X71225Y-49149D01*
X71180Y-49260D01*
X71179Y-49379D01*
X71225Y-49489D01*
X71309Y-49574D01*
X71420Y-49619D01*
X71539Y-49620D01*
X71649Y-49574D01*
X71734Y-49490D01*
X71779Y-49379D01*
X71780Y-49260D01*
X71780Y-51264D01*
X71774Y-51267D01*
X71774Y-51902D01*
X71782Y-51902D01*
X71782Y-52002D01*
X71774Y-52002D01*
X71774Y-52637D01*
X71859Y-52685D01*
X71888Y-52680D01*
X72077Y-52577D01*
X72213Y-52409D01*
X72248Y-52289D01*
X72262Y-52357D01*
X72370Y-52520D01*
X72533Y-52628D01*
X72724Y-52666D01*
X72915Y-52628D01*
X73077Y-52520D01*
X73186Y-52357D01*
X73224Y-52166D01*
X73224Y-55850D01*
X71674Y-55850D01*
X71674Y-52637D01*
X71674Y-52002D01*
X71674Y-51902D01*
X71674Y-51267D01*
X71589Y-51219D01*
X71560Y-51225D01*
X71370Y-51328D01*
X71235Y-51496D01*
X71224Y-51533D01*
X71213Y-51496D01*
X71077Y-51328D01*
X70888Y-51225D01*
X70859Y-51219D01*
X70774Y-51267D01*
X70774Y-51902D01*
X71174Y-51902D01*
X71274Y-51902D01*
X71674Y-51902D01*
X71674Y-52002D01*
X71274Y-52002D01*
X71174Y-52002D01*
X70774Y-52002D01*
X70774Y-52637D01*
X70859Y-52685D01*
X70888Y-52680D01*
X71077Y-52577D01*
X71213Y-52409D01*
X71224Y-52372D01*
X71235Y-52409D01*
X71370Y-52577D01*
X71560Y-52680D01*
X71589Y-52685D01*
X71674Y-52637D01*
X71674Y-55850D01*
X71179Y-55850D01*
X71179Y-55475D01*
X71168Y-55267D01*
X71125Y-55162D01*
X71125Y-53305D01*
X71052Y-53131D01*
X70919Y-52997D01*
X70744Y-52925D01*
X70674Y-52925D01*
X70674Y-52637D01*
X70674Y-52002D01*
X70666Y-52002D01*
X70666Y-51902D01*
X70674Y-51902D01*
X70674Y-51267D01*
X70589Y-51219D01*
X70560Y-51225D01*
X70370Y-51328D01*
X70235Y-51496D01*
X70199Y-51616D01*
X70186Y-51547D01*
X70077Y-51385D01*
X69915Y-51277D01*
X69724Y-51239D01*
X69533Y-51277D01*
X69370Y-51385D01*
X69262Y-51547D01*
X69224Y-51739D01*
X69220Y-51717D01*
X69220Y-49210D01*
X69174Y-49100D01*
X69170Y-49095D01*
X69170Y-48114D01*
X69174Y-48110D01*
X69219Y-47999D01*
X69220Y-47880D01*
X69174Y-47770D01*
X69090Y-47685D01*
X68979Y-47640D01*
X68860Y-47639D01*
X68750Y-47685D01*
X68665Y-47769D01*
X68620Y-47880D01*
X68619Y-47999D01*
X68665Y-48109D01*
X68670Y-48114D01*
X68670Y-49095D01*
X68665Y-49099D01*
X68620Y-49210D01*
X68619Y-49329D01*
X68665Y-49439D01*
X68749Y-49524D01*
X68860Y-49569D01*
X68979Y-49570D01*
X69089Y-49524D01*
X69174Y-49440D01*
X69219Y-49329D01*
X69220Y-49210D01*
X69220Y-51717D01*
X69186Y-51547D01*
X69077Y-51385D01*
X68915Y-51277D01*
X68724Y-51239D01*
X68533Y-51277D01*
X68370Y-51385D01*
X68262Y-51547D01*
X68224Y-51739D01*
X68186Y-51547D01*
X68077Y-51385D01*
X67915Y-51277D01*
X67880Y-51269D01*
X67880Y-48310D01*
X67880Y-47000D01*
X67860Y-46904D01*
X67860Y-46904D01*
X67806Y-46823D01*
X66654Y-45670D01*
X66654Y-35171D01*
X66654Y-34828D01*
X66612Y-34616D01*
X66491Y-34436D01*
X66312Y-34316D01*
X66100Y-34274D01*
X65887Y-34316D01*
X65708Y-34436D01*
X65600Y-34598D01*
X65491Y-34436D01*
X65312Y-34316D01*
X65100Y-34274D01*
X64887Y-34316D01*
X64708Y-34436D01*
X64600Y-34598D01*
X64491Y-34436D01*
X64312Y-34316D01*
X64100Y-34274D01*
X63887Y-34316D01*
X63708Y-34436D01*
X63600Y-34598D01*
X63491Y-34436D01*
X63312Y-34316D01*
X63100Y-34274D01*
X62887Y-34316D01*
X62708Y-34436D01*
X62600Y-34598D01*
X62491Y-34436D01*
X62312Y-34316D01*
X62100Y-34274D01*
X61887Y-34316D01*
X61708Y-34436D01*
X61600Y-34598D01*
X61491Y-34436D01*
X61312Y-34316D01*
X61100Y-34274D01*
X60887Y-34316D01*
X60708Y-34436D01*
X60600Y-34598D01*
X60491Y-34436D01*
X60312Y-34316D01*
X60100Y-34274D01*
X59887Y-34316D01*
X59708Y-34436D01*
X59600Y-34598D01*
X59491Y-34436D01*
X59312Y-34316D01*
X59100Y-34274D01*
X58887Y-34316D01*
X58708Y-34436D01*
X58600Y-34598D01*
X58491Y-34436D01*
X58312Y-34316D01*
X58100Y-34274D01*
X57887Y-34316D01*
X57708Y-34436D01*
X57600Y-34598D01*
X57491Y-34436D01*
X57312Y-34316D01*
X57100Y-34274D01*
X56887Y-34316D01*
X56708Y-34436D01*
X56600Y-34598D01*
X56491Y-34436D01*
X56312Y-34316D01*
X56100Y-34274D01*
X55887Y-34316D01*
X55708Y-34436D01*
X55600Y-34598D01*
X55491Y-34436D01*
X55312Y-34316D01*
X55100Y-34274D01*
X54887Y-34316D01*
X54708Y-34436D01*
X54600Y-34598D01*
X54491Y-34436D01*
X54312Y-34316D01*
X54100Y-34274D01*
X53887Y-34316D01*
X53708Y-34436D01*
X53600Y-34598D01*
X53491Y-34436D01*
X53312Y-34316D01*
X53100Y-34274D01*
X52887Y-34316D01*
X52708Y-34436D01*
X52600Y-34598D01*
X52491Y-34436D01*
X52312Y-34316D01*
X52100Y-34274D01*
X51887Y-34316D01*
X51810Y-34368D01*
X51783Y-34326D01*
X51701Y-34272D01*
X51606Y-34253D01*
X51510Y-34272D01*
X51429Y-34326D01*
X51420Y-34340D01*
X51285Y-34265D01*
X51243Y-34255D01*
X51150Y-34303D01*
X51150Y-34950D01*
X51157Y-34950D01*
X51157Y-35050D01*
X51150Y-35050D01*
X51150Y-35696D01*
X51243Y-35744D01*
X51285Y-35734D01*
X51491Y-35620D01*
X51629Y-35446D01*
X51708Y-35563D01*
X51887Y-35683D01*
X52100Y-35725D01*
X52312Y-35683D01*
X52491Y-35563D01*
X52600Y-35401D01*
X52708Y-35563D01*
X52887Y-35683D01*
X53100Y-35725D01*
X53312Y-35683D01*
X53491Y-35563D01*
X53600Y-35401D01*
X53708Y-35563D01*
X53887Y-35683D01*
X54100Y-35725D01*
X54312Y-35683D01*
X54491Y-35563D01*
X54600Y-35401D01*
X54708Y-35563D01*
X54887Y-35683D01*
X55100Y-35725D01*
X55312Y-35683D01*
X55491Y-35563D01*
X55600Y-35401D01*
X55708Y-35563D01*
X55887Y-35683D01*
X56100Y-35725D01*
X56312Y-35683D01*
X56491Y-35563D01*
X56600Y-35401D01*
X56708Y-35563D01*
X56887Y-35683D01*
X57100Y-35725D01*
X57312Y-35683D01*
X57491Y-35563D01*
X57600Y-35401D01*
X57708Y-35563D01*
X57887Y-35683D01*
X58100Y-35725D01*
X58312Y-35683D01*
X58491Y-35563D01*
X58600Y-35401D01*
X58708Y-35563D01*
X58887Y-35683D01*
X59100Y-35725D01*
X59312Y-35683D01*
X59491Y-35563D01*
X59600Y-35401D01*
X59708Y-35563D01*
X59887Y-35683D01*
X60100Y-35725D01*
X60312Y-35683D01*
X60491Y-35563D01*
X60600Y-35401D01*
X60708Y-35563D01*
X60887Y-35683D01*
X61100Y-35725D01*
X61312Y-35683D01*
X61491Y-35563D01*
X61600Y-35401D01*
X61708Y-35563D01*
X61887Y-35683D01*
X62100Y-35725D01*
X62312Y-35683D01*
X62491Y-35563D01*
X62600Y-35401D01*
X62708Y-35563D01*
X62887Y-35683D01*
X63100Y-35725D01*
X63312Y-35683D01*
X63491Y-35563D01*
X63600Y-35401D01*
X63708Y-35563D01*
X63887Y-35683D01*
X64100Y-35725D01*
X64312Y-35683D01*
X64491Y-35563D01*
X64600Y-35401D01*
X64708Y-35563D01*
X64887Y-35683D01*
X65100Y-35725D01*
X65312Y-35683D01*
X65491Y-35563D01*
X65600Y-35401D01*
X65708Y-35563D01*
X65887Y-35683D01*
X66100Y-35725D01*
X66312Y-35683D01*
X66491Y-35563D01*
X66612Y-35383D01*
X66654Y-35171D01*
X66654Y-45670D01*
X64016Y-43033D01*
X63996Y-43013D01*
X63915Y-42959D01*
X63820Y-42940D01*
X63724Y-42959D01*
X63722Y-42960D01*
X62930Y-42960D01*
X62930Y-38310D01*
X62884Y-38200D01*
X62800Y-38115D01*
X62689Y-38070D01*
X62683Y-38070D01*
X62156Y-37543D01*
X62075Y-37489D01*
X61980Y-37470D01*
X59854Y-37470D01*
X59850Y-37465D01*
X59739Y-37420D01*
X59620Y-37419D01*
X59510Y-37465D01*
X59425Y-37549D01*
X59380Y-37660D01*
X59379Y-37779D01*
X59425Y-37889D01*
X59509Y-37974D01*
X59610Y-38015D01*
X59609Y-38129D01*
X59655Y-38239D01*
X59739Y-38324D01*
X59850Y-38369D01*
X59969Y-38370D01*
X60079Y-38324D01*
X60084Y-38320D01*
X61166Y-38320D01*
X61630Y-38783D01*
X61630Y-39753D01*
X61590Y-39850D01*
X61589Y-39969D01*
X61635Y-40079D01*
X61719Y-40164D01*
X61830Y-40209D01*
X61949Y-40210D01*
X62059Y-40164D01*
X62144Y-40080D01*
X62189Y-39969D01*
X62190Y-39850D01*
X62144Y-39740D01*
X62130Y-39725D01*
X62130Y-38680D01*
X62110Y-38584D01*
X62110Y-38584D01*
X62089Y-38551D01*
X62056Y-38503D01*
X62056Y-38503D01*
X61523Y-37970D01*
X61876Y-37970D01*
X62329Y-38423D01*
X62329Y-38429D01*
X62375Y-38539D01*
X62459Y-38624D01*
X62570Y-38669D01*
X62689Y-38670D01*
X62799Y-38624D01*
X62884Y-38540D01*
X62929Y-38429D01*
X62930Y-38310D01*
X62930Y-42960D01*
X58464Y-42960D01*
X58450Y-42945D01*
X58339Y-42900D01*
X58254Y-42899D01*
X58254Y-36704D01*
X58208Y-36594D01*
X58124Y-36509D01*
X58013Y-36464D01*
X57894Y-36463D01*
X57807Y-36500D01*
X53474Y-36500D01*
X53470Y-36495D01*
X53359Y-36450D01*
X53240Y-36449D01*
X53130Y-36495D01*
X53045Y-36579D01*
X53000Y-36690D01*
X52999Y-36809D01*
X53045Y-36919D01*
X53129Y-37004D01*
X53240Y-37049D01*
X53359Y-37050D01*
X53469Y-37004D01*
X53474Y-37000D01*
X57765Y-37000D01*
X57783Y-37018D01*
X57894Y-37063D01*
X58013Y-37064D01*
X58123Y-37018D01*
X58208Y-36934D01*
X58253Y-36823D01*
X58254Y-36704D01*
X58254Y-42899D01*
X58220Y-42899D01*
X58120Y-42941D01*
X58120Y-37420D01*
X58074Y-37310D01*
X57990Y-37225D01*
X57879Y-37180D01*
X57760Y-37179D01*
X57650Y-37225D01*
X57645Y-37230D01*
X55004Y-37230D01*
X55000Y-37225D01*
X54889Y-37180D01*
X54770Y-37179D01*
X54660Y-37225D01*
X54575Y-37309D01*
X54530Y-37420D01*
X54529Y-37539D01*
X54575Y-37649D01*
X54659Y-37734D01*
X54770Y-37779D01*
X54889Y-37780D01*
X54999Y-37734D01*
X55004Y-37730D01*
X55865Y-37730D01*
X55835Y-37759D01*
X55790Y-37870D01*
X55789Y-37989D01*
X55835Y-38099D01*
X55919Y-38184D01*
X56030Y-38229D01*
X56149Y-38230D01*
X56259Y-38184D01*
X56264Y-38180D01*
X57323Y-38180D01*
X57420Y-38219D01*
X57539Y-38220D01*
X57649Y-38174D01*
X57734Y-38090D01*
X57779Y-37979D01*
X57780Y-37860D01*
X57743Y-37773D01*
X57760Y-37779D01*
X57879Y-37780D01*
X57989Y-37734D01*
X58074Y-37650D01*
X58119Y-37539D01*
X58120Y-37420D01*
X58120Y-42941D01*
X58110Y-42945D01*
X58025Y-43029D01*
X57980Y-43140D01*
X57979Y-43259D01*
X58025Y-43369D01*
X58109Y-43454D01*
X58220Y-43499D01*
X58339Y-43500D01*
X58436Y-43460D01*
X63736Y-43460D01*
X67380Y-47103D01*
X67380Y-48206D01*
X66646Y-48940D01*
X63960Y-48940D01*
X63864Y-48959D01*
X63783Y-49013D01*
X62693Y-50103D01*
X62639Y-50184D01*
X62620Y-50279D01*
X62620Y-50951D01*
X62601Y-50959D01*
X62467Y-51092D01*
X62395Y-51267D01*
X62394Y-51456D01*
X62467Y-51630D01*
X62600Y-51764D01*
X62775Y-51837D01*
X62964Y-51837D01*
X63138Y-51765D01*
X63272Y-51631D01*
X63344Y-51457D01*
X63345Y-51268D01*
X63272Y-51093D01*
X63139Y-50959D01*
X63120Y-50951D01*
X63120Y-50383D01*
X64063Y-49440D01*
X66750Y-49440D01*
X66845Y-49420D01*
X66926Y-49366D01*
X67806Y-48486D01*
X67860Y-48405D01*
X67880Y-48310D01*
X67880Y-51269D01*
X67724Y-51239D01*
X67533Y-51277D01*
X67370Y-51385D01*
X67262Y-51547D01*
X67224Y-51739D01*
X67224Y-52166D01*
X67262Y-52357D01*
X67370Y-52520D01*
X67533Y-52628D01*
X67724Y-52666D01*
X67915Y-52628D01*
X68077Y-52520D01*
X68186Y-52357D01*
X68224Y-52166D01*
X68262Y-52357D01*
X68370Y-52520D01*
X68533Y-52628D01*
X68724Y-52666D01*
X68915Y-52628D01*
X69077Y-52520D01*
X69186Y-52357D01*
X69224Y-52166D01*
X69262Y-52357D01*
X69370Y-52520D01*
X69533Y-52628D01*
X69724Y-52666D01*
X69915Y-52628D01*
X70077Y-52520D01*
X70186Y-52357D01*
X70199Y-52289D01*
X70235Y-52409D01*
X70370Y-52577D01*
X70560Y-52680D01*
X70589Y-52685D01*
X70674Y-52637D01*
X70674Y-52925D01*
X70555Y-52924D01*
X70381Y-52997D01*
X70247Y-53130D01*
X70175Y-53305D01*
X70174Y-53494D01*
X70247Y-53668D01*
X70380Y-53802D01*
X70555Y-53874D01*
X70744Y-53875D01*
X70918Y-53802D01*
X71052Y-53669D01*
X71124Y-53494D01*
X71125Y-53305D01*
X71125Y-55162D01*
X71110Y-55127D01*
X71017Y-55102D01*
X70947Y-55173D01*
X70947Y-55032D01*
X70922Y-54939D01*
X70725Y-54870D01*
X70517Y-54881D01*
X70377Y-54939D01*
X70352Y-55032D01*
X70650Y-55329D01*
X70947Y-55032D01*
X70947Y-55173D01*
X70720Y-55400D01*
X71017Y-55697D01*
X71110Y-55672D01*
X71179Y-55475D01*
X71179Y-55850D01*
X70925Y-55850D01*
X70947Y-55767D01*
X70650Y-55470D01*
X70579Y-55541D01*
X70579Y-55400D01*
X70282Y-55102D01*
X70189Y-55127D01*
X70120Y-55324D01*
X70131Y-55532D01*
X70189Y-55672D01*
X70282Y-55697D01*
X70579Y-55400D01*
X70579Y-55541D01*
X70352Y-55767D01*
X70374Y-55850D01*
X67804Y-55850D01*
X67918Y-55802D01*
X68052Y-55669D01*
X68124Y-55494D01*
X68125Y-55305D01*
X68125Y-53305D01*
X68052Y-53131D01*
X67919Y-52997D01*
X67744Y-52925D01*
X67555Y-52924D01*
X67381Y-52997D01*
X67247Y-53130D01*
X67175Y-53305D01*
X67174Y-53494D01*
X67247Y-53668D01*
X67380Y-53802D01*
X67555Y-53874D01*
X67744Y-53875D01*
X67918Y-53802D01*
X68052Y-53669D01*
X68124Y-53494D01*
X68125Y-53305D01*
X68125Y-55305D01*
X68052Y-55131D01*
X67919Y-54997D01*
X67744Y-54925D01*
X67555Y-54924D01*
X67381Y-54997D01*
X67247Y-55130D01*
X67175Y-55305D01*
X67174Y-55494D01*
X67247Y-55668D01*
X67380Y-55802D01*
X67495Y-55850D01*
X66345Y-55850D01*
X66345Y-53268D01*
X66345Y-51268D01*
X66272Y-51093D01*
X66139Y-50959D01*
X65964Y-50887D01*
X65776Y-50887D01*
X65601Y-50959D01*
X65467Y-51092D01*
X65395Y-51267D01*
X65394Y-51456D01*
X65467Y-51630D01*
X65600Y-51764D01*
X65775Y-51837D01*
X65964Y-51837D01*
X66138Y-51765D01*
X66272Y-51631D01*
X66344Y-51457D01*
X66345Y-51268D01*
X66345Y-53268D01*
X66272Y-53093D01*
X66139Y-52959D01*
X65964Y-52887D01*
X65776Y-52887D01*
X65601Y-52959D01*
X65467Y-53092D01*
X65395Y-53267D01*
X65394Y-53456D01*
X65467Y-53630D01*
X65600Y-53764D01*
X65775Y-53837D01*
X65964Y-53837D01*
X66138Y-53765D01*
X66272Y-53631D01*
X66344Y-53457D01*
X66345Y-53268D01*
X66345Y-55850D01*
X63399Y-55850D01*
X63399Y-53438D01*
X63388Y-53229D01*
X63330Y-53089D01*
X63237Y-53065D01*
X63167Y-53135D01*
X63167Y-52994D01*
X63142Y-52901D01*
X62945Y-52832D01*
X62737Y-52843D01*
X62597Y-52901D01*
X62572Y-52994D01*
X62870Y-53291D01*
X63167Y-52994D01*
X63167Y-53135D01*
X62940Y-53362D01*
X63237Y-53659D01*
X63330Y-53635D01*
X63399Y-53438D01*
X63399Y-55850D01*
X63167Y-55850D01*
X63167Y-53729D01*
X62870Y-53432D01*
X62799Y-53503D01*
X62799Y-53362D01*
X62502Y-53065D01*
X62409Y-53089D01*
X62340Y-53286D01*
X62351Y-53494D01*
X62409Y-53635D01*
X62502Y-53659D01*
X62799Y-53362D01*
X62799Y-53503D01*
X62572Y-53729D01*
X62597Y-53822D01*
X62794Y-53892D01*
X63002Y-53880D01*
X63142Y-53822D01*
X63167Y-53729D01*
X63167Y-55850D01*
X61199Y-55850D01*
X61199Y-51759D01*
X61051Y-51401D01*
X60777Y-51126D01*
X60419Y-50977D01*
X60031Y-50977D01*
X59672Y-51125D01*
X59398Y-51399D01*
X59249Y-51757D01*
X59249Y-52145D01*
X59397Y-52504D01*
X59671Y-52778D01*
X60029Y-52927D01*
X60417Y-52927D01*
X60775Y-52779D01*
X61050Y-52505D01*
X61199Y-52147D01*
X61199Y-51759D01*
X61199Y-55850D01*
X59061Y-55850D01*
X59061Y-53268D01*
X59061Y-51268D01*
X58989Y-51093D01*
X58856Y-50959D01*
X58681Y-50887D01*
X58492Y-50887D01*
X58317Y-50959D01*
X58184Y-51092D01*
X58111Y-51267D01*
X58111Y-51456D01*
X58183Y-51630D01*
X58317Y-51764D01*
X58491Y-51837D01*
X58680Y-51837D01*
X58855Y-51765D01*
X58989Y-51631D01*
X59061Y-51457D01*
X59061Y-51268D01*
X59061Y-53268D01*
X58989Y-53093D01*
X58856Y-52959D01*
X58681Y-52887D01*
X58492Y-52887D01*
X58317Y-52959D01*
X58184Y-53092D01*
X58111Y-53267D01*
X58111Y-53456D01*
X58183Y-53630D01*
X58317Y-53764D01*
X58491Y-53837D01*
X58680Y-53837D01*
X58855Y-53765D01*
X58989Y-53631D01*
X59061Y-53457D01*
X59061Y-53268D01*
X59061Y-55850D01*
X56116Y-55850D01*
X56116Y-53438D01*
X56105Y-53229D01*
X56061Y-53124D01*
X56061Y-51268D01*
X55989Y-51093D01*
X55856Y-50959D01*
X55681Y-50887D01*
X55492Y-50887D01*
X55317Y-50959D01*
X55184Y-51092D01*
X55111Y-51267D01*
X55111Y-51456D01*
X55183Y-51630D01*
X55317Y-51764D01*
X55491Y-51837D01*
X55680Y-51837D01*
X55855Y-51765D01*
X55989Y-51631D01*
X56061Y-51457D01*
X56061Y-51268D01*
X56061Y-53124D01*
X56047Y-53089D01*
X55954Y-53065D01*
X55883Y-53135D01*
X55883Y-52994D01*
X55859Y-52901D01*
X55662Y-52832D01*
X55453Y-52843D01*
X55313Y-52901D01*
X55289Y-52994D01*
X55586Y-53291D01*
X55883Y-52994D01*
X55883Y-53135D01*
X55657Y-53362D01*
X55954Y-53659D01*
X56047Y-53635D01*
X56116Y-53438D01*
X56116Y-55850D01*
X55883Y-55850D01*
X55883Y-53729D01*
X55586Y-53432D01*
X55515Y-53503D01*
X55515Y-53362D01*
X55218Y-53065D01*
X55126Y-53089D01*
X55056Y-53286D01*
X55068Y-53494D01*
X55126Y-53635D01*
X55218Y-53659D01*
X55515Y-53362D01*
X55515Y-53503D01*
X55289Y-53729D01*
X55313Y-53822D01*
X55510Y-53892D01*
X55719Y-53880D01*
X55859Y-53822D01*
X55883Y-53729D01*
X55883Y-55850D01*
X54534Y-55850D01*
X54534Y-55039D01*
X54534Y-53039D01*
X54534Y-51496D01*
X54534Y-49496D01*
X54461Y-49321D01*
X54328Y-49188D01*
X54153Y-49115D01*
X53964Y-49115D01*
X53790Y-49187D01*
X53656Y-49321D01*
X53584Y-49495D01*
X53583Y-49684D01*
X53656Y-49859D01*
X53789Y-49993D01*
X53964Y-50065D01*
X54153Y-50065D01*
X54327Y-49993D01*
X54461Y-49859D01*
X54533Y-49685D01*
X54534Y-49496D01*
X54534Y-51496D01*
X54461Y-51321D01*
X54328Y-51188D01*
X54153Y-51115D01*
X53964Y-51115D01*
X53790Y-51187D01*
X53656Y-51321D01*
X53584Y-51495D01*
X53583Y-51684D01*
X53656Y-51859D01*
X53789Y-51993D01*
X53964Y-52065D01*
X54153Y-52065D01*
X54327Y-51993D01*
X54461Y-51859D01*
X54533Y-51685D01*
X54534Y-51496D01*
X54534Y-53039D01*
X54461Y-52865D01*
X54328Y-52731D01*
X54153Y-52658D01*
X53964Y-52658D01*
X53790Y-52730D01*
X53656Y-52864D01*
X53584Y-53038D01*
X53583Y-53227D01*
X53656Y-53402D01*
X53789Y-53536D01*
X53964Y-53608D01*
X54153Y-53608D01*
X54327Y-53536D01*
X54461Y-53403D01*
X54533Y-53228D01*
X54534Y-53039D01*
X54534Y-55039D01*
X54461Y-54865D01*
X54328Y-54731D01*
X54153Y-54658D01*
X53964Y-54658D01*
X53790Y-54730D01*
X53656Y-54864D01*
X53584Y-55038D01*
X53583Y-55227D01*
X53656Y-55402D01*
X53789Y-55536D01*
X53964Y-55608D01*
X54153Y-55608D01*
X54327Y-55536D01*
X54461Y-55403D01*
X54533Y-55228D01*
X54534Y-55039D01*
X54534Y-55850D01*
X51588Y-55850D01*
X51588Y-55209D01*
X51588Y-51666D01*
X51577Y-51457D01*
X51534Y-51352D01*
X51534Y-49496D01*
X51461Y-49321D01*
X51328Y-49188D01*
X51153Y-49115D01*
X51050Y-49115D01*
X51050Y-35696D01*
X51050Y-35050D01*
X51050Y-34950D01*
X51050Y-34303D01*
X50956Y-34255D01*
X50914Y-34265D01*
X50708Y-34379D01*
X50560Y-34565D01*
X50495Y-34792D01*
X50495Y-34950D01*
X51050Y-34950D01*
X51050Y-35050D01*
X50495Y-35050D01*
X50495Y-35207D01*
X50560Y-35434D01*
X50708Y-35620D01*
X50914Y-35734D01*
X50956Y-35744D01*
X51050Y-35696D01*
X51050Y-49115D01*
X50964Y-49115D01*
X50790Y-49187D01*
X50656Y-49321D01*
X50584Y-49495D01*
X50583Y-49684D01*
X50656Y-49859D01*
X50789Y-49993D01*
X50964Y-50065D01*
X51153Y-50065D01*
X51327Y-49993D01*
X51461Y-49859D01*
X51533Y-49685D01*
X51534Y-49496D01*
X51534Y-51352D01*
X51519Y-51317D01*
X51426Y-51293D01*
X51356Y-51364D01*
X51356Y-51222D01*
X51331Y-51130D01*
X51134Y-51060D01*
X50926Y-51071D01*
X50786Y-51130D01*
X50761Y-51222D01*
X51059Y-51519D01*
X51356Y-51222D01*
X51356Y-51364D01*
X51129Y-51590D01*
X51426Y-51887D01*
X51519Y-51863D01*
X51588Y-51666D01*
X51588Y-55209D01*
X51577Y-55001D01*
X51534Y-54896D01*
X51534Y-53039D01*
X51461Y-52865D01*
X51356Y-52759D01*
X51356Y-51958D01*
X51059Y-51661D01*
X50988Y-51731D01*
X50988Y-51590D01*
X50691Y-51293D01*
X50598Y-51317D01*
X50529Y-51514D01*
X50540Y-51723D01*
X50598Y-51863D01*
X50691Y-51887D01*
X50988Y-51590D01*
X50988Y-51731D01*
X50761Y-51958D01*
X50786Y-52051D01*
X50983Y-52120D01*
X51191Y-52109D01*
X51331Y-52051D01*
X51356Y-51958D01*
X51356Y-52759D01*
X51328Y-52731D01*
X51153Y-52658D01*
X50964Y-52658D01*
X50790Y-52730D01*
X50656Y-52864D01*
X50584Y-53038D01*
X50583Y-53227D01*
X50656Y-53402D01*
X50789Y-53536D01*
X50964Y-53608D01*
X51153Y-53608D01*
X51327Y-53536D01*
X51461Y-53403D01*
X51533Y-53228D01*
X51534Y-53039D01*
X51534Y-54896D01*
X51519Y-54861D01*
X51426Y-54836D01*
X51356Y-54907D01*
X51356Y-54766D01*
X51331Y-54673D01*
X51134Y-54603D01*
X50926Y-54615D01*
X50786Y-54673D01*
X50761Y-54766D01*
X51059Y-55063D01*
X51356Y-54766D01*
X51356Y-54907D01*
X51129Y-55133D01*
X51426Y-55430D01*
X51519Y-55406D01*
X51588Y-55209D01*
X51588Y-55850D01*
X51356Y-55850D01*
X51356Y-55501D01*
X51059Y-55204D01*
X50988Y-55275D01*
X50988Y-55133D01*
X50691Y-54836D01*
X50598Y-54861D01*
X50529Y-55058D01*
X50540Y-55266D01*
X50598Y-55406D01*
X50691Y-55430D01*
X50988Y-55133D01*
X50988Y-55275D01*
X50761Y-55501D01*
X50786Y-55594D01*
X50983Y-55663D01*
X51191Y-55652D01*
X51331Y-55594D01*
X51356Y-55501D01*
X51356Y-55850D01*
X50203Y-55850D01*
X50203Y-53268D01*
X50203Y-51268D01*
X50131Y-51093D01*
X49997Y-50959D01*
X49823Y-50887D01*
X49725Y-50887D01*
X49725Y-47048D01*
X49725Y-34843D01*
X49605Y-34552D01*
X49383Y-34330D01*
X49092Y-34209D01*
X48778Y-34209D01*
X48487Y-34329D01*
X48265Y-34551D01*
X48144Y-34842D01*
X48144Y-35156D01*
X48264Y-35447D01*
X48486Y-35669D01*
X48777Y-35790D01*
X49091Y-35790D01*
X49382Y-35670D01*
X49604Y-35448D01*
X49725Y-35157D01*
X49725Y-34843D01*
X49725Y-47048D01*
X49605Y-46757D01*
X49383Y-46535D01*
X49092Y-46414D01*
X48778Y-46414D01*
X48487Y-46534D01*
X48265Y-46756D01*
X48144Y-47047D01*
X48144Y-47361D01*
X48264Y-47652D01*
X48486Y-47874D01*
X48777Y-47995D01*
X49091Y-47995D01*
X49382Y-47875D01*
X49604Y-47653D01*
X49725Y-47362D01*
X49725Y-47048D01*
X49725Y-50887D01*
X49634Y-50887D01*
X49459Y-50959D01*
X49325Y-51092D01*
X49253Y-51267D01*
X49253Y-51456D01*
X49325Y-51630D01*
X49458Y-51764D01*
X49633Y-51837D01*
X49822Y-51837D01*
X49997Y-51765D01*
X50130Y-51631D01*
X50203Y-51457D01*
X50203Y-51268D01*
X50203Y-53268D01*
X50131Y-53093D01*
X49997Y-52959D01*
X49823Y-52887D01*
X49634Y-52887D01*
X49459Y-52959D01*
X49325Y-53092D01*
X49253Y-53267D01*
X49253Y-53456D01*
X49325Y-53630D01*
X49458Y-53764D01*
X49633Y-53837D01*
X49822Y-53837D01*
X49997Y-53765D01*
X50130Y-53631D01*
X50203Y-53457D01*
X50203Y-53268D01*
X50203Y-55850D01*
X47258Y-55850D01*
X47258Y-53438D01*
X47246Y-53229D01*
X47203Y-53124D01*
X47203Y-51268D01*
X47131Y-51093D01*
X46997Y-50959D01*
X46884Y-50912D01*
X46824Y-50872D01*
X46728Y-50853D01*
X46632Y-50872D01*
X46572Y-50912D01*
X46459Y-50959D01*
X46325Y-51092D01*
X46253Y-51267D01*
X46253Y-51456D01*
X46325Y-51630D01*
X46458Y-51764D01*
X46633Y-51837D01*
X46822Y-51837D01*
X46997Y-51765D01*
X47130Y-51631D01*
X47203Y-51457D01*
X47203Y-51268D01*
X47203Y-53124D01*
X47188Y-53089D01*
X47096Y-53065D01*
X47025Y-53135D01*
X47025Y-52994D01*
X47001Y-52901D01*
X46804Y-52832D01*
X46595Y-52843D01*
X46455Y-52901D01*
X46431Y-52994D01*
X46728Y-53291D01*
X47025Y-52994D01*
X47025Y-53135D01*
X46799Y-53362D01*
X47096Y-53659D01*
X47188Y-53635D01*
X47258Y-53438D01*
X47258Y-55850D01*
X47025Y-55850D01*
X47025Y-53729D01*
X46728Y-53432D01*
X46657Y-53503D01*
X46657Y-53362D01*
X46360Y-53065D01*
X46267Y-53089D01*
X46198Y-53286D01*
X46209Y-53494D01*
X46267Y-53635D01*
X46360Y-53659D01*
X46657Y-53362D01*
X46657Y-53503D01*
X46431Y-53729D01*
X46455Y-53822D01*
X46652Y-53892D01*
X46861Y-53880D01*
X47001Y-53822D01*
X47025Y-53729D01*
X47025Y-55850D01*
X45750Y-55850D01*
X45750Y-32350D01*
X59948Y-32350D01*
X59898Y-32399D01*
X59749Y-32757D01*
X59749Y-33145D01*
X59897Y-33504D01*
X60171Y-33778D01*
X60529Y-33927D01*
X60917Y-33927D01*
X61275Y-33779D01*
X61550Y-33505D01*
X61646Y-33275D01*
X61662Y-33357D01*
X61770Y-33520D01*
X61933Y-33628D01*
X62124Y-33666D01*
X62315Y-33628D01*
X62477Y-33520D01*
X62586Y-33357D01*
X62624Y-33166D01*
X62662Y-33357D01*
X62770Y-33520D01*
X62933Y-33628D01*
X63124Y-33666D01*
X63315Y-33628D01*
X63477Y-33520D01*
X63586Y-33357D01*
X63624Y-33166D01*
X63662Y-33357D01*
X63770Y-33520D01*
X63933Y-33628D01*
X64124Y-33666D01*
X64315Y-33628D01*
X64477Y-33520D01*
X64586Y-33357D01*
X64624Y-33166D01*
X64662Y-33357D01*
X64770Y-33520D01*
X64933Y-33628D01*
X65124Y-33666D01*
X65315Y-33628D01*
X65477Y-33520D01*
X65586Y-33357D01*
X65624Y-33166D01*
X65662Y-33357D01*
X65770Y-33520D01*
X65933Y-33628D01*
X66124Y-33666D01*
X66315Y-33628D01*
X66477Y-33520D01*
X66586Y-33357D01*
X66624Y-33166D01*
X66662Y-33357D01*
X66770Y-33520D01*
X66933Y-33628D01*
X67124Y-33666D01*
X67315Y-33628D01*
X67477Y-33520D01*
X67586Y-33357D01*
X67624Y-33166D01*
X67662Y-33357D01*
X67770Y-33520D01*
X67933Y-33628D01*
X68124Y-33666D01*
X68315Y-33628D01*
X68477Y-33520D01*
X68586Y-33357D01*
X68624Y-33166D01*
X68662Y-33357D01*
X68770Y-33520D01*
X68933Y-33628D01*
X69124Y-33666D01*
X69315Y-33628D01*
X69477Y-33520D01*
X69586Y-33357D01*
X69624Y-33166D01*
X69662Y-33357D01*
X69770Y-33520D01*
X69933Y-33628D01*
X70124Y-33666D01*
X70315Y-33628D01*
X70477Y-33520D01*
X70586Y-33357D01*
X70624Y-33166D01*
X70662Y-33357D01*
X70770Y-33520D01*
X70933Y-33628D01*
X71124Y-33666D01*
X71315Y-33628D01*
X71477Y-33520D01*
X71586Y-33357D01*
X71624Y-33166D01*
X71624Y-32739D01*
X71586Y-32547D01*
X71477Y-32385D01*
X71424Y-32350D01*
X72423Y-32350D01*
X72370Y-32385D01*
X72262Y-32547D01*
X72224Y-32739D01*
X72224Y-33166D01*
X72262Y-33357D01*
X72370Y-33520D01*
X72533Y-33628D01*
X72724Y-33666D01*
X72915Y-33628D01*
X73077Y-33520D01*
X73186Y-33357D01*
X73224Y-33166D01*
X73262Y-33357D01*
X73370Y-33520D01*
X73533Y-33628D01*
X73724Y-33666D01*
X73915Y-33628D01*
X74077Y-33520D01*
X74186Y-33357D01*
X74224Y-33166D01*
X74262Y-33357D01*
X74370Y-33520D01*
X74533Y-33628D01*
X74724Y-33666D01*
X74915Y-33628D01*
X75077Y-33520D01*
X75186Y-33357D01*
X75224Y-33166D01*
X75262Y-33357D01*
X75370Y-33520D01*
X75533Y-33628D01*
X75724Y-33666D01*
X75915Y-33628D01*
X76077Y-33520D01*
X76186Y-33357D01*
X76224Y-33166D01*
X76262Y-33357D01*
X76370Y-33520D01*
X76533Y-33628D01*
X76724Y-33666D01*
X76915Y-33628D01*
X77077Y-33520D01*
X77186Y-33357D01*
X77224Y-33166D01*
X77262Y-33357D01*
X77370Y-33520D01*
X77533Y-33628D01*
X77724Y-33666D01*
X77915Y-33628D01*
X78077Y-33520D01*
X78186Y-33357D01*
X78224Y-33166D01*
X78262Y-33357D01*
X78370Y-33520D01*
X78533Y-33628D01*
X78724Y-33666D01*
X78915Y-33628D01*
X79077Y-33520D01*
X79186Y-33357D01*
X79224Y-33166D01*
X79262Y-33357D01*
X79370Y-33520D01*
X79533Y-33628D01*
X79724Y-33666D01*
X79750Y-33661D01*
X79750Y-38756D01*
X79749Y-38757D01*
X79749Y-39145D01*
X79750Y-39147D01*
X79750Y-49756D01*
X79749Y-49757D01*
X79749Y-50145D01*
X79750Y-50147D01*
X79750Y-51214D01*
X79252Y-50717D01*
X79252Y-47048D01*
X79252Y-34843D01*
X79132Y-34552D01*
X78910Y-34330D01*
X78619Y-34209D01*
X78305Y-34209D01*
X78014Y-34329D01*
X77792Y-34551D01*
X77671Y-34842D01*
X77671Y-35156D01*
X77791Y-35447D01*
X78013Y-35669D01*
X78304Y-35790D01*
X78618Y-35790D01*
X78909Y-35670D01*
X79131Y-35448D01*
X79252Y-35157D01*
X79252Y-34843D01*
X79252Y-47048D01*
X79132Y-46757D01*
X78910Y-46535D01*
X78619Y-46414D01*
X78305Y-46414D01*
X78014Y-46534D01*
X77792Y-46756D01*
X77671Y-47047D01*
X77671Y-47361D01*
X77791Y-47652D01*
X78013Y-47874D01*
X78304Y-47995D01*
X78618Y-47995D01*
X78909Y-47875D01*
X79131Y-47653D01*
X79252Y-47362D01*
X79252Y-47048D01*
X79252Y-50717D01*
X74748Y-46212D01*
X74748Y-46206D01*
X74702Y-46096D01*
X74618Y-46011D01*
X74507Y-45966D01*
X74388Y-45965D01*
X74278Y-46011D01*
X74193Y-46095D01*
X74148Y-46206D01*
X74147Y-46325D01*
X74193Y-46435D01*
X74229Y-46471D01*
X74177Y-46450D01*
X74058Y-46449D01*
X73948Y-46495D01*
X73863Y-46579D01*
X73818Y-46690D01*
X73817Y-46809D01*
X73863Y-46919D01*
X73947Y-47004D01*
X74058Y-47049D01*
X74064Y-47049D01*
X78388Y-51373D01*
X78370Y-51385D01*
X78262Y-51547D01*
X78224Y-51739D01*
X78186Y-51547D01*
X78077Y-51385D01*
X77915Y-51277D01*
X77724Y-51239D01*
X77533Y-51277D01*
X77370Y-51385D01*
X77262Y-51547D01*
X77224Y-51739D01*
X77186Y-51547D01*
X77077Y-51385D01*
X76915Y-51277D01*
X76724Y-51239D01*
X76533Y-51277D01*
X76370Y-51385D01*
X76262Y-51547D01*
X76224Y-51739D01*
X76186Y-51547D01*
X76077Y-51385D01*
X75915Y-51277D01*
X75724Y-51239D01*
X75533Y-51277D01*
X75370Y-51385D01*
X75262Y-51547D01*
X75224Y-51739D01*
X75186Y-51547D01*
X75077Y-51385D01*
X74915Y-51277D01*
X74724Y-51239D01*
X74533Y-51277D01*
X74370Y-51385D01*
X74262Y-51547D01*
X74224Y-51739D01*
X74224Y-52166D01*
X74262Y-52357D01*
X74370Y-52520D01*
X74533Y-52628D01*
X74724Y-52666D01*
X74915Y-52628D01*
X75077Y-52520D01*
X75186Y-52357D01*
X75224Y-52166D01*
X75262Y-52357D01*
X75370Y-52520D01*
X75533Y-52628D01*
X75724Y-52666D01*
X75915Y-52628D01*
X76077Y-52520D01*
X76186Y-52357D01*
X76224Y-52166D01*
X76262Y-52357D01*
X76370Y-52520D01*
X76533Y-52628D01*
X76724Y-52666D01*
X76915Y-52628D01*
X77077Y-52520D01*
X77186Y-52357D01*
X77224Y-52166D01*
X77262Y-52357D01*
X77370Y-52520D01*
X77533Y-52628D01*
X77724Y-52666D01*
X77915Y-52628D01*
X78077Y-52520D01*
X78186Y-52357D01*
X78224Y-52166D01*
X78262Y-52357D01*
X78370Y-52520D01*
X78533Y-52628D01*
X78724Y-52666D01*
X78915Y-52628D01*
X79077Y-52520D01*
X79186Y-52357D01*
X79224Y-52166D01*
X79262Y-52357D01*
X79370Y-52520D01*
X79533Y-52628D01*
X79724Y-52666D01*
X79750Y-52661D01*
X79750Y-55850D01*
M02*
